<svg xmlns="http://www.w3.org/2000/svg" width="201" height="187" viewBox="0 0 201 187" fill="none">
<path d="M 23.94,77.39 L 35.62,163.81 C 37.46,175.88 44.79,181.72 55.18,181.21 C 73.39,180.28 96.62,179.29 151.11,172.65 C 162.91,171.39 171.03,164.99 176.06,154.6 C 179.22,149.28 178.81,145.71 177.74,137.19 L 166.26,57.79 L 37.82,67.12 L 23.94,77.39 Z" fill="#96C7F0" stroke="#5898BF" stroke-width="2" stroke-linecap="round" stroke-linejoin="round"/>
<path d="M 176.33,153.29 C 173.75,157.32 170.61,158.87 162.74,159.95 C 151.71,161.52 105.28,166.24 70.57,168.75 C 58.09,169.49 52.37,165.85 50.01,156.04 C 47.72,146.51 38.74,70.09 38.19,67.4 L 167.49,57.62 L 177.92,139.29 C 178.91,146.06 178.69,149.48 176.33,153.29 Z" fill="#E6F6FF" stroke="#5898BF" stroke-width="2" stroke-linecap="round" stroke-linejoin="round"/>
<path opacity="0.2" d="M 43.82,174.62 L 56.19,165.31 L 51.92,160.19 L 41.02,172.65 L 43.82,174.62 Z" fill="#74B3DB"/>
<path d="M 21.88,54.16 L 23.94,77.39 L 38.52,67.12 L 168.03,57.79 L 164.45,31.88 C 162.62,23.22 156.71,18.23 147.91,18.23 L 51.12,24.91 C 43.82,25.67 40.11,28.26 31.17,35.19 C 24.31,39.93 21.52,44.92 21.88,54.16 Z" fill="#71D1B0" stroke="#37A586" stroke-width="2" stroke-linecap="round" stroke-linejoin="round"/>
<path d="M 36.82,43.17 C 37.11,33.12 42.71,26.28 52.61,25.83 L 148.27,18.23 C 156.89,18.79 162.41,23.91 163.72,32.43 L 167.3,57.79 L 38.74,67.12 C 37.82,60.73 36.61,50.34 36.82,43.17 Z" fill="#B0EDD0" stroke="#37A586" stroke-width="2" stroke-linecap="round" stroke-linejoin="round"/>
<path opacity="0.2" d="M 39.01,33.29 C 42.01,28.99 44.79,27.74 51.82,27.15 L 146.42,20.07 C 155.81,19.62 159.95,24.91 161.36,32.22 L 164.83,54.09 L 162.62,54.31 L 159.25,33.07 C 157.94,28.77 155.16,26.46 147.83,26.61 L 51.04,33.07 C 45.87,33.43 43.82,34.42 41.77,37.16 C 39.21,40.73 38.74,43.97 38.92,52.83 L 37.09,44.92 C 37.11,41.11 37.31,36.29 39.01,33.29 Z" fill="#F5FFFE"/>
<path d="M 118.21,18.93 C 118.42,10.13 123.94,5.57 130.97,5.21 C 139.15,4.76 142.93,12.95 143.19,21.61 C 143.34,27.86 140.81,34.42 135.04,34.42 C 130.42,34.42 128.73,31.18 128.99,28.26 C 129.56,23.14 130.28,19.62 127.23,17.51 L 118.21,18.93 Z" fill="#96C7F0" stroke="#4894BA" stroke-width="2" stroke-linecap="round" stroke-linejoin="round"/>
<path d="M 50.33,24.91 C 49.61,16.86 56.19,9.93 62.77,9.93 C 71.23,9.93 75.21,17.15 75.67,26.11 C 76.03,32.91 73.82,39.23 67.39,39.23 C 62.77,39.23 60.81,36.31 61.28,33.21 C 62.1,27.96 62.92,24.91 59.92,22.07 L 50.33,24.91 Z" fill="#96C7F0" stroke="#4894BA" stroke-width="2" stroke-linecap="round" stroke-linejoin="round"/>
<path opacity="0.3" d="M 125.72,14.06 C 127.85,12.73 130.63,15.97 130.71,22.77 C 130.71,26.88 130.71,28.91 133.41,29.7 C 137.47,30.91 139.93,27.18 139.93,21.13 C 139.93,14.74 137.06,7.74 130.32,7.74 C 125.15,7.74 121.91,11.16 121.18,14.06 C 120.59,16.42 121.91,16.64 125.72,14.06 Z" fill="#F5FFFE"/>
<path opacity="0.3" d="M 59.36,18.71 C 61.41,18.23 63.82,23.91 63.56,28.41 C 63.3,32.17 63.05,34.84 66.91,35.61 C 71.92,36.66 73.74,33.29 73.74,27.1 C 73.74,20.23 70.04,11.71 63.28,11.71 C 58.66,11.71 54.72,15.21 53.71,18.15 C 52.78,20.99 54.09,20.07 59.36,18.71 Z" fill="#F5FFFE"/>
<path d="M 49.02,58.82 C 48.18,58.41 47.82,56.99 48.89,56.63 C 49.71,56.33 50.28,57.42 52.11,57.27 C 54.81,57.04 55.17,55.21 55.17,53.93 C 54.35,54.75 53.43,55.06 52.03,54.91 C 48.97,54.61 47.52,52.98 47.52,49.98 C 47.52,47.47 49.43,46.58 51.62,46.58 C 55.28,46.58 56.35,49.01 56.35,53.06 C 56.35,57.77 54.63,59.32 51.57,59.32 C 50.61,59.32 49.61,59.17 49.02,58.82 Z M 54.09,51.61 C 54.09,49.85 53.12,48.86 51.72,48.86 C 50.41,48.86 49.61,49.62 49.61,50.83 C 49.61,52.25 50.43,53.24 52.03,53.24 C 53.33,53.24 54.09,52.48 54.09,51.61 Z" fill="#4894BA"/>
<path d="M 58.51,52.81 C 58.51,51.92 58.87,51.56 59.69,51.51 L 63.38,51.23 C 64.25,51.16 64.66,51.49 64.66,52.3 C 64.66,53.12 64.25,53.47 63.38,53.55 L 59.69,53.83 C 58.87,53.9 58.51,53.57 58.51,52.81 Z" fill="#4894BA"/>
<path d="M 66.77,47.92 C 66.72,47.01 67.39,46.53 68.21,46.45 L 70.91,46.2 C 75.33,45.8 77.16,47.72 77.16,52.02 C 77.16,56.33 75.33,57.96 70.91,58.36 L 68.96,58.54 C 67.85,58.64 67.23,57.98 67.18,56.81 L 66.77,47.92 Z M 70.71,56.18 C 73.71,55.9 74.68,54.81 74.68,51.82 C 74.68,48.88 73.66,47.82 70.71,48.09 L 69.26,48.25 L 69.67,56.33 L 70.71,56.18 Z" fill="#4894BA"/>
<path d="M 78.81,56.08 L 81.33,46.61 C 81.64,45.47 82.38,44.71 83.61,44.71 C 84.82,44.71 85.51,45.42 85.92,46.56 L 89.44,55.52 C 89.88,56.66 89.19,57.32 88.37,57.32 C 87.73,57.32 87.32,56.86 87.01,56 L 86.42,54.32 L 81.95,54.73 L 81.51,56.56 C 81.28,57.45 80.82,57.75 80.23,57.75 C 79.39,57.75 78.52,57.17 78.81,56.08 Z M 85.71,52.2 L 83.71,46.76 L 82.1,52.53 L 85.71,52.2 Z" fill="#4894BA"/>
<path d="M 93.32,54.71 L 93.37,51.77 L 89.49,45.95 C 88.72,44.74 89.79,43.85 90.56,43.85 C 91.13,43.85 91.54,44.15 91.95,44.86 L 94.52,49.32 L 96.88,44.61 C 97.24,43.85 97.65,43.54 98.22,43.54 C 99.04,43.54 99.96,44.36 99.32,45.62 L 95.8,51.92 L 95.75,54.76 C 95.72,55.75 95.21,56.21 94.47,56.21 C 93.73,56.18 93.29,55.62 93.32,54.71 Z" fill="#4894BA"/>
<path d="M 104.51,48.81 C 104.51,44.61 106.77,42.33 110.31,42.33 C 111.81,42.33 112.78,42.73 113.52,43.32 C 114.31,43.95 114.11,45.72 113.01,45.52 C 112.17,45.34 111.71,44.45 110.16,44.56 C 108.06,44.71 107.04,46.33 107.04,48.76 C 107.04,51.06 108.11,52.73 110.16,52.61 C 111.94,52.51 112.47,51.32 113.16,51.06 C 114.42,50.61 114.93,52.28 114.01,53.52 C 113.24,54.56 111.91,55.12 110.01,55.12 C 106.64,55.09 104.51,52.78 104.51,48.81 Z" fill="#4894BA"/>
<path d="M 116.01,43.7 C 115.96,42.71 116.47,42.25 117.21,42.25 C 117.95,42.25 118.46,42.76 118.51,43.75 L 118.92,51.82 L 123.75,51.51 C 124.62,51.44 125.03,51.84 125.03,52.56 C 125.03,53.32 124.57,53.77 123.65,53.82 L 118.33,54.18 C 117.21,54.25 116.57,53.62 116.52,52.4 L 116.01,43.7 Z" fill="#4894BA"/>
<path d="M 126.36,51.92 L 128.88,42.45 C 129.19,41.31 129.93,40.55 131.16,40.55 C 132.37,40.55 133.06,41.26 133.47,42.4 L 136.99,51.36 C 137.43,52.5 136.74,53.16 135.92,53.16 C 135.28,53.16 134.87,52.71 134.56,51.84 L 133.97,50.17 L 129.5,50.58 L 129.06,52.4 C 128.83,53.29 128.37,53.6 127.78,53.6 C 126.94,53.6 126.07,53.01 126.36,51.92 Z M 133.26,48.05 L 131.26,42.61 L 129.65,48.38 L 133.26,48.05 Z" fill="#4894BA"/>
<path d="M 139.04,51.72 C 138.07,51.01 138.22,49.34 139.53,49.54 C 140.45,49.69 141.09,50.53 142.82,50.43 C 144.18,50.33 145.05,49.67 145.05,48.73 C 145.05,47.84 144.28,47.49 142.93,47.24 L 141.81,46.98 C 139.81,46.53 138.45,45.72 138.45,43.75 C 138.45,41.54 140.12,40.12 143.07,40.12 C 144.28,40.12 145.31,40.38 146.05,40.83 C 147.21,41.54 146.8,43.32 145.64,43.01 C 144.85,42.76 144.21,42.15 142.9,42.25 C 141.65,42.35 141.01,42.96 141.01,43.72 C 141.01,44.53 141.88,44.84 143.13,45.14 L 144.26,45.42 C 146.26,45.92 147.62,46.71 147.62,48.58 C 147.62,50.76 145.79,52.38 142.74,52.38 C 141.24,52.43 139.93,52.23 139.04,51.72 Z" fill="#4894BA"/>
<path d="M 150.03,50.48 C 149.06,49.77 149.22,48.1 150.52,48.3 C 151.44,48.45 152.08,49.29 153.81,49.19 C 155.17,49.09 156.04,48.43 156.04,47.49 C 156.04,46.61 155.27,46.25 153.92,46 L 152.8,45.75 C 150.8,45.29 149.44,44.48 149.44,42.51 C 149.44,40.3 151.11,38.88 154.06,38.88 C 155.27,38.88 156.3,39.14 157.04,39.59 C 158.2,40.3 157.79,42.07 156.63,41.77 C 155.84,41.52 155.2,40.91 153.89,41.01 C 152.64,41.11 152,41.72 152,42.48 C 152,43.29 152.87,43.6 154.12,43.9 L 155.25,44.18 C 157.25,44.69 158.61,45.47 158.61,47.34 C 158.61,49.52 156.78,51.14 153.73,51.14 C 152.23,51.19 150.92,50.99 150.03,50.48 Z" fill="#4894BA"/>
<path d="M 83.61,72.11 L 85.97,75.2 L 89.95,75.1 C 90.92,75.05 91.51,76.09 90.82,77.13 L 88.87,80.12 L 90.33,82.33 C 90.79,83.04 89.97,83.75 89.05,83.4 L 85.71,82.21 L 83.98,83.98 C 82.91,85.07 82.09,84.92 82.09,83.65 L 82.04,80.48 L 79.63,78.86 C 78.71,78.25 78.55,76.93 79.71,76.63 L 82.45,75.64 L 83.61,72.11 Z" fill="#96C7F0"/>
<path d="M 129.71,71.22 L 130.12,74.06 L 133.41,76.12 C 134.05,76.52 133.89,77.03 132.82,77.39 C 130.77,78.15 129.41,78.76 129.05,80.07 C 128.64,81.44 127.72,81.19 127.57,79.82 C 127.31,77.74 126.39,77.13 125.03,76.22 C 124.11,75.56 124.21,74.57 125.42,74.42 C 127.15,74.16 128.22,73.3 128.63,71.73 C 128.88,70.79 129.52,70.34 129.71,71.22 Z" fill="#FEE389"/>
<path d="M 146.21,78.81 C 147.18,77.39 151.65,79.31 151.65,81.24 C 151.65,84.58 147.62,90.72 145.31,90.37 C 143.36,90.07 140.31,87.69 140.62,86.7 C 140.93,85.71 144.31,84.18 146.21,78.81 Z" fill="#99E2BC" stroke="#54B799" stroke-width="2" stroke-linecap="round" stroke-linejoin="round"/>
<path d="M 160.18,95.91 C 160.82,92.81 167.25,91.03 171.28,91.75 C 173.96,92.25 173.7,95.35 173.29,97.65 C 172.72,100.29 168.84,97.81 165.79,99.98 C 162.84,102.05 160.01,100.08 160.18,95.91 Z" fill="#FEE389" stroke="#D6B656" stroke-width="2" stroke-linecap="round" stroke-linejoin="round"/>
<path d="M 149.32,110.94 C 150.88,109.12 153.19,108.31 153.71,109.93 C 154.78,113.3 156.73,115.61 158.78,116.11 C 160.51,116.62 158.78,120.23 156.11,121.12 C 153.44,122.01 146.59,114.42 149.32,110.94 Z" fill="#B7DAF8" stroke="#64A3CC" stroke-width="2" stroke-linecap="round" stroke-linejoin="round"/>
<path d="M 166.61,131.92 C 167.25,130.4 170.72,129.31 172.02,124.31 C 172.66,122.69 174.82,123.45 176.32,125.12 C 177.73,126.69 177.19,127.93 175.03,131.41 C 172.98,134.88 171.31,135.44 170.24,134.88 C 168.19,133.84 166.31,132.81 166.61,131.92 Z" fill="#99E2BC" stroke="#54B799" stroke-width="2" stroke-linecap="round" stroke-linejoin="round"/>
<path d="M 146.78,142.91 C 147.85,140.07 148.92,138.15 151.24,139.36 C 153.55,140.57 155.86,142.49 155.5,143.92 C 154.94,146.08 153.73,147.95 151.78,147.14 C 149.83,146.33 146.21,144.41 146.78,142.91 Z" fill="#FEE389" stroke="#D6B656" stroke-width="2" stroke-linecap="round" stroke-linejoin="round"/>
<path d="M 172.93,72.77 C 174.39,71.07 175.84,70.18 176.81,65.92 C 177.17,64.3 178.9,63.95 180.95,64.86 C 183.62,66.02 183.62,67.84 182.41,70.99 C 180.75,75.44 178.44,76.75 177.37,76.2 C 175.64,75.31 172.21,73.91 172.93,72.77 Z" fill="#B7DAF8" stroke="#64A3CC" stroke-width="2" stroke-linecap="round" stroke-linejoin="round"/>
<path d="M 183.62,93.84 C 184.31,92.17 185.13,92.02 188.18,92.63 C 191.92,93.44 195.61,95.06 195.71,96.83 C 195.87,98.75 194.04,102.91 192.63,102.2 C 190.12,100.94 189.05,98.63 183.83,98.33 C 182.23,98.18 182.64,95.91 183.62,93.84 Z" fill="#B7DAF8" stroke="#64A3CC" stroke-width="2" stroke-linecap="round" stroke-linejoin="round"/>
<path d="M 186.67,123.32 C 189.34,123.32 189.81,120.89 189.76,119.65 C 189.55,117.88 187.95,116.62 186.31,116.77 C 184.36,116.92 183.49,118.84 183.65,120.31 C 183.8,121.78 184.92,123.32 186.67,123.32 Z" fill="#99E2BC" stroke="#54B799" stroke-width="2" stroke-linecap="round" stroke-linejoin="round"/>
<path d="M 5.59,105.82 C 6.05,103.9 10.42,102.61 10.93,103.22 C 12.14,104.79 11.63,107.78 14.82,110.26 C 16.77,111.73 15.6,113.35 13.44,114.72 C 11.28,116.09 10.07,115.73 7.61,112.11 C 6.05,109.63 5.13,107.1 5.59,105.82 Z" fill="#99E2BC" stroke="#54B799" stroke-width="2" stroke-linecap="round" stroke-linejoin="round"/>
<path d="M 15.03,85.09 C 15.03,82.91 16.76,82.46 17.45,82.56 C 19.18,82.71 20.05,84.13 19.79,85.7 C 19.54,87.27 18.09,88.18 16.88,87.82 C 15.67,87.47 15.03,86.48 15.03,85.09 Z" fill="#FEE389" stroke="#D6B656" stroke-width="2" stroke-linecap="round" stroke-linejoin="round"/>
<path d="M 15.39,139.11 C 15.85,137.64 18.8,136.93 19.36,132.73 C 19.62,130.96 21.45,130.6 23.5,131.52 C 25.91,132.56 26.17,132.91 25.25,136.1 C 23.94,140.21 21.11,143.45 19.28,142.94 C 17.33,142.33 15.29,140.56 15.39,139.11 Z" fill="#B7DAF8" stroke="#64A3CC" stroke-width="2" stroke-linecap="round" stroke-linejoin="round"/>
<path d="M 63.46,89.51 C 64.28,86.41 65.44,84.89 67.49,85.5 C 69.54,86.11 74.91,89.59 75.06,91.75 C 75.22,93.32 72.91,96.36 71.75,96.52 C 70.39,96.67 69.83,92.91 64.12,90.7 C 63.05,90.29 63.21,89.94 63.46,89.51 Z" fill="#99E2BC" stroke="#54B799" stroke-width="2" stroke-linecap="round" stroke-linejoin="round"/>
<path d="M 48.51,105.82 C 48.92,103.09 49.74,102.43 54.71,102.83 C 58.74,103.24 60.8,105.01 60.95,106.05 C 61.21,107.72 59.61,111.34 58.54,111.29 C 56.81,111.24 55.84,108.93 50.02,109.18 C 47.61,109.28 48.02,107.81 48.51,105.82 Z" fill="#FEE389" stroke="#D6B656" stroke-width="2" stroke-linecap="round" stroke-linejoin="round"/>
<path d="M 56.24,145.22 C 56.7,142.38 60.73,136.56 63.69,136.56 C 65.24,136.56 68.07,138.93 67.71,139.92 C 67.25,141.28 63.21,142.65 62.05,147.65 C 61.74,148.91 56.03,147.65 56.24,145.22 Z" fill="#99E2BC" stroke="#54B799" stroke-width="2" stroke-linecap="round" stroke-linejoin="round"/>
<path d="M 67.61,123.32 C 67.61,122.06 70.71,120.8 71.35,116.24 C 71.61,114.93 72.81,114.67 74.76,115.38 C 77.23,116.29 77.18,117.71 76.61,120.24 C 75.69,123.95 72.91,127.05 71.28,126.54 C 69.54,125.93 67.61,124.72 67.61,123.32 Z" fill="#B7DAF8" stroke="#64A3CC" stroke-width="2" stroke-linecap="round" stroke-linejoin="round"/>
<path d="M 74.76,150.34 C 76.59,149.2 77.85,148.44 78.21,146.33 C 78.36,145.34 79.05,146.33 79.41,147.54 C 79.98,149.2 80.9,149.46 82.55,149.91 C 83.71,150.27 83.61,150.72 82.3,151.43 C 80.64,152.32 79.9,153.41 79.65,154.78 C 79.49,155.77 78.75,155.41 78.29,153.94 C 77.65,152.07 76.68,151.46 75.13,150.9 C 74.2,150.65 74.2,150.65 74.76,150.34 Z" fill="#FEE389"/>
<path d="M 94.52,139.21 C 94.52,135.59 96.73,133.62 99.25,133.62 C 102.12,133.62 103.95,135.9 109.02,135.9 C 115.71,135.9 119.28,131.11 119.28,122.41 C 116.92,126.03 112.94,128.14 106.92,128.14 C 97.03,128.14 89.21,121.12 89.21,108.92 C 89.21,97.39 98.11,89.21 110.16,89.21 C 124.41,89.21 133.62,100.05 133.62,120.72 C 133.62,136.41 124.72,147.65 109.12,147.65 C 100.71,147.65 94.52,144.51 94.52,139.21 Z M 116.82,108.82 C 116.18,103.93 113.22,100.51 109.43,100.51 C 104.91,100.51 102.33,104.08 102.33,108.11 C 102.33,113.16 105.7,116.01 110.01,116.01 C 114.33,116.01 117.33,112.59 116.82,108.82 Z" fill="#2578E0" stroke="#004499" stroke-width="2" stroke-linecap="round" stroke-linejoin="round"/>
</svg>