<svg xmlns="http://www.w3.org/2000/svg" width="200" height="200" fill="none" viewBox="0 0 200 200">
  <path d="m186.8 143.2c-0.22-6.63-3.78-9.55-10.02-9.55l-4.54-0.72h-9.32c0-8.15-3.32-18.13-12.78-18.13h-3.57c10.68-11.59 17.48-26.34 17.3-43-0.43-33.1-26.93-64.53-66.52-65.05-37.15-0.49-67.1 29.23-67.1 65.83 0 15.38 6.19 29.37 15.77 41.07-2.28 1.45-3.48 5-3.08 8.17-6.19 0.92-20 15.81-25.02 21.88-5.93 7.1-12.27 14.53-11.88 24.75 0.41 9.62 8.81 16.93 17.92 16.17 8.88-0.74 15.04-8.61 20.25-15.6 5.53-7.42 14.65-20.19 18.76-31.02 4.79-0.2 7.83-3.1 8.28-6.26 9.39 3.41 14.9 4.08 25.84 4.08 1.93 0 3.84-0.09 5.72-0.25-2.35 2.24-2.87 5.68-2.87 9.73v7.78c0 2.7 0.94 4.92 2.6 6.63l0.55 22.51c0 6.58 4.86 11.01 10.63 11.01h54.99c10.03 0 18.5-2.11 18.5-11.83 0-5.92-0.07-29.44-0.41-38.2z" fill="#384B6B"/>
  <path d="m125.2 128.1c0-7.13 3.55-13.3 11.72-13.3h13.2c8.17 0 10.66 6.64 10.66 13.3h-3.24c0-5.36-1.81-7.9-7.42-7.9h-12.69c-5.1 0-8.41 2.5-8.41 7.9h-3.82z" fill="#C68254" stroke="#384B6B" stroke-linecap="round" stroke-linejoin="round" stroke-width="2.5"/>
  <path d="m124.9 127.4h3.83c2.48 0 4.49 2.08 4.49 4.37v1.18h-12.24v-1.78c0-2.09 1.68-3.77 3.92-3.77z" fill="#D3EAF5" stroke="#384B6B" stroke-linecap="round" stroke-linejoin="round" stroke-width="2.5"/>
  <path d="m157.4 127.9h3.83c2.48 0 4.02 1.56 4.02 3.85v1.18h-11.73v-1.25c0-2.09 1.64-3.78 3.88-3.78z" fill="#D3EAF5" stroke="#384B6B" stroke-linecap="round" stroke-linejoin="round" stroke-width="2.5"/>
  <path d="m176.2 134.1h-63.1c-5.92 0-11.1 3.89-11.1 11.19v7.78c0 6.57 6.06 10.83 12.73 10.83l5.35-0.11 0.11 0.94h35.5l0.5-0.83 9.93-0.51c7.59 0 13.98-4.27 13.98-10.84v-9.36c0-5.2-1.22-7.8-3.9-9.09z" fill="#FBC549" stroke="#384B6B" stroke-linecap="round" stroke-linejoin="round" stroke-width="2.5"/>
  <path d="m175.4 135.1c1.81 2.25 1.81 4.08 1.81 8.1v7.2c0 7.05-4.4 13-12.01 13l-6.4 0.3v2.44l8.94-0.42c3.69 0 7.66-1.25 9.47-3.54v20.04c0 6.11-4.4 9.86-9.47 9.86h3.23c6.24 0 14.64-1.91 14.64-10.68 0-5.92 0.16-28.32-0.41-38.2-0.4-7.05-3.48-8.57-9.8-8.1z" fill="#D6944B"/>
  <path d="m177.2 160v22.22c0 6.11-4.4 9.86-9.47 9.86h-54.06c-5.92 0-10.16-4.27-10.16-9.86l0.28-21.8" stroke="#384B6B" stroke-linecap="round" stroke-linejoin="round" stroke-width="2.5"/>
  <path d="m119.9 157h4.3c2.01 0 3.05 1.59 3.05 3.49v7.43c0 2.35-1.16 3.88-3.55 3.88h-2.01c-2.49 0-4.03-1.75-4.03-4.2v-7.11c0-1.9 0.53-3.49 2.24-3.49z" fill="#D3EAF5" stroke="#384B6B" stroke-linecap="round" stroke-linejoin="round" stroke-width="2.5"/>
  <path d="m153.6 157h2.74c2.49 0 3.25 1.59 3.25 3.49v7.11c0 2.45-1.54 3.94-3.55 3.94h-2.01c-2.49 0-3.54-1.81-3.54-3.94v-7.11c0-1.9 1.05-3.49 3.11-3.49z" fill="#D3EAF5" stroke="#384B6B" stroke-linecap="round" stroke-linejoin="round" stroke-width="2.5"/>
  <path d="m127.8 164.8h22.18" stroke="#384B6B" stroke-linecap="round" stroke-linejoin="round" stroke-width="2.5"/>
  <path d="m106.2 165-0.15 18.74c1.09 3.06 3.7 4.07 8.74 4.07h49.05c6.25 0 8.4-3.81 8.4-9.91v-11.76l-4.46 0.95-6.06 0.52v2.45c0 2.45-2.68 3.88-4.68 3.88h-2c-3 0-4.9-1.98-5.05-5.3l-20.57 0.06c0 3.32-1.76 5.3-5.27 5.3h-2c-3.31 0-5.42-2.29-5.42-5.36l-5.53-1.03-5-2.61z" fill="#F3B041"/>
  <path d="m119.8 160.1-0.39 7.5c-0.1 2.19 1.29 2.61 2.7 1.03 1.09-1.24 2.29-3.64 2.29-7.11 0-2.98-4.3-4.39-4.6-1.42z" fill="#B8D6E0"/>
  <path d="m152.8 160.1-0.4 7.5c-0.1 2.19 1.91 2.61 3.3 1.03 1.1-1.24 1.74-2.5 1.74-5.97 0-3.7-4.34-5.53-4.64-2.56z" fill="#B8D6E0"/>
  <path d="m110 143.7c0.8-2.76 2.06-3.78 4.75-3.78" stroke="#FBE9A9" stroke-linecap="round" stroke-linejoin="round" stroke-width="2.5"/>
  <path d="m118.4 139.9h0.81" stroke="#FBE9A9" stroke-linecap="round" stroke-linejoin="round" stroke-width="2.5"/>
  <path d="m123.1 139.9h0.8" stroke="#FBE9A9" stroke-linecap="round" stroke-linejoin="round" stroke-width="2.5"/>
  <path d="m162.3 185.5 0.8-0.13" stroke="#FBE9A9" stroke-linecap="round" stroke-linejoin="round" stroke-width="2.5"/>
  <path d="m167.8 183.2 0.8-2.45" stroke="#FBE9A9" stroke-linecap="round" stroke-linejoin="round" stroke-width="2.5"/>
  <path d="m173.7 99.11c1.01-3.1 0.87 1.71 2.98 5.08 1.86 3.2 6.27 3.66 6.27 3.66s-4.15 0.86-5.88 3.76c-1.6 2.6-2.61 5.04-2.61 4.52 0-0.91-0.76-4.01-2.77-6.02-2.01-2-5.12-2.26-5.12-2.26s5.12-1.54 7.13-8.74z" fill="#F9DF73" stroke="#384B6B" stroke-linecap="round" stroke-linejoin="round" stroke-width="2"/>
  <path d="m188.7 117.2c0.8-2.07 1.07 1.3 2.07 3.05 1.01 1.75 3.85 2.15 3.85 2.15s-2.44 0.98-3.85 1.9c-1.4 0.91-1.64 4.37-2.51 4.11-0.67-0.23-1.14-3.33-2.54-4.24-1-0.66-2.27-1.38-2.27-1.38s3.67-1.55 5.25-5.59z" fill="#F7D073"/>
  <path d="m85.19 145.2c0.8-0.59 0.47 2.64 2.48 4.65 1.27 1.26 3.67 1.65 3.67 1.65s-2.94 1.05-4.21 2.31-1.47 3.88-1.81 3.88c-0.7 0-0.4-3.1-2.14-4.88-1.07-1.11-3.28-1.57-3.28-1.57s3.14-0.95 4.32-2.6c0.9-1.32 0.97-3.44 0.97-3.44z" fill="#F9DF73" stroke="#384B6B" stroke-linecap="round" stroke-linejoin="round" stroke-width="2"/>
  <path d="m93.01 165.3c0.6-1.05 0.74 1.27 1.6 2.79 0.74 1.36 2.92 1.49 2.92 1.49s-2.11 1.08-3.12 1.94c-1 0.86-1 3.15-1.67 2.89-0.6-0.24-0.93-2.82-2.13-3.74-0.87-0.66-1.87-1.16-1.87-1.16s2.67-0.84 4.27-4.21z" fill="#F7D073"/>
  <path d="m97.32 7.31c-36.24-0.49-66.56 28.74-66.56 65.21 0 31.29 26.05 62.19 66.3 62.19 35.56 0 66.35-29.9 66.35-62.65s-26.05-64.24-66.09-64.75z" fill="#F9DF73" stroke="#384B6B" stroke-linecap="round" stroke-linejoin="round" stroke-width="2.5"/>
  <path d="m36.11 48.73c2.68 0 4.63 0.45 6.7 0.98 9.29-24.5 31.9-40.6 55.85-40.6 31.22 0 60.91 25.6 60.91 59.73 0 25.37-16.65 50-40.96 58.29-6.9 2.83-12.59 2.83-19.95 2.83-32.59 0-58.05-27.25-58.95-57.05-0.27-8.77 1.4-15 4.21-22.49-2.31-0.98-4.69-1.69-7.81-1.69z" fill="#FBE9A9"/>
  <path d="m32.36 76.16c2.88 3 4.86 4.75 8.75 6.47 4.95 24.26 24.36 44.5 48.7 49.9-7.7-0.92-13.59-2.31-19.78-5.4-19.81-9.82-35.16-27.37-37.67-50.97z" fill="#F3B041"/>
  <path d="m99.93 8.09c-31.71 1.02-58.12 29.84-58.12 63.52 0 31.3 23.92 60.4 56.85 60.4" stroke="#384B6B" stroke-linecap="round" stroke-linejoin="round" stroke-width="2.5"/>
  <path d="m102 118.8c25.85 0 46.19-22.77 46.19-46.78 0-25.8-19.91-48.75-46.19-48.75-26.27 0-45.68 21.9-45.68 48.3 0 24 18.26 47.23 45.68 47.23z" fill="#B9E3F4" stroke="#384B6B" stroke-linecap="round" stroke-linejoin="round" stroke-width="2.5"/>
  <path d="m102 24.43c5.08 0 9.14 0.78 14 2.59 14.35 5.6 23.93 21.45 23.93 39.89 0 23.23-17.14 44.6-41.3 44.6-14.85 0-25.95-7.36-33.19-17.92 7.24 13.8 19.95 23.52 36.56 23.52 24.7 0 44.51-21.89 44.51-45.5 0-24.5-18.8-47.18-44.51-47.18z" fill="#94D1EA"/>
  <path d="m85.12 54.55c-9.46 0-16.3 10.16-16.3 20.38 0 10.68 7.3 20.17 16.3 19.9 8.89-0.26 15.99-10.42 15.99-20.16 0-9.75-7.36-20.12-15.99-20.12z" fill="#FEFFFE" stroke="#384B6B" stroke-linecap="round" stroke-linejoin="round" stroke-width="2.5"/>
  <path d="m88.81 71.15c-6.24 0-9.45 6.11-9.45 11.25 0 5.66 3.55 10.06 8.51 10.06 5.44 0 9.59-6.44 9.59-11.12 0-5.2-2.98-10.19-8.65-10.19z" fill="#2E5B8E"/>
  <path d="m85.32 80.46c2.35 0 2.89-1.65 2.89-2.8 0-1.75-1.38-2.73-2.55-2.73-1.81 0-2.88 1.44-2.88 2.73 0 1.35 1.07 2.8 2.54 2.8z" fill="#FEFFFE"/>
  <path d="m124.2 54.81c-9.79 0-16.56 10.43-16.56 20.38 0 10.16 6.97 19.64 16.56 19.64 9.33 0 16.1-10.02 16.1-19.9 0-9.42-6.77-20.12-16.1-20.12z" fill="#FEFFFE" stroke="#384B6B" stroke-linecap="round" stroke-linejoin="round" stroke-width="2.5"/>
  <path d="m124.2 71.15c-6.25 0-9.79 6.11-9.79 11.25 0 5.66 4.15 10.32 9.09 10.32 5.69 0 9.41-6.17 9.41-10.58 0-5.33-3.38-10.99-8.71-10.99z" fill="#2E5B8E"/>
  <path d="m120.8 80.46c2.34 0 3.14-1.65 3.14-2.8 0-1.75-1.4-2.73-2.57-2.73-1.81 0-2.87 1.44-2.87 2.73 0 1.35 0.83 2.8 2.3 2.8z" fill="#FEFFFE"/>
  <path d="m109.2 97.05c-1.34 2.06-3.14 2.78-4.95 2.78s-3.55-1.05-5.08-2.99" stroke="#384B6B" stroke-linecap="round" stroke-linejoin="round" stroke-width="2.5"/>
  <path d="m97.66 32.36c-11.33 0.52-21.84 7.6-25.35 15.27-2.01 4.6 1.4 5.98 3.91 4.08 2.68-1.94 6.39-9.65 21.44-12.81 5.44-1.18 5.04-6.74 0-6.54z" fill="#FEFFFE"/>
  <path d="m111.2 32.75h0.24c3.08 0 4.08 2.29 4.08 3.7 0 2.45-2.07 3.57-3.88 3.57h-0.5c-2.49 0-4-1.97-4-3.77 0-1.94 1.68-3.5 4.06-3.5z" fill="#FEFFFE"/>
  <path d="m46.53 113.7c-3.32 1.68-4.82 6.1-3.32 9.55 2.81 6.5 13.74 13.8 19.73 14.15 4.95 0.26 7.9-3.37 8.17-6.13-9.26-3.51-18-9.07-24.58-17.57z" fill="#B8D6E0" stroke="#384B6B" stroke-linecap="round" stroke-linejoin="round" stroke-width="2"/>
  <path d="m42.81 123.6c-6.43 1.04-19.76 15.73-24.49 21.55-5.69 6.88-11.9 13.9-11.2 23.17 0.77 9.29 9 16.72 18.79 15.23 8.83-1.33 15.2-10.65 20.38-18.02 5.04-7.11 13.88-19.75 15.55-27.53-6.7-1.78-15.11-7.66-19.03-14.4z" fill="#F9DF73" stroke="#384B6B" stroke-linecap="round" stroke-linejoin="round" stroke-width="2.5"/>
  <path d="m8.06 168.1c1.4 3.56 4.95 5.5 8.46 6.02 8.5 1.26 14.59-2.72 20.2-10.74 4.89-6.81 12.99-17.37 14.74-24.87l-8.4-11.41-1.25-3c3.91 5.53 10.29 10.83 15 12.88-3 8.71-8.9 17.8-14 25.61-6.7 10.29-13.6 22.17-25.39 20.49-5.76-1.5-10.5-7.62-9.36-14.98z" fill="#F3B041"/>
  <path d="m38.66 134.6c2.48 0.52 2.88-1.46 1.95-2.63" stroke="#FBE9A9" stroke-linecap="round" stroke-linejoin="round" stroke-width="4"/>
  <path d="m15.38 160.6c1.34 0.92 2.34 0 2.84-1.02 2.49-4.53 10.89-13.98 15.28-18.99 1.41-1.69 1.01-2.6 0-2.6" stroke="#FBE9A9" stroke-linecap="round" stroke-linejoin="round" stroke-width="4"/>
</svg>