<svg class="destination-svg" id="destinationDreamJobSvg" xmlns="http://www.w3.org/2000/svg" width="250" height="250" viewBox="0 0 250 250" fill="none">
<g class="confetti-strip" style="--delay: 0.1s; --sway-dur: 2.15s; --tx: -16px;"><path d="M 240.18,101.71 C 246.94,113.28 239.97,123.76 232.98,125.13 C 227.78,126.16 222.06,121.94 222.46,117.27 C 223.01,110.71 230.74,110.87 233.62,116.42 C 235.24,119.73 235.44,126.71 227.91,132.96 C 224.43,136.01 216.12,137.49 215.06,132.96 L 215.82,131.09 C 220.98,131.98 227.78,129.06 230.85,123.76 C 234.82,116.86 229.26,114.64 227.52,115.12 C 225.25,115.79 225.92,120.96 230.85,120.71 C 237.11,120.41 238.38,112.63 234.04,106.22 L 238.72,101.71 H 240.18 Z" fill="#A1ECC1" stroke="#73C6B5" stroke-width="1.6" stroke-linecap="round" stroke-linejoin="round"/></g>
<g class="confetti-strip" style="--delay: 0.2s; --sway-dur: 2.3s; --tx: -12px;"><path d="M 11.19,82.71 C 2.16,94.28 9.87,103.89 16.86,105.26 C 23.06,106.52 27.11,103.07 26.71,98.4 C 26.16,94.69 20.24,92.99 16.77,98.54 C 14.69,101.85 14.11,105.06 18.86,111.22 C 22.72,116.28 28.22,117.26 31.91,118.09 L 32.88,117.73 L 33.08,112.69 C 27.92,113.58 21.12,110.66 18.05,105.36 C 14.08,98.46 18.61,95.92 20.35,96.4 C 22.62,97.07 23.19,99.87 19.15,101.06 C 13.26,102.86 11.29,95.22 14.91,87.22 L 11.19,82.71 Z" fill="#B3D8FF" stroke="#86A8D8" stroke-width="2" stroke-linecap="round" stroke-linejoin="round"/></g>
<g class="confetti-strip" style="--delay: 0.30000000000000004s; --sway-dur: 2.45s; --tx: -8px;"><path d="M 125.06,28.07 L 137.11,20.88 L 145.45,11.71 L 140.19,6.25 C 137.31,12.91 133.91,15.26 127.78,16.51 L 132.62,21.96 L 125.06,28.07 Z" fill="#FDF3B4"/></g>
<g class="confetti-strip" style="--delay: 0.4s; --sway-dur: 2.6s; --tx: -4px;"><path d="M 130.41,21.42 L 138.08,19.73 L 145.31,12.18 L 140.28,6.72 C 137.4,13.38 133.99,15.73 127.86,16.98 L 130.41,21.42 Z" fill="#B3D8FF" stroke="#91A7D6" stroke-width="2" stroke-linecap="round" stroke-linejoin="round"/></g>
<g class="confetti-strip" style="--delay: 0.5s; --sway-dur: 2.75s; --tx: 0px;"><path d="M 165.18,24.97 L 169.16,29.73 C 172.23,25.94 174.31,24.32 177.38,23.31 L 174.31,17.38 C 169.93,16.91 166.12,20.21 165.18,24.97 Z" fill="#B1E9D8" stroke="#73C6B5" stroke-width="2" stroke-linecap="round" stroke-linejoin="round"/></g>
<g class="confetti-strip" style="--delay: 0.6000000000000001s; --sway-dur: 2.9s; --tx: 4px;"><path d="M 209.01,19.16 L 211.75,13.71 C 220.36,14.66 225.92,19.56 223.84,28.46 C 222.03,36.56 227.03,40.85 233.56,41.74 L 229.78,47.19 C 222.25,44.91 220.11,38.39 221.72,30.16 C 223.01,23.51 217.88,20.07 209.01,19.16 Z" fill="#F7B6CD" stroke="#D5769A" stroke-width="2" stroke-linecap="round" stroke-linejoin="round"/></g>
<g class="confetti-strip" style="--delay: 0.7000000000000001s; --sway-dur: 3.05s; --tx: 8px;"><path d="M 31.05,55.49 L 29.11,53.7 C 25.77,55.82 23.19,56.09 17.71,55.92 L 18.92,63.28 C 23.81,63.82 27.92,62.07 29.72,59.12 L 31.05,55.49 Z" fill="#B1E9D8" stroke="#73C6B5" stroke-width="2" stroke-linecap="round" stroke-linejoin="round"/></g>
<g class="confetti-strip" style="--delay: 0.8s; --sway-dur: 3.2s; --tx: 12px;"><path d="M 31.82,26.81 L 37.08,32.27 C 43.71,30.61 46.42,26.01 48.33,19.06 L 42.01,14.82 C 39.93,21.96 37.05,24.32 31.82,26.81 Z" fill="#B3E9F6" stroke="#86A8D8" stroke-width="2" stroke-linecap="round" stroke-linejoin="round"/></g>
<g class="confetti-strip" style="--delay: 0.9s; --sway-dur: 3.3499999999999996s; --tx: 16px;"><path d="M 80.14,22.97 L 85.17,18.12 C 88.95,18.66 92.29,24.45 91.41,27.34 L 88.73,31.22 L 87.72,30.95 C 85.91,27.21 83.97,25.26 80.14,22.97 Z" fill="#F7B6CD" stroke="#D5769A" stroke-width="2" stroke-linecap="round" stroke-linejoin="round"/></g>
<g class="confetti-strip" style="--delay: 1.0s; --sway-dur: 3.5s; --tx: 20px;"><path d="M 227.24,69.57 L 229.78,66.49 C 233.05,70.16 234.46,72.44 238.43,73.81 L 236.16,77.61 C 233.09,80.53 225.06,73.61 227.24,69.57 Z" fill="#B3D8FF" stroke="#86A8D8" stroke-width="2" stroke-linecap="round" stroke-linejoin="round"/></g>
<g class="confetti-strip" style="--delay: 1.1s; --sway-dur: 3.65s; --tx: 24px;"><path d="M 41.81,140.63 L 45.35,145.76 C 50.91,145.76 54.92,140.46 56.53,135.7 L 50.71,130.94 C 48.87,136.71 46.13,138.73 41.81,140.63 Z" fill="#F7B6CD" stroke="#D5769A" stroke-width="2" stroke-linecap="round" stroke-linejoin="round"/></g>
<g class="confetti-strip" style="--delay: 1.2000000000000002s; --sway-dur: 3.8s; --tx: 28px;"><path d="M 200.61,147.08 L 205.45,144.66 C 209.23,144.66 211.17,151.81 210.3,154.16 L 206.68,156.51 L 204.74,156.24 C 203.96,151.81 202.82,149.42 200.61,147.08 Z" fill="#F7B6CD" stroke="#D5769A" stroke-width="2" stroke-linecap="round" stroke-linejoin="round"/></g>
<path d="M 12.06,226.71 L 8.71,179.81 L 87.16,175.64 L 90.04,219.6 C 90.71,228.44 85.68,235.43 77.34,236.37 L 26.26,240.74 C 18.39,241.41 12.7,234.82 12.06,226.71 Z" fill="#F1FAFF" stroke="#91A7D6" stroke-width="2" stroke-linecap="round" stroke-linejoin="round"/>
<path d="M 9.11,182.23 L 86.96,175.81 L 86.76,173.96 C 86.22,166.25 80.96,160.32 73.43,160.73 L 22.52,163.91 C 14.01,164.45 8.58,171.11 8.84,179.21 L 9.11,182.23 Z" fill="#FCACBA" stroke="#D5769A" stroke-width="2" stroke-linecap="round" stroke-linejoin="round"/>
<path d="M 23.19,160.26 L 23.74,169.1 C 23.94,172.48 25.95,173.62 28.7,173.35 C 31.45,173.08 32.93,171.21 32.73,167.83 L 32.19,159.86 C 31.99,156.94 29.91,155.02 27.17,155.22 C 24.42,155.42 22.99,157.34 23.19,160.26 Z" fill="#B3D8FF" stroke="#7695BF" stroke-width="2" stroke-linecap="round" stroke-linejoin="round"/>
<path d="M 59.79,157.74 L 60.34,166.58 C 60.54,169.97 62.55,170.84 65.3,170.57 C 68.05,170.31 69.53,168.9 69.33,165.51 L 68.79,157.81 C 68.59,154.89 66.51,153.33 63.77,153.53 C 61.02,153.73 59.59,155.36 59.79,157.74 Z" fill="#B3D8FF" stroke="#7695BF" stroke-width="2" stroke-linecap="round" stroke-linejoin="round"/>
<path opacity="0.2" d="M 13.71,220.72 L 11.29,193.91 L 84.01,188.05 L 86.42,217.27 C 87.09,225.41 82.91,231.33 74.57,232.01 L 28.43,235.7 C 20.16,236.37 14.45,229.51 13.71,220.72 Z" fill="#D6E9FF"/>
<path d="M 44.88,188.45 L 40.91,197.15 L 30.92,199.94 C 27.31,201.01 26.7,204.81 29.71,207.66 L 37.11,214.75 L 36.17,224.33 C 35.84,227.78 38.98,229.65 42.62,227.71 L 50.38,223.32 L 60.24,226.91 C 64.35,228.44 67.23,225.34 66.15,220.91 L 64.21,211.74 L 69.93,204.2 C 72.55,200.75 71.14,197.36 66.76,197.02 L 58.15,196.15 L 52.16,187.04 C 50.08,184.76 46.23,185.16 44.88,188.45 Z" fill="url(#paint0_linear_101_1021)" stroke="#E59D45" stroke-width="2" stroke-linecap="round" stroke-linejoin="round"/>
<path d="M 31.32,189.26 L 35.03,193.7" stroke="#F7B69A" stroke-width="2" stroke-linecap="round" stroke-linejoin="round"/>
<path d="M 64.04,187.04 L 61.96,191.74" stroke="#F7B69A" stroke-width="2" stroke-linecap="round" stroke-linejoin="round"/>
<path d="M 74.77,213.95 L 69.93,212.54" stroke="#F7B69A" stroke-width="2" stroke-linecap="round" stroke-linejoin="round"/>
<path d="M 30.72,217.33 L 26.74,218.7" stroke="#F7B69A" stroke-width="2" stroke-linecap="round" stroke-linejoin="round"/>
<path d="M 40.17,207.12 C 40.71,204.94 42.15,204.27 43.36,204.54 C 44.44,204.81 44.91,205.68 45.11,206.62" stroke="#222221" stroke-width="2" stroke-linecap="round" stroke-linejoin="round"/>
<path d="M 55.46,205.41 C 56.27,203.53 57.48,202.79 58.82,203.13 C 59.83,203.4 60.3,204.27 60.5,205.21" stroke="#222221" stroke-width="2" stroke-linecap="round" stroke-linejoin="round"/>
<path d="M 46.05,209.91 C 47.73,212.06 51.82,212.61 53.94,209.44" stroke="#222221" stroke-width="2" stroke-linecap="round" stroke-linejoin="round"/>
<g class="go-btn-group" onclick="window.location.href='https://u.payu.in/4IknM3Yb3nEF'" style="cursor: pointer; transform-origin: 201px 197px;">
<path d="M 231.25,202.99 C 231.25,217.54 218.93,229.78 201.96,229.31 C 187.09,228.88 174.67,216.97 174.67,203.33 C 174.67,189.06 186.49,178.12 201.96,171.81 C 217.96,171.81 231.25,187.04 231.25,202.99 Z" fill="#D6E3F4" stroke="#869BC6" stroke-width="2" stroke-linecap="round" stroke-linejoin="round"/>
<path d="M 201.96,223.66 C 215.41,223.66 226.32,211.92 226.32,197.69 C 226.32,183.46 215.41,171.71 201.96,171.71 C 188.51,171.71 179.06,182.23 179.06,196.46 C 179.06,209.91 188.51,223.66 201.96,223.66 Z" fill="url(#paint1_linear_101_1021)" stroke="#5CB27A" stroke-width="2" stroke-linecap="round" stroke-linejoin="round"/>
<path d="M 197.16,192.91 L 197.73,192.61 C 198.37,192.28 199.18,192.54 199.38,193.28 V 198.67 C 197.97,200.41 196.36,201.35 193.75,201.35 C 188.91,201.35 186.56,197.83 186.56,195.04 C 186.56,191.41 189.11,188.05 193.35,188.05 C 195.76,188.05 197.37,188.72 198.44,189.93 C 198.71,190.26 198.57,190.8 198.17,190.94 L 196.36,191.61 C 196.09,191.71 195.76,191.67 195.52,191.47 C 194.85,190.94 194.35,190.74 193.35,190.74 C 190.93,190.74 189.72,192.92 189.72,194.77 C 189.72,196.89 191.06,198.73 193.48,198.73 C 194.62,198.73 195.42,198.4 196.09,197.73 V 193.89 C 196.09,193.45 196.76,193.08 197.16,192.91 Z" fill="#F1FAFF"/>
<path d="M 206.99,188.05 C 211.44,187.65 213.99,191.07 213.99,194.77 C 213.99,198.26 211.24,201.35 207.13,201.35 C 202.82,201.35 200.21,198.13 200.21,194.77 C 200.21,191.41 202.62,188.05 206.99,188.05 Z M 207.06,190.74 C 204.78,190.74 203.37,192.75 203.37,194.77 C 203.37,196.72 204.64,198.67 206.99,198.67 C 209.41,198.67 210.58,196.65 210.58,194.7 C 210.58,192.82 209.31,190.74 207.06,190.74 Z" fill="#F1FAFF"/>
<path d="M 215.6,189.26 C 215.6,188.59 216.14,188.05 216.81,188.05 H 217.08 C 217.82,188.05 218.42,188.66 218.35,189.4 L 217.75,197.02 C 217.72,197.49 217.21,197.73 216.74,197.73 C 216.21,197.73 215.67,197.46 215.67,197.02 L 215.6,189.26 Z M 216.88,198.6 C 217.89,198.6 218.56,199.14 218.56,200.01 C 218.56,200.88 217.89,201.35 216.88,201.35 C 215.87,201.35 215.27,200.81 215.27,200.01 C 215.27,199.14 215.94,198.6 216.88,198.6 Z" fill="#F1FAFF"/>
</g>
<path d="M 234.13,183.41 L 241.86,182.04" stroke="#C07929" stroke-width="2.5" stroke-linecap="round" stroke-linejoin="round"/>
<path d="M 230.15,176.15 L 238.62,169.23" stroke="#C07929" stroke-width="2.5" stroke-linecap="round" stroke-linejoin="round"/>
<path d="M 223.76,172.05 L 226.64,164.66" stroke="#C07929" stroke-width="2.5" stroke-linecap="round" stroke-linejoin="round"/>
<path d="M 206.01,114.64 L 56.03,121.9 C 50.01,122.24 46.73,117.61 46.73,111.62 L 46.53,98.73 C 46.53,96.75 47.33,96.01 48.74,95.61 C 54.93,94.23 58.01,89.03 57.34,84.03 C 56.53,78.71 53.65,75.02 47.93,73.64 C 46.26,73.17 45.05,71.69 44.98,69.61 L 44.44,53.67 C 44.31,48.21 48.13,44.61 53.17,44.61 L 173.77,38.19 C 175.45,38.12 176.12,38.59 176.73,39.93 C 178.14,42.99 183.73,43.06 185.07,39.06 C 185.47,37.72 186.28,37.25 188.23,37.25 L 199.41,37 C 206.14,36.81 208.95,41.01 209.08,47.07 L 209.55,61.26 C 209.62,63.48 208.61,64.62 206.6,65.16 C 200.88,66.83 198.27,71.76 198.81,77.09 C 199.48,82.81 203.02,86.07 207.87,87.15 C 209.75,87.62 210.76,88.83 210.82,90.91 L 211.43,104.07 C 211.63,109.33 208.95,114.16 206.01,114.64 Z" fill="url(#paint2_linear_101_1021)" stroke="#C07929" stroke-width="1.6" stroke-linecap="round" stroke-linejoin="round"/>
<path opacity="0.3" d="M 46.26,67.04 L 46.06,54.41 C 45.92,49.82 48.5,46.22 53.78,46.36 L 197.97,39.6 C 203.96,39.33 207.03,42.45 207.13,47.91 L 207.67,60.39 C 207.74,62.41 207.03,63.01 205.02,63.68 C 199.63,65.63 197.22,70.12 197.22,76.11 C 197.22,82.21 200.41,86.14 205.93,88.02 C 207.87,88.69 208.81,89.23 208.88,91.65 L 209.28,101.66 C 209.55,107.72 206.6,110.64 200.51,110.64 L 59.09,116.03 C 53.04,116.23 48.6,114.22 48.27,107.13 L 47.8,98.46 C 47.66,96.52 48.67,96.15 50.31,95.48 C 56.13,93.06 58.95,88.83 58.48,83.01 C 57.94,77.02 54.46,74.11 49.07,72.43 C 47.13,71.76 46.32,70.28 46.26,67.04 Z" fill="url(#paint3_linear_101_1021)"/>
<path d="M 181.22,49.72 L 181.42,55.18" stroke="#C07929" stroke-width="1.6" stroke-linecap="round" stroke-linejoin="round"/>
<path d="M 182.03,61.93 L 182.36,67.86" stroke="#C07929" stroke-width="1.6" stroke-linecap="round" stroke-linejoin="round"/>
<path d="M 182.63,74.11 L 182.83,79.57" stroke="#C07929" stroke-width="1.6" stroke-linecap="round" stroke-linejoin="round"/>
<path d="M 183.3,86.31 L 183.5,91.78" stroke="#C07929" stroke-width="1.6" stroke-linecap="round" stroke-linejoin="round"/>
<path d="M 183.77,98.73 L 183.97,103.6" stroke="#C07929" stroke-width="1.6" stroke-linecap="round" stroke-linejoin="round"/>
<path d="M 63.24,50.09 L 70.77,49.55" stroke="#FDF3B4" stroke-width="4.5" stroke-linecap="round" stroke-linejoin="round"/>
<path d="M 79.21,49.15 L 166.45,45.18" stroke="#FDF3B4" stroke-width="4.5" stroke-linecap="round" stroke-linejoin="round"/>
<path d="M 83.66,58.99 L 85.81,58.79 C 88.95,58.52 89.89,60.47 89.89,62.54 C 89.89,64.82 88.75,66.63 86.01,66.83 L 83.66,67 V 58.99 Z M 85.34,60.33 V 65.43 L 86.35,65.36 C 88.29,65.23 88.69,63.82 88.69,62.47 C 88.69,61.33 88.02,60.13 86.55,60.26 L 85.34,60.33 Z" fill="#C07929"/>
<path d="M 90.83,58.72 L 95.99,58.39 V 59.73 L 92.42,59.99 V 61.94 L 95.62,61.74 V 63.01 L 92.42,63.21 V 65.09 L 96.12,64.82 V 66.16 L 90.83,66.56 V 58.72 Z" fill="#C07929"/>
<path d="M 98.97,58.12 C 100.04,58.05 100.85,58.32 101.52,58.79 L 100.92,59.93 C 100.25,59.53 99.51,59.32 98.84,59.39 C 98.37,59.46 98.1,59.73 98.1,60.13 C 98.1,60.46 98.3,60.66 98.84,60.8 L 99.98,61.07 C 101.19,61.33 101.79,61.87 101.79,62.88 C 101.79,64.15 100.78,65.02 99.11,65.09 C 98.1,65.16 97.09,64.89 96.42,64.42 L 97.03,63.21 C 97.7,63.68 98.5,63.95 99.31,63.88 C 99.91,63.82 100.31,63.48 100.31,63.01 C 100.31,62.61 99.91,62.41 99.11,62.21 L 98.17,61.94 C 97.16,61.67 96.62,60.93 96.62,60.06 C 96.62,58.92 97.5,58.19 98.97,58.12 Z" fill="#C07929"/>
<path d="M 102.66,57.92 L 109.32,57.45 V 58.79 L 106.84,58.99 V 65.43 L 105.3,65.56 V 59.06 L 102.66,59.26 V 57.92 Z" fill="#C07929"/>
<path d="M 111.57,57.31 V 65.22 L 110.03,65.36 V 57.45 L 111.57,57.31 Z" fill="#C07929"/>
<path d="M 113.05,57.25 L 114.26,57.11 L 118.71,62.41 V 56.81 L 120.12,56.71 V 64.62 L 119.04,64.76 L 114.53,59.53 V 65.02 L 113.05,65.16 V 57.25 Z" fill="#C07929"/>
<path d="M 124.43,56.48 L 125.64,56.34 L 129.32,64.08 L 127.71,64.22 L 126.78,62.07 L 123.62,62.34 L 122.69,64.62 L 121.08,64.76 L 124.43,56.48 Z M 126.17,60.8 L 125.03,58.05 L 123.89,60.93 L 126.17,60.8 Z" fill="#C07929"/>
<path d="M 127.71,56.21 L 135.24,55.67 V 57.01 L 132.36,57.21 V 63.75 L 130.75,63.88 V 57.31 L 127.71,57.55 V 56.21 Z" fill="#C07929"/>
<path d="M 137.32,55.54 V 63.45 L 135.78,63.58 V 55.67 L 137.32,55.54 Z" fill="#C07929"/>
<path d="M 142.91,55.14 C 145.86,54.94 147.33,57.01 147.33,59.12 C 147.33,61.33 145.72,63.35 143.11,63.55 C 140.16,63.75 138.69,61.6 138.69,59.46 C 138.69,57.31 140.23,55.34 142.91,55.14 Z M 142.98,56.54 C 141.17,56.68 140.23,58.12 140.23,59.53 C 140.23,60.93 141.17,62.34 142.98,62.21 C 144.79,62.07 145.72,60.53 145.72,59.19 C 145.72,57.78 144.72,56.41 142.98,56.54 Z" fill="#C07929"/>
<path d="M 148.21,54.94 L 149.41,54.81 L 153.09,59.73 V 54.54 L 154.63,54.41 V 62.31 L 153.56,62.44 L 149.68,57.38 V 62.74 L 148.21,62.88 V 54.94 Z" fill="#C07929"/>
<path d="M 156.78,56.61 C 157.45,56.54 157.85,57.01 157.85,57.58 C 157.85,58.12 157.45,58.66 156.78,58.72 C 156.11,58.79 155.71,58.25 155.71,57.72 C 155.71,57.11 156.11,56.64 156.78,56.61 Z M 156.78,60.4 C 157.45,60.33 157.85,60.8 157.85,61.33 C 157.85,61.87 157.45,62.41 156.78,62.47 C 156.11,62.54 155.71,62.01 155.71,61.47 C 155.71,60.93 156.11,60.46 156.78,60.4 Z" fill="#C07929"/>
<path d="M 72.65,121.23 L 76.06,128.91 L 86.35,126.02 L 89.89,116.02 C 91.44,113.03 95.82,113.03 95.75,117.03 C 95.69,120.15 94.28,126.71 93.95,127.24 L 94.48,128.25 L 80.15,130.13 L 75.57,129.66 L 72.65,121.23 Z" fill="#F9BDBD" stroke="#B77866" stroke-width="1.6" stroke-linecap="round" stroke-linejoin="round"/>
<path d="M 193.14,115.62 L 190.26,115.15 C 188.72,110.15 182.96,110.61 181.22,115.21 L 180.21,117.73 L 176.46,112.7 C 173.71,109.07 169.53,110.68 170.07,115.01 C 170.47,118.27 172.08,122.97 172.62,123.91 L 172.22,124.71 L 189.72,127.1 L 190.66,125.72 L 193.14,115.62 Z" fill="#F9BDBD" stroke="#B77866" stroke-width="1.6" stroke-linecap="round" stroke-linejoin="round"/>
<path d="M 75.64,131.61 C 77.25,146.13 85.04,161.94 94.61,169.03 L 98.23,144.92 C 95.15,141.33 94.35,127.91 93.34,126.97 C 89.83,126.1 79.61,128.38 75.64,131.61 Z" fill="url(#paint4_linear_101_1021)" stroke="#7695BF" stroke-width="1.6" stroke-linecap="round" stroke-linejoin="round"/>
<path d="M 189.99,126.77 C 187.84,125.09 175.18,123.31 172.83,124.25 C 171.19,124.92 171.02,135.83 165.13,143.71 L 171.22,168.96 C 182.23,158.96 189.66,142.14 189.99,126.77 Z" fill="url(#paint5_linear_101_1021)" stroke="#7695BF" stroke-width="1.6" stroke-linecap="round" stroke-linejoin="round"/>
<path d="M 100.72,236.04 C 102.73,232.14 106.51,230.06 107.31,230.06 L 125.64,232.14 C 126.91,235.94 126.98,242.07 122.14,242.61 C 117.96,243.62 109.26,243.95 105.01,243.62 C 100.05,243.08 98.77,240.16 100.72,236.04 Z" fill="#664A4A" stroke="#472626" stroke-width="1.6" stroke-linecap="round" stroke-linejoin="round"/>
<path d="M 139.16,231.2 C 138.62,235.43 139.43,240.16 144.69,240.9 C 149.27,241.84 155.43,242.51 161.52,242.04 C 167.78,241.24 168.32,236.64 164.34,233.42 C 161.19,230.73 159.04,229.59 157.97,229.32 L 139.16,231.2 Z" fill="#664A4A" stroke="#472626" stroke-width="1.6" stroke-linecap="round" stroke-linejoin="round"/>
<path d="M 96.76,180.82 C 100.04,188.72 105.36,195.11 108.38,196.96 L 104.07,225.61 C 103.33,229.72 107.04,232.07 115.74,232.07 C 122.41,232.07 127.86,231.54 128.73,228.65 L 130.54,205.01 L 135.92,204.74 L 136.93,227.91 C 137.27,230.73 141.91,232.01 149.44,232.01 C 157.31,232.01 162.26,230.26 162.26,225.6 L 157.68,197.43 C 161.86,193.63 167.92,186.24 169.26,180.08 C 159.27,185.71 148.43,187.65 132.15,187.65 C 118.7,187.65 106.21,185.03 96.76,180.82 Z" fill="url(#paint6_linear_101_1021)" stroke="#6491C6" stroke-width="1.6" stroke-linecap="round" stroke-linejoin="round"/>
<path d="M 120.62,202.42 C 126.31,205.07 135.72,205.41 144.29,202.42" stroke="#7695BF" stroke-width="1.6" stroke-linecap="round" stroke-linejoin="round"/>
<path d="M 132.36,124.65 C 110.67,124.65 93.81,140.73 93.81,164.65 C 93.81,171.84 94.81,176.14 96.76,180.82 C 105.73,185.84 117.36,187.65 131.62,187.65 C 146.02,187.65 158.88,185.03 169.26,180.08 C 170.94,175.74 172.15,171.44 172.15,165.25 C 172.15,144.05 157.01,124.65 132.36,124.65 Z" fill="url(#paint7_linear_101_1021)" stroke="#D17566" stroke-width="1.6" stroke-linecap="round" stroke-linejoin="round"/>
<path d="M 132.69,126.13 C 137.27,134.76 146.22,139.43 161.52,139.16 C 153.42,128.85 145.19,124.65 132.36,124.65 C 120.92,124.65 110.13,129.45 103.47,138.69 C 110.83,141.47 125.43,137.82 132.69,126.13 Z" fill="#895858" stroke="#623434" stroke-width="1.6" stroke-linecap="round" stroke-linejoin="round"/>
<path d="M 115.74,143.91 L 118.97,141.8 L 120.88,146.8 L 124.16,149.62 L 120.88,151.8 L 119.24,157.07 L 116.89,152.21 L 114.31,150.63 L 117.12,148.75 L 115.74,143.91 Z" fill="#FEFFFE" stroke="#222221" stroke-width="1.2" stroke-linecap="round" stroke-linejoin="round"/>
<path d="M 144.82,142.34 L 147.17,142.2 L 149.52,143.91" stroke="#222221" stroke-width="1.6" stroke-linecap="round" stroke-linejoin="round"/>
<path d="M 143.21,148.14 L 145.22,146.26 L 146.83,150.09 L 150.41,151.94 L 146.29,154.42 L 145.22,157.11 L 143.21,153.31 L 140.43,150.7 L 143.21,148.14 Z" fill="#FEFFFE" stroke="#222221" stroke-width="1.2" stroke-linecap="round" stroke-linejoin="round"/>
<path d="M 130.34,149.89 L 133.43,149.35 C 135.72,149.35 135.72,152.61 133.7,152.61" stroke="#F19595" stroke-width="2" stroke-linecap="round" stroke-linejoin="round"/>
<path d="M 112.11,156.64 C 107.21,156.64 105.13,158.82 105.13,161.74 C 105.13,164.32 108.32,166.04 112.11,165.71 C 116.95,165.24 118.56,163.62 118.56,160.93 C 118.56,158.62 116.82,156.64 112.11,156.64 Z" fill="#F9B0B0"/>
<path d="M 153.96,156.3 C 148.67,156.3 147.13,159.02 147.13,161.27 C 147.13,163.96 149.91,166.04 153.96,165.78 C 158.92,165.44 160.46,163.16 160.46,160.73 C 160.46,158.15 158.45,156.3 153.96,156.3 Z" fill="#F9B0B0"/>
<path d="M 125.64,158.95 C 125.64,163.42 128.79,168.02 133.03,167.75 C 137.71,167.49 139.62,163.22 139.35,159.09 C 139.22,157.81 137.91,157.61 136.74,157.61 H 128.05 C 126.58,157.61 125.64,157.81 125.64,158.95 Z" fill="#D44A50" stroke="#842626" stroke-width="1.2" stroke-linecap="round" stroke-linejoin="round"/>
<path d="M 117.76,91.04 L 127.05,93.83 L 132.96,90.71 C 134.84,89.7 135.92,91.58 134.31,92.92 L 128.92,97.72 L 128.39,106.72 C 128.32,107.93 127.05,107.93 126.71,106.72 L 123.69,99.74 L 120.05,101.32 L 119.24,106.12 H 118.1 L 117.96,102.73 L 115.28,100.31 L 116.15,99.44 L 121.81,98.26 L 117.02,93.12 C 116.02,92.05 116.28,90.64 117.76,91.04 Z" fill="#C07929"/>
<path d="M 73.05,73.71 L 77.17,73.24 C 82.96,72.63 83.97,76.36 83.77,79.28 C 83.57,82.81 81.42,84.96 77.11,85.16 L 73.06,85.37 L 73.05,73.71 Z M 75.71,75.79 L 75.78,82.81 L 77.52,82.68 C 80.47,82.48 81.21,80.43 81.15,78.55 C 81.01,76.63 79.81,75.39 77.66,75.59 L 75.71,75.79 Z" fill="#C07929"/>
<path d="M 85.44,72.9 L 89.96,72.57 C 93.34,72.3 94.61,74.25 94.61,76.63 C 94.61,78.04 94.01,79.35 92.74,80.16 L 94.82,83.75 L 92.27,83.96 L 90.63,81.03 C 90.23,81.1 89.76,81.17 89.29,81.17 L 87.89,81.24 V 84.36 L 85.44,84.56 V 72.9 Z M 87.89,74.65 V 79.02 L 89.63,78.88 C 91.71,78.75 92.31,77.51 92.21,76.43 C 92.14,75.32 91.37,74.45 89.36,74.58 L 87.89,74.65 Z" fill="#C07929"/>
<path d="M 96.56,72.1 L 105.26,71.43 V 73.64 L 98.97,74.11 V 77.03 L 104.59,76.63 V 78.61 L 98.97,79.02 V 81.94 L 105.46,81.44 V 83.62 L 96.56,84.23 V 72.1 Z" fill="#C07929"/>
<path d="M 111.71,71.03 L 113.66,70.89 L 119.11,82.61 L 116.53,82.81 L 115.19,79.62 L 110.41,79.96 L 109.07,83.35 L 106.49,83.55 L 111.71,71.03 Z M 114.26,77.51 L 112.52,73.44 L 110.77,77.71 L 114.26,77.51 Z" fill="#C07929"/>
<path d="M 120.12,70.56 L 122.27,70.36 L 126.78,76.83 L 131.09,69.81 L 132.97,69.68 L 132.63,81.64 L 130.28,81.84 L 130.48,74.65 L 127.25,79.82 L 126.04,79.96 L 122.56,74.92 L 122.62,82.21 L 120.11,82.41 L 120.12,70.56 Z" fill="#C07929"/>
<path d="M 143.98,69.41 L 146.33,69.21 L 146.13,77.11 C 146.06,80.03 144.32,82.41 141.31,82.41 C 138.96,82.41 138.15,80.83 138.15,79.09 L 140.16,78.41 C 140.16,79.42 140.63,80.23 141.77,80.16 C 143.31,80.03 143.85,78.62 143.85,76.77 L 143.98,69.41 Z" fill="#C07929"/>
<path d="M 154.16,68.81 C 159.01,68.47 160.45,72.37 160.32,74.92 C 160.12,78.04 158.04,80.9 154.36,81.1 C 150.05,81.37 148.13,78.04 148.2,75.12 C 148.33,72.23 150.25,69.07 154.16,68.81 Z M 154.3,70.96 C 151.81,71.16 150.64,73.44 150.71,75.39 C 150.85,77.31 152.15,79.22 154.5,79.02 C 157.08,78.82 158.19,76.5 158.05,74.65 C 157.85,72.7 156.48,70.76 154.3,70.96 Z" fill="#C07929"/>
<path d="M 162.26,68.4 L 166.51,68.07 C 169.06,67.87 170.47,69.28 170.47,71.09 C 170.47,72.1 169.93,73.17 168.93,73.84 C 170.54,74.31 171.34,75.52 171.21,77.03 C 171.01,78.95 169.33,80.36 166.65,80.5 L 162.06,80.83 L 162.26,68.4 Z M 164.61,70.22 V 73.31 L 166.32,73.17 C 167.66,73.04 168.26,72.17 168.19,71.36 C 168.06,70.56 167.32,70.02 165.91,70.15 L 164.61,70.22 Z M 164.61,75.12 V 78.48 L 166.85,78.35 C 168.32,78.21 168.93,77.31 168.79,76.3 C 168.66,75.39 167.72,74.85 166.32,74.99 L 164.61,75.12 Z" fill="#C07929"/>
<defs>
<linearGradient id="paint0_linear_101_1021" x1="49.7473" y1="185.761" x2="49.7473" y2="228.78" gradientUnits="userSpaceOnUse">
<stop stop-color="#FCEA9A"/>
<stop offset="1" stop-color="#F6A945"/>
</linearGradient>
<linearGradient id="paint1_linear_101_1021" x1="202.687" y1="171.711" x2="202.687" y2="217.37" gradientUnits="userSpaceOnUse">
<stop stop-color="#A1ECC1"/>
<stop offset="1" stop-color="#5CB27A"/>
</linearGradient>
<linearGradient id="paint2_linear_101_1021" x1="127.941" y1="37" x2="127.941" y2="122.17" gradientUnits="userSpaceOnUse">
<stop stop-color="#FDF3B4"/>
<stop offset="0.51" stop-color="#FFE063"/>
<stop offset="1" stop-color="#F9B858"/>
</linearGradient>
<linearGradient id="paint3_linear_101_1021" x1="127.941" y1="39.5307" x2="127.941" y2="114.36" gradientUnits="userSpaceOnUse">
<stop stop-color="#FDF3B4"/>
<stop offset="0.51" stop-color="#FFE063"/>
<stop offset="1" stop-color="#F9B858"/>
</linearGradient>
<linearGradient id="paint4_linear_101_1021" x1="86.7866" y1="126.503" x2="86.7866" y2="169.03" gradientUnits="userSpaceOnUse">
<stop stop-color="#A1CDFB"/>
<stop offset="1" stop-color="#90B8E7"/>
</linearGradient>
<linearGradient id="paint5_linear_101_1021" x1="177.551" y1="123.871" x2="177.551" y2="168.96" gradientUnits="userSpaceOnUse">
<stop stop-color="#A1CDFB"/>
<stop offset="1" stop-color="#90B8E7"/>
</linearGradient>
<linearGradient id="paint6_linear_101_1021" x1="133.033" y1="180.82" x2="133.033" y2="232.07" gradientUnits="userSpaceOnUse">
<stop stop-color="#A1CDFB"/>
<stop offset="1" stop-color="#90B8E7"/>
</linearGradient>
<linearGradient id="paint7_linear_101_1021" x1="132.981" y1="124.65" x2="132.981" y2="187.65" gradientUnits="userSpaceOnUse">
<stop stop-color="#F39594"/>
<stop offset="0.51" stop-color="#F9BDBD"/>
<stop offset="1" stop-color="#F9BDBD"/>
</linearGradient>
</defs>
</svg>