<svg xmlns="http://www.w3.org/2000/svg" width="256" height="256" viewBox="0 0 256 256" fill="none">
<path d="M 256.18,212.4 L 197.91,0 H 194.73 L 201.11,22.36 L 255.03,214.29 L 256.18,212.4 Z" fill="#98CCE5"/>
<path d="M 0.08,57.52 L 171.58,18.18 C 172.82,17.89 173.44,17.73 172.69,19.59 L 172.59,20.08 L 0.08,59.78 V 57.52 Z" fill="#98CCE5"/>
<path d="M 9.62,103.11 L 172.21,18.62 L 173.15,19.62 L 172.72,20.01 C 172.44,20.47 171.98,20.79 171.46,20.9 L 9.78,105.65 L 9.62,105.61 C 8.09,105.82 8.09,103.36 9.62,103.11 Z" fill="#98CCE5"/>
<path d="M 19.81,146.42 L 140.06,118.93 L 138.71,121.82 L 20.41,148.43 C 18.91,148.81 18.31,146.88 19.81,146.42 Z" fill="#98CCE5"/>
<path d="M 31.61,190.7 L 129.71,168.6 L 130.29,171.28 L 32.23,192.98 C 30.71,193.35 30.11,191.07 31.61,190.7 Z" fill="#98CCE5"/>
<path d="M 43.72,235.01 L 222.88,193.73 C 224.38,193.36 225.14,195.71 223.62,196.24 L 44.16,237.41 C 42.64,237.78 42.21,235.38 43.72,235.01 Z" fill="#98CCE5"/>
<path d="M 209.96,148.41 L 196.18,151.9 L 195.42,154.12 L 210.66,151.06 C 212.17,150.69 211.48,148.04 209.96,148.41 Z" fill="#98CCE5"/>
<path d="M 61.94,182.79 L 78.92,178.78 L 77.79,181.41 L 63.71,185.11 L 61.94,182.79 Z" fill="#98CCE5"/>
<path d="M 0.08,128.11 L 30.91,256 H 33.86 L 0.08,130.71 V 128.11 Z" fill="#98CCE5"/>
<path d="M 179.95,28.19 C 184.29,21.11 190.46,17.66 198.66,17.74 C 209.49,17.86 221.71,23.51 233.06,31.46 C 243.86,39.03 247.86,48.67 243.71,60.11 C 241.12,67.23 237.38,72.61 235.42,75.99 L 173.86,46.11 L 179.95,28.19 Z" fill="#F49881" stroke="#B35441" stroke-width="2.5" stroke-miterlimit="10"/>
<path d="M 184.22,31.12 C 187.96,24.68 192.31,21.11 198.99,21.43 C 204.76,21.71 204.28,27.79 198.99,28.27 C 193.71,28.75 191.75,31.86 189.07,31.86 C 186.39,31.86 183.86,32.34 184.22,31.12 Z" fill="#FFC5B3"/>
<path d="M 209.41,33.41 C 219.09,38.55 224.86,43.45 227.42,44.91 C 231.23,47.07 236.75,43.13 236.75,47.71 C 236.75,51.72 233.46,56.15 229.45,54.71 C 225.45,53.26 216.99,47.03 211.06,43.29 C 205.12,39.54 204.12,30.56 209.41,33.41 Z" fill="#F7A595"/>
<path d="M 127.22,143.18 L 166.71,60.81 L 227.11,88.41 L 188.04,172.12 C 186.71,175.19 185.15,177.15 182.65,178.83 C 172.91,185.11 155.03,194.85 155.03,194.85 L 127.78,160.4 C 126.1,154.71 124.86,149.15 127.22,143.18 Z" fill="#FFD55F" stroke="#BA7D36" stroke-width="3" stroke-miterlimit="10" stroke-linecap="round" stroke-linejoin="round"/>
<path d="M 131.84,142.3 L 160.91,147.51 L 188.04,70.19 L 176.51,64.62 L 167.11,61.82 L 129.11,142.1 C 129.41,141.92 130.47,142.06 131.84,142.3 Z" fill="url(#paint0_linear_1247_23280)"/>
<path d="M 171.11,165.52 L 210.66,79.81 L 226.11,89.17 L 186.15,174.08 L 171.11,165.52 Z" fill="url(#paint1_linear_1247_23280)"/>
<path d="M 126.74,148.08 C 127.46,143.26 139.15,139.96 145.12,153.96 L 145.68,155.64 C 154.51,149.15 165.19,155.64 167.15,166.32 C 175.99,160.36 185.71,164.72 186.19,173.08 L 185.23,177.11 L 154.99,194.81 L 130.39,183.81 L 126.74,154.24 V 148.08 Z" fill="#FDD4B0" stroke="#BA7D36" stroke-width="3" stroke-miterlimit="10" stroke-linecap="round" stroke-linejoin="round"/>
<path d="M 131.52,148.08 L 137.04,150.12 L 136.28,176.03 L 133.71,177.11 L 128.18,148.51 L 131.52,148.08 Z" fill="url(#paint2_linear_1247_23280)"/>
<path d="M 131.01,183.29 C 140.71,182.33 152.18,188.3 154.71,194.81 L 145.88,200.33 C 139.39,204.69 133.43,201.25 132.47,195.73 L 130.51,184.25 L 131.01,183.29 Z" fill="#69B7AE" stroke="#378181" stroke-width="3" stroke-miterlimit="10" stroke-linecap="round" stroke-linejoin="round"/>
<path d="M 136.01,187.06 C 138.23,186.16 141.63,187.54 140.23,189.29 C 138.83,191.05 137.91,192.71 138.87,195.21 C 139.31,196.38 136.92,197.26 135.96,195.29 C 135.04,193.29 134.03,188.06 136.01,187.06 Z" fill="url(#paint3_linear_1247_23280)"/>
<path d="M 166.71,47.07 C 169.43,43.09 172.11,42.61 177.27,42.61 C 193.51,42.61 217.71,54.09 231.71,68.11 C 237.19,73.6 239.23,77.04 237.19,82.52 C 234.82,89.13 231.27,93.33 227.11,91.73 C 223.94,90.53 219.94,78.41 196.06,68.91 C 184.18,64.18 174.18,62.3 168.23,62.3 C 162.27,62.3 161.79,56.33 166.71,47.07 Z" fill="#B8D6EA" stroke="#4C86A0" stroke-width="3" stroke-miterlimit="10" stroke-linecap="round" stroke-linejoin="round"/>
<path d="M 176.51,46.11 C 182.73,45.03 196.18,47.71 209.62,55.61 C 221.51,62.86 228.51,68.63 230.91,72.07 C 232.63,74.76 227.11,79.33 225.14,77.37 C 219.78,72.07 208.22,63.74 193.23,58.73 C 183.94,55.49 177.83,55.01 176.03,53.78 C 173.31,52.06 173.15,46.71 176.51,46.11 Z" fill="url(#paint4_linear_1247_23280)"/>
<path d="M 154.91,98.29 C 153.49,100.81 155.63,103.21 159.35,104.49 C 163.28,105.82 165.91,104.61 166.27,102.77 C 166.79,100.21 164.63,98.53 161.75,97.73 C 159.11,96.89 156.11,96.33 154.91,98.29 Z" fill="#F49881"/>
<path d="M 194.63,116.91 C 193.21,114.39 195.34,111.98 199.06,112.62 C 202.98,113.38 204.98,116.23 205.34,118.07 C 205.86,120.63 202.94,122.08 199.58,120.63 C 197.06,119.63 195.62,118.63 194.63,116.91 Z" fill="#F49881"/>
<path d="M 169.63,91.01 C 166.11,90.73 164.67,94.41 165.67,96.65 C 166.83,99.41 170.11,99.73 171.91,98.21 C 174.31,96.13 173.95,91.29 169.63,91.01 Z" fill="#522B15"/>
<path d="M 198.3,104.17 C 194.78,103.89 193.71,107.81 194.71,109.69 C 196.14,112.5 199.06,112.5 200.86,110.98 C 203.74,108.61 202.62,104.45 198.3,104.17 Z" fill="#522B15"/>
<path d="M 177.91,103.21 C 179.03,107.01 184.11,108.61 187.11,106.61" stroke="#522B15" stroke-width="3.5" stroke-miterlimit="10" stroke-linecap="round"/>
<path d="M 96.99,210.63 C 103.47,203.66 113.19,199.78 122.43,201.26 C 127.22,202.02 131.11,204.18 136.92,202.1" stroke="#69E0A1" stroke-width="5" stroke-miterlimit="10" stroke-linecap="round"/>
<path d="M 46.88,182.79 C 50.72,178.82 55.72,179.62 59.16,181.82 L 72.61,191.52 C 73.93,192.52 74.21,191.64 74.85,190.36 L 96.43,147.92 C 98.87,143.42 102.03,141.38 107.07,142.34 C 113.55,143.62 115.43,151.52 113.51,156.52 L 86.64,207.98 C 82.92,214.95 74.97,214.47 70.57,211.15 L 47.64,196.17 C 42.72,192.73 42.68,187.26 46.88,182.79 Z" fill="#84EDB3" stroke="#3DB07F" stroke-width="3.5" stroke-miterlimit="10" stroke-linecap="round" stroke-linejoin="round"/>
<path d="M 47.12,187.98 C 49.08,184.34 53.44,183.09 57.28,185.13 L 70.25,193.61 C 72.93,195.41 75.13,194.77 76.29,192.33 L 98.83,149.44 C 101.31,144.68 107.27,143.38 110.71,146.84 C 112.67,148.92 112.67,151.04 110.23,155.4 L 85.12,203.74 C 81.76,208.94 76.73,208.94 72.33,206.42 L 48.44,191.93 C 46.52,190.69 46.12,189.61 47.12,187.98 Z" fill="url(#paint5_linear_1247_23280)"/>
<defs>
<linearGradient id="paint0_linear_1247_23280" x1="148.827" y1="71.0467" x2="158.267" y2="114.05" gradientUnits="userSpaceOnUse">
<stop stop-color="#FDF3A2"/>
<stop offset="1" stop-color="#FDF3A2" stop-opacity="0.25"/>
</linearGradient>
<linearGradient id="paint1_linear_1247_23280" x1="198.636" y1="85.7417" x2="188.916" y2="128.745" gradientUnits="userSpaceOnUse">
<stop stop-color="#F9B032"/>
<stop offset="1" stop-color="#F9B032" stop-opacity="0.25"/>
</linearGradient>
<linearGradient id="paint2_linear_1247_23280" x1="133.84" y1="152.25" x2="137.52" y2="168.13" gradientUnits="userSpaceOnUse">
<stop stop-color="#FCEBD6"/>
<stop offset="1" stop-color="#FCEBD6" stop-opacity="0.25"/>
</linearGradient>
<linearGradient id="paint3_linear_1247_23280" x1="137.92" y1="187.57" x2="139.88" y2="196.61" gradientUnits="userSpaceOnUse">
<stop stop-color="#98D9C8"/>
<stop offset="1" stop-color="#98D9C8" stop-opacity="0.25"/>
</linearGradient>
<linearGradient id="paint4_linear_1247_23280" x1="179.431" y1="47.07" x2="224.621" y2="79.8098" gradientUnits="userSpaceOnUse">
<stop stop-color="#D1E6F2"/>
<stop offset="1" stop-color="#D1E6F2" stop-opacity="0.25"/>
</linearGradient>
<linearGradient id="paint5_linear_1247_23280" x1="79.0302" y1="145.001" x2="79.0302" y2="207.976" gradientUnits="userSpaceOnUse">
<stop stop-color="#9FF4B6"/>
<stop offset="1" stop-color="#9FF4B6" stop-opacity="0.25"/>
</linearGradient>
</defs>
</svg>