<svg xmlns="http://www.w3.org/2000/svg" width="256" height="256" viewBox="0 0 256 256" fill="none">
<path d="M 220.78,8.11 L 111.19,17.47 C 95.62,18.69 88.78,37.96 98.72,50.42 L 118.08,70.16 L 52.06,136.78 C 42.51,146.43 42.96,162.22 53.39,171.66 L 84.71,202.61 C 94.81,212.57 108.41,211.17 118.13,201.18 L 184.92,137.58 L 202.72,155.74 C 214.49,167.73 234.91,161.31 237.14,144.51 L 244.38,32.15 C 246.03,18.11 234.93,6.89 220.78,8.11 Z" fill="url(#paint0_linear_140_2451)"/>
<path d="M 221.15,8.02 L 111.22,17.4 C 96.28,18.68 89.14,36.66 98.01,49.62 L 117.71,70.06 L 51.69,136.68 C 42.25,146.28 42.65,161.76 52.78,171.61 L 84.51,202.82 C 94.81,213.04 108.31,211.22 117.78,200.9 L 184.89,135.52 L 203.25,154.88 C 214.66,166.91 234.37,160.91 236.81,144.31 L 244.31,31.81 C 245.81,17.97 234.99,6.79 221.15,8.02 Z M 229.84,149.63 C 223.96,159.11 213.49,158.63 206.16,151.12 L 185.18,132.69 L 116.19,200.07 C 107.72,208.71 95.61,207.27 87.93,199.41 L 55.11,168.1 C 46.83,160.42 47.38,148.21 55.61,139.82 L 121.04,71.74 L 102.23,51.01 C 93.21,41.85 97.12,23.61 111.61,21.73 L 221.2,12.35 C 232.19,11.27 241.11,19.81 240.41,30.9 L 229.84,149.63 Z" fill="url(#paint1_linear_140_2451)"/>
<path d="M 196.31,19.74 L 146.72,25.05 C 143.15,25.45 141.09,28.13 142.48,30.9 C 143.49,33.06 146.47,33.36 149.24,32.96 L 197.11,27.65 C 200.38,27.25 201.08,25.81 200.68,22.93 C 200.38,20.47 198.77,19.48 196.31,19.74 Z" fill="url(#paint2_linear_140_2451)"/>
<path d="M 129.76,27.72 L 125.01,28.12 C 122.03,28.37 120.58,30.01 120.68,32.68 C 120.78,35.21 122.74,35.95 125.21,35.7 L 129.86,35.16 C 132.43,34.86 133.63,33.22 133.48,30.85 C 133.33,28.92 132.12,27.58 129.76,27.72 Z" fill="url(#paint3_linear_140_2451)"/>
<path d="M 21.44,116.91 C 21.09,116.16 21.54,115.32 22.33,115.08 C 48.88,106.78 69.96,90.27 84.71,68.78 C 86.32,66.27 90.28,67.36 90.48,70.59 C 90.63,72.18 89.88,73.42 88.88,74.81 C 73.98,95.9 50.79,109.95 23.15,117.9 C 22.5,118.15 21.74,117.71 21.44,116.91 Z" fill="url(#paint4_linear_140_2451)"/>
<path d="M 36.98,82.43 C 36.63,81.44 37.33,80.89 38.28,80.74 C 48.41,78.32 57.85,72.81 63.53,64.42 C 65.79,61.29 70.59,63.87 68.68,68.11 C 60.95,77.37 51.91,82.03 38.63,83.52 C 37.83,83.62 37.23,83.18 36.98,82.43 Z" fill="url(#paint5_linear_140_2451)"/>
<path d="M 12.01,247.14 C 11.31,246.29 11.66,245.45 12.21,244.8 L 52.79,200.72 C 56.31,197.44 61.16,201.62 58.14,205.6 L 13.97,247.59 C 13.42,248.18 12.52,247.88 12.01,247.14 Z" fill="url(#paint6_linear_140_2451)"/>
<path d="M 57.42,247.73 C 56.61,247.43 56.71,246.14 56.82,245.05 C 58.12,234.98 62.92,226.74 70.05,218.75 C 73.42,215.62 77.29,218.95 75.03,222.62 C 66.19,229.67 61.19,237.81 59.38,247.24 C 59.18,247.93 58.22,248.13 57.42,247.73 Z" fill="url(#paint7_linear_140_2451)"/>
<path d="M 135.39,235.27 C 134.64,234.92 134.74,233.83 135.04,232.68 C 143.12,206.24 157.11,183.81 180.61,166.81 C 185.01,164.04 187.78,169.79 185.21,171.81 C 162.72,187.92 147.12,208.11 137.73,234.38 C 137.38,235.42 136.38,235.72 135.39,235.27 Z" fill="url(#paint8_linear_140_2451)"/>
<path d="M 169.93,219.1 C 169.23,218.7 169.18,217.71 169.28,216.61 C 170.38,206.19 176.02,195.82 184.45,187.98 C 187.67,185.35 191.19,189.73 188.27,192.5 C 178.98,200.29 173.83,208.92 171.57,218.06 C 171.37,219.01 170.62,219.45 169.93,219.1 Z" fill="url(#paint9_linear_140_2451)"/>
<defs>
<linearGradient id="paint0_linear_140_2451" x1="218.36" y1="16.4137" x2="104.711" y2="198.27" gradientUnits="userSpaceOnUse">
<stop stop-color="#99D899"/>
<stop offset="0.494792" stop-color="#71C271"/>
<stop offset="1" stop-color="#61AF6B"/>
</linearGradient>
<linearGradient id="paint1_linear_140_2451" x1="147.736" y1="7.86914" x2="147.736" y2="209.882" gradientUnits="userSpaceOnUse">
<stop stop-color="#94CC94"/>
<stop offset="1" stop-color="#3E8952"/>
</linearGradient>
<linearGradient id="paint2_linear_140_2451" x1="171.482" y1="19.668" x2="172.426" y2="33.3161" gradientUnits="userSpaceOnUse">
<stop stop-color="#C2E9C2"/>
<stop offset="1" stop-color="#C2E9C2" stop-opacity="0.25"/>
</linearGradient>
<linearGradient id="paint3_linear_140_2451" x1="127.076" y1="27.688" x2="127.726" y2="35.7761" gradientUnits="userSpaceOnUse">
<stop stop-color="#C2E9C2"/>
<stop offset="1" stop-color="#C2E9C2" stop-opacity="0.53"/>
</linearGradient>
<linearGradient id="paint4_linear_140_2451" x1="55.9686" y1="67.0273" x2="55.9686" y2="118.001" gradientUnits="userSpaceOnUse">
<stop stop-color="#63A66F"/>
<stop offset="1" stop-color="#579E6E"/>
</linearGradient>
<linearGradient id="paint5_linear_140_2451" x1="52.9581" y1="62.9297" x2="52.9581" y2="83.6171" gradientUnits="userSpaceOnUse">
<stop stop-color="#63A66F"/>
<stop offset="1" stop-color="#579E6E"/>
</linearGradient>
<linearGradient id="paint6_linear_140_2451" x1="34.869" y1="199.328" x2="34.869" y2="248.031" gradientUnits="userSpaceOnUse">
<stop stop-color="#63A66F"/>
<stop offset="1" stop-color="#579E6E"/>
</linearGradient>
<linearGradient id="paint7_linear_140_2451" x1="66.0912" y1="217.266" x2="66.0912" y2="247.93" gradientUnits="userSpaceOnUse">
<stop stop-color="#63A66F"/>
<stop offset="1" stop-color="#579E6E"/>
</linearGradient>
<linearGradient id="paint8_linear_140_2451" x1="160.326" y1="165.977" x2="160.326" y2="235.621" gradientUnits="userSpaceOnUse">
<stop stop-color="#63A66F"/>
<stop offset="1" stop-color="#579E6E"/>
</linearGradient>
<linearGradient id="paint9_linear_140_2451" x1="178.872" y1="186.891" x2="178.872" y2="219.301" gradientUnits="userSpaceOnUse">
<stop stop-color="#63A66F"/>
<stop offset="1" stop-color="#579E6E"/>
</linearGradient>
</defs>
</svg>