<svg xmlns="http://www.w3.org/2000/svg" width="250" height="250" viewBox="0 0 250 250" fill="none">
<path opacity="0.2" d="M 204.78,24.3 L 134.46,132.62 L 153.98,167.75 L 232.15,219.22 L 249.22,108.1 L 204.78,24.3 Z" fill="url(#paint0_linear_202_1116)"/>
<path d="M 136.03,49.78 C 133.73,37.71 126.98,29.06 113.67,28.8 C 102.47,28.56 87.73,30.86 77.93,33.61 C 66.26,37.09 58.71,44.11 58.91,56.91 L 59.25,65.71 L 72.76,64.14 L 72.84,57.08 C 72.81,52.12 76.89,48.88 81.22,47.88 C 91.06,45.49 101.19,43.82 111.28,43.77 C 118.49,43.73 120.98,46.99 121.87,52.73 L 122.48,56.18 L 136.18,54.72 L 136.03,49.78 Z" fill="url(#paint1_linear_202_1116)" stroke="#5275B8" stroke-width="1.5" stroke-miterlimit="10"/>
<path opacity="0.2" d="M 62.91,63.41 L 62.47,56.83 C 62.09,50.18 64.63,43.27 73.91,39.67 C 82.72,36.26 98.03,33.71 107.83,33.06 C 117.22,32.43 126.09,33.78 129.71,45.04 L 131.45,50.91" stroke="#FEFFFE" stroke-width="4" stroke-miterlimit="10" stroke-linecap="round"/>
<path d="M 56.19,69.48 L 56.26,66.31 C 56.33,63.66 58.39,61.28 60.98,60.86 L 74.71,58.86 C 78.31,58.34 80.91,60.49 80.81,64.19 V 66.07 L 56.19,69.48 Z" fill="url(#paint2_linear_202_1116)" stroke="#C98624" stroke-width="1.5" stroke-miterlimit="10"/>
<path d="M 118.41,59.16 L 118.48,55.99 C 118.55,53.34 120.61,50.96 123.2,50.54 L 134.92,49.12 C 139.32,48.59 141.21,51.25 141.11,55.12 V 56.31 L 118.41,59.16 Z" fill="url(#paint3_linear_202_1116)" stroke="#C98624" stroke-width="1.5" stroke-miterlimit="10"/>
<path d="M 211.04,164.46 C 212.61,176.96 210.18,184.41 198.13,191.32 C 184.91,199.18 112.08,216.06 70.06,218.79 C 45.31,220.37 30.32,219.11 23.36,209.08 C 15.09,197.13 9.01,144.23 8.01,126.02 C 7.01,107.81 5.45,94.49 12.32,85.77 C 16.95,79.99 21.25,79.18 32.32,76.81 C 57.26,71.36 109.17,61.79 169.11,52.27 C 183.93,50.66 189.98,55.11 194.28,64.19 C 198.81,73.78 208.99,148.47 211.04,164.46 Z" fill="url(#paint4_linear_202_1116)" stroke="#5275B8" stroke-width="1.5" stroke-miterlimit="10"/>
<path opacity="0.1" d="M 20.92,82.81 C 30.09,81.17 37.26,85.28 40.81,96.22 C 43.21,103.71 44.27,112.25 46.31,119.71 C 49.71,132.62 58.45,138.92 70.11,138.34 L 146.79,130.78 L 183.88,55.09 C 188.62,56.86 191.72,60.85 194.28,67.07 C 197.41,75.01 200.81,97.08 202.91,112.19 L 208.88,159.72 C 210.92,171.01 208.12,181.66 197.53,189.15 L 189.11,194.63 L 146.03,176.06 L 138.12,137.92 L 66.08,146.02 C 53.38,145.94 45.81,137.48 42.01,124.72 L 35.11,95.19 L 10.44,97.1 C 9.29,90.77 13.09,84.62 20.92,82.81 Z" fill="url(#paint5_linear_202_1116)"/>
<path opacity="0.2" d="M 46.06,78.71 L 148.46,61.91 C 150.91,61.49 151.66,62.73 151.61,64.55 C 151.56,66.17 150.11,67.51 148.06,67.83 L 49.11,85.19 C 46.41,85.67 44.21,83.76 44.21,81.67 C 44.21,80.27 44.51,79.11 46.06,78.71 Z" fill="#FEFFFE"/>
<path opacity="0.5" d="M 159.12,60.52 L 164.11,60.02 C 166.41,59.77 167.06,61.31 167.01,63.13 C 166.96,64.95 165.71,66.51 163.61,66.81 L 159.12,67.31 C 156.97,67.61 155.62,66.07 155.62,64.39 C 155.57,62.57 156.82,60.75 159.12,60.52 Z" fill="#FEFFFE"/>
<path opacity="0.2" d="M 65.11,190.44 C 67.91,198.91 72.71,202.29 83.31,203.19 C 86.71,203.51 86.41,207.66 83.61,207.91 C 72.41,208.21 64.91,203.71 60.71,192.01 C 59.41,188.06 63.91,187.11 65.11,190.44 Z" fill="#FEFFFE"/>
<path opacity="0.2" d="M 19.75,99.11 C 19.25,116.09 33.01,184.16 37.41,207.11 C 38.21,211.21 39.41,214.51 42.21,216.11" stroke="#5275B8" stroke-width="2" stroke-miterlimit="10" stroke-linecap="round"/>
<path d="M 11.01,96.41 C 11.91,89.71 16.11,86.11 22.01,86.11 C 28.81,86.11 33.11,88.91 35.01,94.61 C 31.91,97.11 24.41,98.71 20.21,98.71 C 16.91,98.71 13.21,98.31 11.01,96.41 Z" fill="#416BAE"/>
<path opacity="0.1" d="M 139.11,128.09 C 131.61,124.04 120.41,127.09 117.31,138.47 C 114.91,147.19 117.91,154.12 123.71,158.17 L 122.91,173.11 C 122.61,177.41 125.11,179.61 129.01,178.91 L 145.81,175.71 C 149.71,174.91 151.91,172.11 150.71,167.41 L 146.71,153.71 C 149.91,151.91 152.51,148.81 153.91,145.01 L 159.11,117.71 C 159.91,114.51 162.11,113.71 165.31,113.71 L 174.91,113.31 C 178.91,113.11 182.11,115.71 183.71,119.31 L 185.71,135.71 C 186.51,141.31 184.11,143.71 179.31,144.51 L 174.51,144.91 C 170.11,145.31 166.91,142.91 165.71,137.71" fill="url(#paint6_linear_202_1116)"/>
<path d="M 132.91,126.71 C 124.61,125.91 118.11,133.91 117.71,142.71 C 117.31,149.51 120.11,154.21 125.11,157.41 L 124.31,172.31 C 124.01,176.61 126.51,177.81 130.01,177.01 L 146.01,174.21 C 149.91,173.41 151.31,171.01 150.11,167.01 L 146.11,152.11 C 150.91,149.71 155.31,143.71 155.71,136.51 C 156.11,129.31 148.91,126.11 144.11,126.51 L 132.91,126.71 Z" fill="url(#paint7_linear_202_1116)" stroke="#C98624" stroke-width="1.5" stroke-miterlimit="10"/>
<path d="M 134.01,132.81 L 180.91,116.01 C 178.91,102.01 189.71,84.01 208.91,83.61 C 226.51,83.21 239.71,96.81 239.71,113.61 C 239.71,129.61 227.31,143.21 210.11,143.21 C 198.91,143.21 190.51,137.21 186.51,130.81 L 163.31,140.41 L 165.31,146.41 C 166.51,150.01 163.71,153.21 160.11,152.81 C 157.71,152.51 156.11,150.81 155.31,148.01 L 154.11,144.41 L 149.71,145.61 L 151.71,152.81 C 152.91,157.21 149.71,161.21 144.91,159.61 C 142.91,158.91 141.71,157.21 140.91,154.41 L 138.91,149.21 C 133.31,151.21 128.11,147.61 127.71,142.41 C 127.61,138.01 129.61,134.41 134.01,132.81 Z M 209.71,130.81 C 219.31,130.81 226.51,121.61 226.51,112.81 C 226.51,103.21 218.91,96.41 210.11,96.81 C 200.11,97.21 192.91,105.61 192.91,114.81 C 192.91,123.61 200.11,130.81 209.71,130.81 Z" fill="url(#paint8_linear_202_1116)" stroke="#C98624" stroke-width="1.5" stroke-miterlimit="10"/>
<path opacity="0.3" d="M 137.21,135.71 L 171.71,122.11" stroke="#FEFFFE" stroke-width="3" stroke-miterlimit="10" stroke-linecap="round"/>
<path opacity="0.3" d="M 187.31,105.61 C 189.71,97.21 196.51,91.61 200.91,90.01" stroke="#FEFFFE" stroke-width="4" stroke-miterlimit="10" stroke-linecap="round"/>
<path opacity="0.3" d="M 204.51,89.21 H 204.91" stroke="#FEFFFE" stroke-width="4" stroke-miterlimit="10" stroke-linecap="round"/>
<path d="M 206.71,103.31 L 203.91,110.11 L 199.11,112.51 C 197.91,113.31 198.31,115.31 199.91,116.11 L 204.31,118.51 L 205.11,123.31 C 205.51,125.31 207.11,125.71 208.71,124.51 L 213.11,121.71 L 217.91,122.11 C 219.51,122.11 220.31,120.51 219.51,118.91 L 217.51,114.51 L 220.31,108.51 C 221.11,106.91 220.31,105.71 218.31,106.11 L 212.71,106.91 L 209.51,102.51 C 208.71,101.31 207.11,101.71 206.71,103.31 Z" fill="url(#paint9_linear_202_1116)" stroke="#C98624" stroke-width="1.5" stroke-miterlimit="10"/>
<path opacity="0.3" d="M 131.61,134.01 C 126.41,135.21 124.41,139.61 124.81,144.01 C 125.21,147.61 127.21,150.01 129.61,151.21 L 128.01,170.01 C 127.61,173.21 129.21,174.01 132.01,173.21 L 144.81,170.41 C 146.41,170.01 146.81,168.41 146.01,166.41 L 140.41,150.01 C 135.61,151.61 131.21,149.21 130.01,145.21 C 128.81,141.21 130.01,137.21 134.41,135.21" fill="url(#paint10_linear_202_1116)"/>
<path opacity="0.2" d="M 42.61,130.41 C 46.21,142.01 54.61,148.41 66.21,148.01 L 100.61,143.61" stroke="#5275B8" stroke-width="2" stroke-miterlimit="10" stroke-linecap="round"/>
<path opacity="0.1" d="M 76.91,140.41 L 77.31,155.21 C 77.71,161.61 81.71,165.21 87.31,164.01 L 94.11,162.41 C 98.91,161.21 102.11,157.21 100.91,150.41 L 98.91,136.01" fill="url(#paint11_linear_202_1116)"/>
<path d="M 82.51,129.61 L 90.11,128.41 C 95.31,127.61 98.11,130.81 98.91,136.41 L 100.51,150.81 C 101.31,156.01 98.91,158.41 95.31,158.81 L 88.51,160.01 C 84.51,160.81 82.11,158.01 81.31,152.81 L 78.51,135.61 C 78.11,132.41 79.31,130.41 82.51,129.61 Z" fill="url(#paint12_linear_202_1116)" stroke="#9E652E" stroke-width="1.5" stroke-miterlimit="10"/>
<path opacity="0.3" d="M 85.31,132.81 L 89.31,132.01 C 92.11,131.61 94.51,133.21 95.31,137.61 L 97.71,151.61 C 98.51,155.61 96.11,157.21 93.71,157.21 L 89.71,157.61 C 87.31,158.01 85.71,155.61 85.31,152.41 L 83.31,137.21 C 82.91,134.41 83.71,133.21 85.31,132.81 Z" fill="#FEFFFE"/>
<path d="M 50.11,215.71 C 55.31,211.71 55.71,205.71 54.11,196.51 C 50.91,176.11 46.91,151.71 43.31,132.11" stroke="#5275B8" stroke-width="1.5" stroke-miterlimit="10" stroke-linecap="round"/>
<path d="M 179.96,159.08 L 182.29,163.91 L 187.12,166.24 L 182.29,168.57 L 179.96,174.57 L 177.62,169.11 L 172.79,166.78 L 177.62,164.44 L 179.96,159.08 Z" fill="#FEFFFE"/>
<path d="M 227.81,154.21 L 230.14,159.61 L 234.97,161.41 L 230.14,163.74 L 228.38,168.58 L 226.04,163.14 L 221.21,161.34 L 226.04,158.41 L 227.81,154.21 Z" fill="#F9D66E"/>
<path d="M 211.76,55.01 L 214.66,62.01 L 221.16,64.91 L 214.66,68.01 L 211.76,74.51 L 208.66,67.51 L 202.66,64.61 L 208.66,61.51 L 211.76,55.01 Z" fill="#F9D66E"/>
<path d="M 176.81,80.01 L 178.61,83.81 L 182.41,85.01 L 178.61,87.41 L 177.41,91.21 L 175.61,86.81 L 172.41,85.01 L 175.61,83.21 L 176.81,80.01 Z" fill="#FEFFFE"/>
<path d="M 193.61,175.21 L 195.41,178.71 L 198.31,180.21 L 194.81,181.71 L 193.61,185.01 L 191.51,181.11 L 189.41,179.91 L 192.41,178.41 L 193.61,175.21 Z" fill="#FEFFFE"/>
<path d="M 233.01,69.41 L 234.21,73.01 L 237.41,74.61 L 233.61,76.41 L 232.41,79.61 L 230.61,75.21 L 227.41,73.41 L 231.21,72.21 L 233.01,69.41 Z" fill="#F9D66E"/>
<path opacity="0.3" d="M 154.91,177.61 L 156.11,179.41 L 157.91,179.91 L 156.11,180.61 L 155.11,182.41 L 153.91,180.11 L 152.11,179.31 L 153.91,178.61 L 154.91,177.61 Z" fill="#F9D66E"/>
<path opacity="0.3" d="M 156.71,183.61 L 157.61,185.01 L 156.71,186.81 L 155.31,186.41 L 154.41,184.61 L 155.31,183.61 H 156.71 Z" fill="#F9D66E"/>
<path opacity="0.3" d="M 166.11,164.61 L 167.01,165.51 L 165.61,166.41 L 164.71,165.51 L 165.61,164.11 L 166.11,164.61 Z" fill="#FEFFFE"/>
<path opacity="0.3" d="M 193.61,152.81 L 194.51,153.71 L 193.61,155.51 L 192.21,155.11 L 191.31,153.31 L 192.21,152.31 L 193.61,152.81 Z" fill="#FEFFFE"/>
<path opacity="0.3" d="M 168.61,100.61 L 169.51,101.51 L 168.61,103.31 L 167.21,102.91 L 166.31,101.11 L 167.21,100.11 L 168.61,100.61 Z" fill="#FEFFFE"/>
<path opacity="0.3" d="M 159.61,112.61 L 160.06,113.41 L 159.11,113.81 L 158.31,113.01 L 158.71,112.21 L 159.61,112.61 Z" fill="#FEFFFE"/>
<path d="M 149.91,97.21 L 154.31,97.01 C 157.91,96.81 159.11,99.01 158.71,101.41 C 158.31,103.81 156.31,105.41 153.91,106.21 L 150.31,107.41 C 146.71,108.61 143.91,105.81 143.91,102.61 C 143.91,99.81 146.71,97.41 149.91,97.21 Z" fill="url(#paint13_linear_202_1116)"/>
<path d="M 100.31,106.01 L 103.91,105.81 C 107.91,105.61 108.71,108.61 108.31,110.21 C 107.51,113.01 104.71,114.61 101.51,115.01 L 100.31,115.21 C 95.91,115.61 93.11,113.21 93.11,110.41 C 93.11,108.01 96.31,106.01 100.31,106.01 Z" fill="url(#paint14_linear_202_1116)"/>
<path d="M 106.71,93.31 C 110.31,93.31 110.71,96.51 110.71,97.71 C 110.71,100.11 109.11,102.51 106.31,102.51 C 102.71,102.51 101.91,99.71 101.91,97.71 C 101.91,95.31 103.51,93.31 106.71,93.31 Z" fill="#30364D"/>
<path d="M 129.91,104.61 C 126.31,107.81 120.31,106.61 118.11,102.61" stroke="#30364D" stroke-width="3" stroke-miterlimit="10" stroke-linecap="round"/>
<path d="M 138.71,93.81 C 139.11,89.41 141.91,88.61 143.91,88.61 C 147.11,88.61 148.31,91.01 148.71,92.61" stroke="#30364D" stroke-width="3" stroke-miterlimit="10" stroke-linecap="round"/>
<defs>
<linearGradient id="paint0_linear_202_1116" x1="180.677" y1="41.6072" x2="241.781" y2="200.991" gradientUnits="userSpaceOnUse">
<stop stop-color="#FEF086"/>
<stop offset="1" stop-color="#FEF086" stop-opacity="0.11"/>
</linearGradient>
<linearGradient id="paint1_linear_202_1116" x1="97.5478" y1="28.7778" x2="97.5478" y2="65.7061" gradientUnits="userSpaceOnUse">
<stop stop-color="#98CDFF"/>
<stop offset="1" stop-color="#86B7F2"/>
</linearGradient>
<linearGradient id="paint2_linear_202_1116" x1="68.5011" y1="58.6816" x2="68.5011" y2="69.4766" gradientUnits="userSpaceOnUse">
<stop stop-color="#FEE989"/>
<stop offset="1" stop-color="#F5B854"/>
</linearGradient>
<linearGradient id="paint3_linear_202_1116" x1="129.765" y1="48.949" x2="129.765" y2="59.1607" gradientUnits="userSpaceOnUse">
<stop stop-color="#FEE989"/>
<stop offset="1" stop-color="#F5B854"/>
</linearGradient>
<linearGradient id="paint4_linear_202_1116" x1="109.383" y1="51.8521" x2="109.383" y2="219.691" gradientUnits="userSpaceOnUse">
<stop stop-color="#98CDFF"/>
<stop offset="1" stop-color="#86B7F2"/>
</linearGradient>
<linearGradient id="paint5_linear_202_1116" x1="109.063" y1="55.0869" x2="109.063" y2="194.63" gradientUnits="userSpaceOnUse">
<stop stop-color="#FEFFFE"/>
<stop offset="1" stop-color="#FEFFFE" stop-opacity="0.11"/>
</linearGradient>
<linearGradient id="paint6_linear_202_1116" x1="151.511" y1="113.289" x2="151.511" y2="145.039" gradientUnits="userSpaceOnUse">
<stop stop-color="#FECD74"/>
<stop offset="1" stop-color="#F9B55B" stop-opacity="0.11"/>
</linearGradient>
<linearGradient id="paint7_linear_202_1116" x1="134.911" y1="126.411" x2="134.911" y2="177.361" gradientUnits="userSpaceOnUse">
<stop stop-color="#FEE989"/>
<stop offset="1" stop-color="#F5B854"/>
</linearGradient>
<linearGradient id="paint8_linear_202_1116" x1="203.711" y1="83.5752" x2="203.711" y2="143.511" gradientUnits="userSpaceOnUse">
<stop stop-color="#FEE989"/>
<stop offset="1" stop-color="#F5B854"/>
</linearGradient>
<linearGradient id="paint9_linear_202_1116" x1="209.411" y1="101.678" x2="209.411" y2="125.361" gradientUnits="userSpaceOnUse">
<stop stop-color="#FEE989"/>
<stop offset="1" stop-color="#F5B854"/>
</linearGradient>
<linearGradient id="paint10_linear_202_1116" x1="136.511" y1="134.011" x2="136.511" y2="173.611" gradientUnits="userSpaceOnUse">
<stop stop-color="#484848"/>
<stop offset="1" stop-color="#484848" stop-opacity="0.61"/>
</linearGradient>
<linearGradient id="paint11_linear_202_1116" x1="89.0112" y1="136.011" x2="89.0112" y2="164.27" gradientUnits="userSpaceOnUse">
<stop stop-color="#FECD74"/>
<stop offset="1" stop-color="#F9B55B" stop-opacity="0.11"/>
</linearGradient>
<linearGradient id="paint12_linear_202_1116" x1="89.7112" y1="128.211" x2="89.7112" y2="160.211" gradientUnits="userSpaceOnUse">
<stop stop-color="#FEE989"/>
<stop offset="1" stop-color="#F5B854"/>
</linearGradient>
<linearGradient id="paint13_linear_202_1116" x1="151.361" y1="96.9854" x2="151.361" y2="107.808" gradientUnits="userSpaceOnUse">
<stop stop-color="#F6A9B7"/>
<stop offset="1" stop-color="#F6A9B7" stop-opacity="0.28"/>
</linearGradient>
<linearGradient id="paint14_linear_202_1116" x1="100.911" y1="105.791" x2="100.911" y2="115.261" gradientUnits="userSpaceOnUse">
<stop stop-color="#F6A9B7"/>
<stop offset="1" stop-color="#F6A9B7" stop-opacity="0.56"/>
</linearGradient>
</defs>
</svg>