<svg xmlns="http://www.w3.org/2000/svg" width="200" height="195" viewBox="0 0 200 195" fill="none">
<path d="M 172.58,83.71 C 177.12,71.48 173.57,52.09 162.86,36.91 L 147.41,22.71 C 141.75,18.52 135.05,16.16 128.13,15.16 C 121.44,14.19 116.93,12.21 111.43,6.81 C 107.24,3.27 103.12,5.85 103.62,11.21 L 104.26,12.69 C 97.03,10.02 91.42,10.59 92.87,16.93 C 86.94,19.28 81.62,22.37 77.09,25.87 C 73.13,23.76 70.02,20.48 66.83,15.01 C 64.29,11.02 59.06,12.99 59.81,19.08 C 59.97,20.88 60.36,22.65 61.19,24.42 C 57.16,22.71 54.81,25.52 56.25,31.26 C 57.52,35.76 60.19,39.23 64.38,41.87 C 56.12,54.78 53.61,73.79 57.08,86.09 L 58.72,89.63 C 43.37,91.7 24.47,100.88 19.43,112.61 C 17.01,118.28 17.51,123.48 21.19,123.91 C 15.39,128.63 13.31,137.16 15.64,145.15 C 13.43,146.11 11.29,148.16 10.91,150.9 C 7.96,152.73 6.63,156.66 7.96,159.72 C 4.94,160.75 5.07,164.15 8.91,168.71 C 15.13,175.69 22.01,179.62 33.41,180.65 L 33.15,185.15 L 31.95,186.04 L 35.72,186.68 L 38.14,189.1 L 39.11,187.06 L 37.22,185.61 L 40.93,185.03 L 39.62,183.94 L 38.27,181.24 C 41.12,181.11 45.02,180.56 47.41,179.92 L 47.16,183.94 L 50.71,184.71 L 52.85,187.25 L 53.81,185.74 L 52.11,183.94 L 54.25,183.75 L 53.62,182.92 L 49.94,182.16 L 49.81,179.31 C 57.17,177.11 64.62,172.71 67.92,163.66 L 70.19,163.72 C 73.52,166.84 79.11,169.96 83.77,171.66 C 80.31,173.11 77.95,177.36 79.15,179.84 C 80.42,182.6 84.32,182.6 85.45,181.51 C 87.25,184.71 91.91,185.35 95.37,182.92 C 98.11,180.94 99.91,179.71 104.95,179.43 C 106.75,179.05 108.19,177.81 108.51,176.72 C 111.24,177.11 116.15,177.36 118.01,177.23 C 115.06,179.71 115.25,186.23 120.91,186.23 C 122.24,186.23 123.31,185.74 123.94,185.22 C 125.32,188.92 130.11,189.04 134.71,185.03 C 137.66,182.41 138.99,181.71 144.03,181.01 C 147.71,180.15 148.91,177.49 147.71,174.61 C 150.06,173.91 153.52,172.61 155.73,171.85 C 159.41,174.79 165.76,174.86 169.16,171.85 C 174.26,174.23 181.62,172.36 182.31,167.16 C 182.81,163.43 179.92,159.11 178.12,156.92 C 184.94,160.94 189.98,157.24 190.48,149.13 C 195.27,147.29 196.11,138.95 193.75,129.11 C 190.42,115.69 183.25,100.32 175.24,90.11 L 172.58,83.71 Z" fill="#B7786E" stroke="#6D3A2C" stroke-width="2" stroke-linecap="round" stroke-linejoin="round"/>
<path d="M 161.63,36.91 C 168.04,45.25 175.05,61.04 172.76,78.74 C 172.44,80.72 171.31,82.63 172.15,84.75 C 173.31,87.81 175.73,89.72 177.81,92.54 C 185.17,101.97 191.64,116.96 193.15,128.26 C 193.94,134.91 193.28,145.86 189.09,147.74 C 188.71,155.73 183.67,158.92 175.79,153.05 C 171.71,161.04 160.06,170.95 147.16,173.7 C 152.04,170.23 154.12,168.84 155.73,165.17 C 150.94,165.66 147.48,167.29 145.12,165.84 L 146.57,104.79 L 139.21,114.63 L 136.05,110.13 L 121.94,106.2 L 100.03,113.18 L 94.44,111.67 L 82.73,105.27 L 72.02,105.85 L 63.21,113.31 L 59.15,117.24 L 57.82,107.4 L 52.23,110.93 L 43.43,115.43 L 36.07,124.1 L 29.19,122.59 L 23.6,123.65 L 18.94,120.11 L 20.61,112.12 C 26.64,100.2 43.18,91.15 58.91,89.63 L 63.44,94.64 C 53.05,83.47 55.65,61.17 64.85,42.72 L 75.43,45.13 L 98.11,59.75 L 101.13,47.9 L 119.46,30.47 L 144.22,23.49 L 147.55,22.71 C 152.91,25.19 157.16,30.93 161.63,36.91 Z" fill="url(#paint0_linear_116_246)" stroke="#895849" stroke-width="2" stroke-linecap="round" stroke-linejoin="round"/>
<path opacity="0.15" d="M 159.34,50.06 C 166.22,60.21 166.03,76.78 159.75,89.63 C 160.95,92.04 165.48,90.14 167.83,89.18 C 172.62,87.73 177.16,91.92 179.08,96.11 C 184.06,105.36 190.48,117.49 191.74,127.33 C 192.25,131.35 190.26,134.76 187.07,133.44 L 183.81,131.09 C 184.31,136.04 184.63,142.19 179.59,142.71 C 174.99,143.23 172.03,138.86 168.42,135.45 C 168.16,140.95 166.15,143.54 162.15,143.1 C 154.92,142.33 148.82,133.25 146.15,124.23 C 146.09,127.83 146.41,132.94 148.89,137.95 C 153.71,145.94 158.75,153.93 166.22,155.02 C 162.38,158.69 156.03,160.21 151.43,160.91 C 150.17,161.16 148.72,161.74 147.65,162.77 L 148.85,151.03 L 147.15,136.41 L 144.19,118.41 L 145.64,111.43 L 146.21,105.03 L 148.13,101.1 L 152.13,94.12 L 158.03,93.1 L 162.22,87.6 L 163.92,74.24 L 161.12,57.67 L 159.34,50.06 Z" fill="#945249"/>
<path d="M 98.74,49.14 C 104.13,39.23 114.65,30.64 125.81,28.73 C 136.27,26.86 147.71,25.09 154.94,18.64 C 157.36,16.6 159.16,13.65 161.08,13.11 C 164.76,12.25 166.46,17.58 164.54,22.59 L 163.16,25.44 C 166.11,23.74 168.84,25.93 167.71,30.43 C 165.51,37.92 155.35,44.9 143.77,46.22 C 130.75,47.81 112.05,45.7 100.03,58.55 L 98.52,60.42 L 97.86,60.23 C 91.45,50.39 84.09,47.44 72.14,45.03 C 63.95,43.26 58.42,37.52 56.75,32.51 C 55.37,27.18 57.23,23.03 62.62,25.44 C 61.04,23.15 60.14,20.86 60.01,18.14 C 59.75,13.21 63.75,11.15 66.04,14.62 C 71.02,22.84 76.25,25.03 83.13,28.54 C 90.95,32.83 96.61,40.32 98.74,49.14 Z" fill="#A1E8CE" stroke="#6D3A2C" stroke-width="2" stroke-linecap="round" stroke-linejoin="round"/>
<path opacity="0.2" d="M 62.11,15.2 C 65.13,21.72 69.13,25.93 76.96,29.41 C 85.15,33.08 90.19,37.04 94.25,43.56 C 88.03,37.61 84.09,36.16 77.15,33.65 C 69.72,30.93 64.26,26.3 61.37,20.16 C 60.01,17.25 60.71,15.07 62.11,15.2 Z" fill="white"/>
<path opacity="0.2" d="M 162.28,15.01 C 163.86,15.59 163.66,19.02 161.74,22.59 C 160.04,25.93 158.4,27.44 158.65,28.54 C 159.28,29.4 161.14,27.56 162.81,26.05 C 164.67,24.4 166.74,25.61 165.61,28.92 C 162.59,36.03 153.91,42.25 143.26,43.64 C 132.23,45.09 123.62,43.45 112.11,48.4 C 106.52,50.94 102.46,53.76 99.06,57.23 C 103.66,47.32 112.92,36.91 127.16,33.9 C 137.74,31.71 148.91,28.73 155.32,23.23 C 158.84,20.04 160.64,14.62 162.28,15.01 Z" fill="white"/>
<path opacity="0.15" d="M 106.14,6.81 C 108.28,6.23 110.14,7.47 113.09,10.52 C 117.15,14.54 122.19,16.06 128.6,17.51 C 133.13,18.54 137.45,19.56 140.91,21.08 L 139.21,22.59 L 126.25,25.03 L 117.44,27.44 L 107.25,34.93 L 100.37,43.64 L 98.93,46.05 L 96.26,39.07 L 88.9,29.71 L 81.01,25.74 L 79.47,25.03 C 84.16,21.72 89.01,19.09 93.99,17.51 L 92.86,15.01 C 92.35,11.95 95.62,10.08 100.15,10.94 L 105.19,12.69 C 103.75,10.46 103.81,7.66 106.14,6.81 Z" fill="#6D3A2C"/>
<path d="M 105.76,6.81 C 108.21,5.59 110.35,7.35 112.96,10.01 C 117.02,13.97 121.11,15.26 128.05,16.65 C 133.34,17.71 137.94,19.02 142.54,21.08" stroke="#6D3A2C" stroke-width="2" stroke-linecap="round" stroke-linejoin="round"/>
<path d="M 106.27,13.72 L 106.71,14.42 C 103.91,12.69 100.16,10.65 96.13,11.02 C 92.04,11.34 90.66,14.75 92.92,17.7 C 94.25,19.51 95.95,20.22 97.74,20.89" stroke="#6D3A2C" stroke-width="2" stroke-linecap="round" stroke-linejoin="round"/>
<path d="M 63.76,27.56 C 61.83,25.52 60.39,23.94 59.69,21.02" stroke="#6D3A2C" stroke-width="2" stroke-linecap="round" stroke-linejoin="round"/>
<path d="M 73.21,43.26 C 63.82,40.24 60.14,34.91 58.21,30.41 C 56.95,27.12 58.74,24.65 60.54,25.15" stroke="#6D3A2C" stroke-width="2" stroke-linecap="round" stroke-linejoin="round"/>
<path d="M 147.03,69.71 C 147.03,87.41 136.63,99.95 105.01,100.44 C 80.12,100.44 62.69,90.6 62.69,69.71 C 62.69,59.81 67.22,51.25 75.41,46.24 C 85.06,47.04 92.48,51.71 97.86,59.94 C 104.74,50.51 114.74,48.07 135.92,47.52 C 142.92,52.02 147.03,60.2 147.03,69.71 Z" fill="#F8E3C2" stroke="#895849" stroke-width="2" stroke-linecap="round" stroke-linejoin="round"/>
<path d="M 73.84,72.12 C 74.74,67.62 78.01,66.85 80.15,67.04 C 83.61,67.36 85.47,69.84 86.04,72.75 C 86.42,74.95 83.93,74.95 83.3,73.43 C 82.23,71.02 80.72,70.25 79.02,70.32 C 77.32,70.44 76.41,71.73 75.72,72.82 C 74.88,74.21 73.34,73.96 73.84,72.12 Z" fill="#51291B" stroke="#51291B" stroke-width="1.5" stroke-linecap="round" stroke-linejoin="round"/>
<path d="M 114.75,73.64 C 115.88,69.14 119.34,67.62 122.13,67.75 C 125.59,67.81 127.82,70.51 128.95,73.23 C 129.65,75.11 127.45,75.49 126.54,73.91 C 125.16,71.64 123.56,70.32 121.01,70.32 C 118.94,70.32 117.24,71.7 116.46,73.49 C 115.68,75.01 114.24,74.95 114.75,73.64 Z" fill="#51291B" stroke="#51291B" stroke-width="1.5" stroke-linecap="round" stroke-linejoin="round"/>
<path d="M 90.13,77.99 C 91.26,73.04 95.45,70.13 98.91,70.64 C 104.44,71.41 106.86,75.66 106.61,78.57 C 106.1,83.59 103.15,89.51 99.15,89.38 C 95.69,89.25 94.49,86.16 93.71,83.4 C 90.76,83.92 89.31,81.45 90.13,77.99 Z" fill="#F6CC46" stroke="#945821" stroke-width="1.5" stroke-linecap="round" stroke-linejoin="round"/>
<path d="M 95.56,83.15 C 96.41,86.16 97.41,87.12 98.86,86.81 C 101.15,86.23 103.44,83.03 104.35,79.3 C 101.55,81.21 99.03,82.44 95.56,83.15 Z" fill="#DD5959" stroke="#945821" stroke-width="1.5" stroke-linecap="round" stroke-linejoin="round"/>
<path d="M 144.83,110.62 C 142.29,122.34 145.02,134.08 148.04,139.03 C 149.65,145.82 148.72,164.98 133.96,175.32 C 113.11,176.84 90.95,175.67 75.43,164.34 C 68.96,159.72 67.45,156.41 67.83,150.2 C 68.08,146.66 70.07,143.75 69.01,139.22 C 68.44,136.75 67.06,135.1 66.61,133.44 C 67.12,126.39 60.24,117.31 54.14,117.95 L 57.09,116.43 C 61.62,108.44 67.22,104.51 74.58,104.7 C 83.38,104.89 88.55,112.88 96.91,113.64 C 103.25,114.22 109.32,106.83 123.46,106.83 C 133.38,106.83 140.26,112.16 144.83,119.14 V 110.62 Z" fill="#A1E8CE" stroke="#6D3A2C" stroke-width="1.5" stroke-linecap="round" stroke-linejoin="round"/>
<path d="M 149.84,137.64 C 155.23,144.62 160.02,153.92 169.81,154.44 C 172.16,154.56 173.96,152.91 175.22,152.05 C 178.68,156.55 181.13,157.57 184.59,156.93 C 188.05,156.17 189.56,152.66 189.31,148.63 C 193.84,147.12 194.41,138.59 193.15,132.13 C 192.15,136.16 189.85,136.62 188.12,135.85 L 184.06,132.06 C 184.31,137.01 183.62,142.62 178.58,142.71 C 173.92,142.77 171.84,138.91 168.32,135.6 C 168.32,140.61 166.24,143.49 162.21,143.36 C 157.11,143.17 153.65,139.76 149.84,137.64 Z" fill="#F6CC46" stroke="#945821" stroke-width="1.5" stroke-linecap="round" stroke-linejoin="round"/>
<path opacity="0.1" d="M 189.03,144.81 L 186.51,143.29 L 184.53,136.31 L 183.62,135.04 L 184.47,136.16 C 186.54,138.46 188.96,137.76 189.81,136.16 L 191.07,134.07 C 191.51,137.76 191.19,142.52 189.03,144.81 Z" fill="#945821"/>
<path opacity="0.1" d="M 173.64,151.41 L 170.24,150.71 L 162.88,148.62 L 156.47,143.1 L 153.01,138.6 L 157.54,141.51 L 162.33,142.71 L 166.86,140.62 L 168.31,137.15 L 172.37,141.12 L 177.41,143.66 L 181.94,142.14 L 183.61,139.16 L 184.52,142.14 L 186.44,148.06 L 186.12,153.55 L 183.16,155.01 L 178.18,154.05 L 173.64,151.41 Z" fill="#945821"/>
<path d="M 84.16,171.41 C 80.42,172.73 78.13,177.1 79.26,179.43 C 80.52,182.19 84.71,182.19 86.15,180.67 C 87.22,183.62 91.28,184.45 95.31,182.12 C 98.39,180.25 98.96,178.99 104.55,178.74 C 106.91,178.36 108.04,177.13 108.29,176.3" stroke="#945821" stroke-width="2" stroke-linecap="round" stroke-linejoin="round"/>
<path d="M 118.61,177.36 C 115.65,178.81 115.15,184.73 119.47,185.76 C 121.76,186.34 123.84,185.25 124.53,183.87 C 125.25,187.77 129.22,188.41 134.61,184.51 C 137.73,182.03 138.42,181.07 143.95,180.11 C 147.63,179.34 148.63,177.15 147.69,174.42" stroke="#945821" stroke-width="2" stroke-linecap="round" stroke-linejoin="round"/>
<path opacity="0.1" d="M 86.93,176.11 L 88.73,175.62 L 87.19,178.61 L 86.93,180.12 L 88.29,181.64 L 91.25,182.13 L 95.28,180.61 L 99.34,177.6 L 96.38,177.05 L 90.79,175.62 L 86.93,176.11 Z" fill="#945821"/>
<path opacity="0.1" d="M 121.56,180.61 L 123.92,180.12 L 126.21,179.63 L 124.83,182.13 L 124.64,184.14 L 126.21,185.61 L 129.67,185.16 L 134.21,182.13 L 137.67,179.63 L 133.13,179.14 L 127.54,178.61 L 123.48,179.14 L 121.56,180.61 Z" fill="#945821"/>
<path opacity="0.1" d="M 68.21,151.09 L 70.13,153.57 L 71.13,157.05 V 160.06 L 69.21,161.58 L 67.7,161.09 V 158.08 L 68.21,151.09 Z" fill="#945821"/>
<path d="M 65.79,147.13 C 70.71,149.79 73.83,156.01 72.45,160.5 C 71.45,163.66 68.25,163.91 67.25,162.74" stroke="#945821" stroke-width="2" stroke-linecap="round" stroke-linejoin="round"/>
<path d="M 10.85,160.18 C 7.39,158.66 8.14,154.64 12.14,152.1 C 12.33,149.44 14.75,147.74 16.45,147.1 C 14.16,138.65 15.61,128.81 22.26,122.9 C 24.71,123.92 27.16,123.67 29.33,121.13 C 30.02,123.61 32.04,125.26 35.06,125.01 C 38.25,124.69 41.31,121.32 43.01,117.84 C 44.21,119.82 46.13,120.85 49.02,120.72 C 55.02,120.33 56.72,112.84 55.94,105.35 C 57.74,108.89 56.67,116.88 51.57,120.35 C 48.31,122.19 45.22,120.61 43.42,118.01 C 41.06,122.03 37.6,125.44 33.86,125.01 C 31.19,124.62 29.61,122.99 29.11,120.45 C 27.12,123.11 23.29,124.69 20.49,122.92 C 17.7,120.94 18.42,114.96 21.68,109.5 C 28.74,98.61 44.16,91.63 58.65,89.66" stroke="#6D3A2C" stroke-width="2" stroke-linecap="round" stroke-linejoin="round"/>
<path d="M 11.1,102.82 C 11.82,98.86 14.49,96.32 17.22,95.62" stroke="#6D3A2C" stroke-width="2" stroke-linecap="round" stroke-linejoin="round"/>
<path d="M 14.62,108.7 C 15.59,103.21 18.85,99.74 22.85,97.9" stroke="#6D3A2C" stroke-width="2" stroke-linecap="round" stroke-linejoin="round"/>
<path d="M 16.26,146.12 L 17.17,145.69" stroke="#945821" stroke-width="2" stroke-linecap="round" stroke-linejoin="round"/>
<path d="M 64.07,132.13 C 63.75,125.15 57.82,117.66 52.91,118.62 C 50.11,120.66 46.14,121.15 43.34,117.62 C 41.83,121.64 37.74,125.08 33.77,124.53 C 30.91,124.04 29.71,122.1 29.21,119.12 C 27.76,122.14 24.3,123.65 21.31,122.14 C 16.72,126.63 14.05,134.88 16.07,144.72 C 14.05,145.48 12.25,147.11 12.12,149.65 C 8.66,151.17 7.06,155.66 8.98,159.14 C 10.24,161.26 12.1,160.68 13.61,159.14 C 12.7,162.15 15.22,165.07 19.75,164.04 C 23.52,163.08 25.75,160.1 26.95,157.63" fill="#FDE482" stroke="#945821" stroke-width="2" stroke-linecap="round" stroke-linejoin="round"/>
<path d="M 64.71,147.61 C 68.9,155.6 67.93,168.96 56.6,175.42 C 48.84,179.92 41.12,179.92 35.4,179.43 C 24.97,178.67 17.73,175.65 10.85,167.66 C 7.24,163.63 6.86,160.62 9.53,159.6" fill="#FDE482"/>
<path opacity="0.1" d="M 63.71,165.11 C 60.44,171.41 54.25,176.17 43.43,177.13 C 34.75,177.96 23.91,176.11 17.23,172.61 L 12.19,168.65 L 10.11,165.63 L 12.63,166.66 L 16.34,168.11 L 21.38,167.15 L 26.91,162.65 L 28.42,158.15 L 27.45,160.62 L 23.92,163.63 L 19.39,164.66 L 16.16,163.14 L 14.71,160.12 L 15.71,157.63 L 12.76,160.12 L 10.24,159.13 L 9.24,156.11 L 10.24,154.06 L 11.24,153.03 L 10.73,155.08 L 12.24,156.6 L 14.76,155.08 L 13.76,157.63 L 12.76,159.6 L 14.27,161.65 L 17.23,162.65 L 21.76,161.65 L 26.29,158.15 L 26.92,157.12 L 25.72,160.12 L 21.76,163.63 L 17.23,164.12 L 14.27,162.65 L 13.21,160.12 L 10.25,160.62 L 8.27,158.61 C 7.76,159.6 7.51,160.62 8.27,162.65 C 10.19,166.67 17.62,173.66 25.44,175.63 C 35.63,178.39 47.11,177.62 53.11,174.61 C 58.83,172.13 62.6,167.63 63.71,165.11 Z" fill="#945821"/>
<path d="M 33.41,180.65 L 33.28,185.02 L 31.83,185.61 L 35.29,186.1 L 38.15,188.07 L 37.64,185.61 L 35.72,184.64 L 39.18,184.07 L 37.26,183.04" stroke="#945821" stroke-width="2" stroke-linecap="round" stroke-linejoin="round"/>
<path d="M 47.91,180.11 L 47.66,183.62 L 50.61,184.11 L 52.84,186.1 L 53.35,184.64 L 51.42,183.12 L 53.84,182.63 L 50.38,181.6" stroke="#945821" stroke-width="2" stroke-linecap="round" stroke-linejoin="round"/>
<path d="M 37.13,138.34 C 39.32,138.34 39.62,137.11 39.56,135.94 C 39.43,134.62 38.65,133.95 37.32,133.95 C 35.94,133.95 35.03,135.04 35.03,136.21 C 35.03,137.5 35.81,138.34 37.13,138.34 Z" fill="#51291B" stroke="#51291B" stroke-width="0.7" stroke-linecap="round" stroke-linejoin="round"/>
<path d="M 56.22,135.42 C 57.92,136.19 58.7,135.16 58.7,133.64 C 58.7,132.32 57.63,131.56 56.57,131.62 C 55.21,131.75 54.52,132.65 54.52,133.71 C 54.52,134.73 55.09,135.23 56.22,135.42 Z" fill="#51291B" stroke="#51291B" stroke-width="0.7" stroke-linecap="round" stroke-linejoin="round"/>
<path d="M 43.89,137.82 C 44.21,135.35 46.01,134.65 48.14,134.65 C 50.81,134.65 52.61,136.04 53.68,137.82 C 54.65,139.41 52.13,141.28 48.61,141.28 C 45.52,141.28 43.63,139.9 43.89,137.82 Z" fill="#D97808" stroke="#945821" stroke-width="1.5" stroke-linecap="round" stroke-linejoin="round"/>
<path opacity="0.3" d="M 34.78,143.36 C 37.73,143.36 38.49,142.27 38.49,141.25 C 38.49,140.01 37.36,139.25 35.22,139.38 C 32.77,139.57 31.07,140.21 30.75,141.44 C 30.43,142.61 31.81,143.36 34.78,143.36 Z" fill="#DD5959"/>
<path opacity="0.3" d="M 59.75,140.14 C 62.11,140.4 63.78,139.44 63.84,138.11 C 63.91,136.82 62.65,136.28 60.66,136.41 C 58.74,136.53 57.36,137.36 57.29,138.59 C 57.23,139.55 58.01,139.99 59.75,140.14 Z" fill="#DD5959"/>
<path d="M 83.26,137.82 C 84.32,141.36 86.46,143.05 88.54,142.86 C 90.61,142.67 91.81,141.65 93.11,139.35" stroke="#945821" stroke-width="2" stroke-linecap="round" stroke-linejoin="round"/>
<path d="M 107.04,140.84 C 108.74,144.11 110.66,145.14 113.18,144.95 C 115.85,144.69 117.36,142.46 118.49,139.48" stroke="#945821" stroke-width="2" stroke-linecap="round" stroke-linejoin="round"/>
<path d="M 96.26,155.02 C 97.86,157.5 99.41,157.96 101.27,157.7 C 103.07,157.38 104.45,156.15 105.71,154.63" stroke="#945821" stroke-width="2" stroke-linecap="round" stroke-linejoin="round"/>
<path d="M 94.44,125.72 C 95.63,129.45 97.77,130.74 100.03,130.49 C 102.63,130.24 104.14,128.4 105.52,125.93" stroke="#945821" stroke-width="2" stroke-linecap="round" stroke-linejoin="round"/>
<path d="M 73.34,120.23 C 73.47,124.26 75.6,126.23 77.89,126.23 C 79.9,126.23 81.26,125.34 83.06,123.64" stroke="#945821" stroke-width="2" stroke-linecap="round" stroke-linejoin="round"/>
<path d="M 118.01,125.21 C 119.21,128.68 121.44,129.64 123.61,129.39 C 126.34,129.01 128.14,126.71 129.04,123.7" stroke="#945821" stroke-width="2" stroke-linecap="round" stroke-linejoin="round"/>
<defs>
<linearGradient id="paint0_linear_116_246" x1="106.683" y1="22.7061" x2="106.683" y2="174.729" gradientUnits="userSpaceOnUse">
<stop stop-color="#B76253"/>
<stop offset="1" stop-color="#B7786E"/>
</linearGradient>
</defs>
</svg>