<svg xmlns="http://www.w3.org/2000/svg" width="250" height="250" viewBox="0 0 250 250" fill="none">
<path d="M 241.19,26.37 C 239.81,25.17 237.42,25.69 235.82,26.36 L 93.95,82.8 C 88.85,84.92 88.21,90.66 9.82,26.36 L 93.95,82.8 C 88.85,84.92 88.21,90.66 93.31,92.78 L 126.29,106.48 L 142.11,150.77 C 143.53,155.03 147.32,154.91 149.91,151.84 L 169.97,130.91 L 196.89,146.85 C 202.3,150.07 206.41,147.48 208.15,141.8 L 242.27,32.22 C 243.18,29.21 242.76,27.71 241.19,26.37 Z" fill="url(#paint0_linear_430_1020)" stroke="#6BA4CC" stroke-width="3" stroke-linecap="round" stroke-linejoin="round"/>
<path d="M 240.49,26.81 L 149.11,116.98 L 145.42,153.26" stroke="#6BA4CC" stroke-width="3" stroke-linecap="round" stroke-linejoin="round"/>
<path d="M 149.88,118.96 L 168.62,130.31 L 147.16,152.78 C 146.09,153.78 145.39,153.22 145.42,152.41 L 149.88,118.96 Z" fill="#F9DD6B" stroke="#6BA4CC" stroke-width="3" stroke-linecap="round" stroke-linejoin="round"/>
<path d="M 126.37,106.62 L 236.77,26.37" stroke="#6BA4CC" stroke-width="3" stroke-linecap="round" stroke-linejoin="round"/>
<path d="M 131.02,115.81 L 229.72,34.77" stroke="#99CCEA" stroke-width="0.7" stroke-linecap="round" stroke-linejoin="round"/>
<path d="M 134.79,128.52 L 234.16,38.74" stroke="#99CCEA" stroke-width="0.7" stroke-linecap="round" stroke-linejoin="round"/>
<path d="M 150.16,93.73 L 156.21,113.9" stroke="#99CCEA" stroke-width="0.7" stroke-linecap="round" stroke-linejoin="round"/>
<path d="M 162.73,83.49 L 174.89,89.21" stroke="#99CCEA" stroke-width="0.7" stroke-linecap="round" stroke-linejoin="round"/>
<path d="M 172.11,75.09 L 177.23,88.71" stroke="#99CCEA" stroke-width="0.7" stroke-linecap="round" stroke-linejoin="round"/>
<path d="M 184.96,66.64 L 188.78,77.81" stroke="#99CCEA" stroke-width="0.7" stroke-linecap="round" stroke-linejoin="round"/>
<path d="M 197.03,60.06 L 198.42,67.2" stroke="#99CCEA" stroke-width="0.7" stroke-linecap="round" stroke-linejoin="round"/>
<path d="M 155.78,116.12 L 170.87,125.72" stroke="#99CCEA" stroke-width="0.7" stroke-linecap="round" stroke-linejoin="round"/>
<path d="M 167.71,105.01 L 199.89,124.99" stroke="#99CCEA" stroke-width="0.7" stroke-linecap="round" stroke-linejoin="round"/>
<path d="M 178.02,95.03 L 211.12,116.22" stroke="#99CCEA" stroke-width="0.7" stroke-linecap="round" stroke-linejoin="round"/>
<path d="M 193.11,85.71 L 217.77,100.92" stroke="#99CCEA" stroke-width="0.7" stroke-linecap="round" stroke-linejoin="round"/>
<path d="M 202.91,75.09 L 223.26,87.71" stroke="#99CCEA" stroke-width="0.7" stroke-linecap="round" stroke-linejoin="round"/>
<path d="M 213.06,65.23 L 229.02,76.12" stroke="#99CCEA" stroke-width="0.7" stroke-linecap="round" stroke-linejoin="round"/>
<path d="M 221.11,54.22 L 232.81,62.8" stroke="#99CCEA" stroke-width="0.7" stroke-linecap="round" stroke-linejoin="round"/>
<path d="M 180.19,123.81 L 204.94,139.71" stroke="#99CCEA" stroke-width="0.7" stroke-linecap="round" stroke-linejoin="round"/>
<path d="M 161.91,55.28 L 177.81,62.24" stroke="#99CCEA" stroke-width="0.7" stroke-linecap="round" stroke-linejoin="round"/>
<path d="M 146.75,62.24 L 168.62,73.41" stroke="#99CCEA" stroke-width="0.7" stroke-linecap="round" stroke-linejoin="round"/>
<path d="M 131.02,69.2 L 149.31,81.66" stroke="#99CCEA" stroke-width="0.7" stroke-linecap="round" stroke-linejoin="round"/>
<path d="M 116.72,75.09 L 127.89,83.49" stroke="#99CCEA" stroke-width="0.7" stroke-linecap="round" stroke-linejoin="round"/>
<path d="M 101.11,81.66 L 116.72,90.77" stroke="#99CCEA" stroke-width="0.7" stroke-linecap="round" stroke-linejoin="round"/>
<path d="M 93.04,87.71 L 118.96,101.2" stroke="#99CCEA" stroke-width="0.7" stroke-linecap="round" stroke-linejoin="round"/>
<path d="M 180.19,49.4 L 194.95,53.22" stroke="#99CCEA" stroke-width="0.7" stroke-linecap="round" stroke-linejoin="round"/>
<path d="M 201.06,42.12 L 206.95,46.31" stroke="#99CCEA" stroke-width="0.7" stroke-linecap="round" stroke-linejoin="round"/>
<path d="M 212.51,37.14 L 216.83,39.61" stroke="#99CCEA" stroke-width="0.7" stroke-linecap="round" stroke-linejoin="round"/>
<path d="M 8.36,223.29 C 16.11,223.29 14.41,222.93 14.41,222.93" stroke="#72A4C7" stroke-width="3.5" stroke-linecap="round" stroke-linejoin="round"/>
<path d="M 25.39,221.44 C 30.05,220.44 31.76,220.16 35.49,218.71" stroke="#72A4C7" stroke-width="3.5" stroke-linecap="round" stroke-linejoin="round"/>
<path d="M 46.11,214.16 C 50.06,212.31 51.43,211.28 54.91,209.03" stroke="#72A4C7" stroke-width="3.5" stroke-linecap="round" stroke-linejoin="round"/>
<path d="M 63.93,202.71 C 67.11,200.32 69.19,198.18 70.52,196.23" stroke="#72A4C7" stroke-width="3.5" stroke-linecap="round" stroke-linejoin="round"/>
<path d="M 71.11,196.23 C 75.81,197.23 77.47,196.81 83.74,196.62" stroke="#72A4C7" stroke-width="3.5" stroke-linecap="round" stroke-linejoin="round"/>
<path d="M 94.48,194.26 C 98.52,192.99 100.71,192.21 104.11,190.4" stroke="#72A4C7" stroke-width="3.5" stroke-linecap="round" stroke-linejoin="round"/>
<path d="M 113.61,184.62 C 117.62,181.91 119.08,180.46 121.46,178.32" stroke="#72A4C7" stroke-width="3.5" stroke-linecap="round" stroke-linejoin="round"/>
<path d="M 129.12,170.5 C 131.91,167.71 132.91,166.71 134.62,165.01" stroke="#72A4C7" stroke-width="3.5" stroke-linecap="round" stroke-linejoin="round"/>
<path d="M 60.03,194.41 C 56.85,193.41 55.49,192.83 53.22,191.31" stroke="#72A4C7" stroke-width="3.5" stroke-linecap="round" stroke-linejoin="round"/>
<path d="M 44.87,184.76 C 41.54,181.72 39.98,179.78 37.23,177.1" stroke="#72A4C7" stroke-width="3.5" stroke-linecap="round" stroke-linejoin="round"/>
<path d="M 32.3,157.84 C 32.3,162.75 32.66,164.81 32.88,167.85" stroke="#72A4C7" stroke-width="3.5" stroke-linecap="round" stroke-linejoin="round"/>
<path d="M 32.52,146.99 C 33.81,142.81 35.27,140.31 37.23,138.06" stroke="#72A4C7" stroke-width="3.5" stroke-linecap="round" stroke-linejoin="round"/>
<path d="M 46.11,131.34 C 49.7,128.96 52.11,127.96 55.12,127.25" stroke="#72A4C7" stroke-width="3.5" stroke-linecap="round" stroke-linejoin="round"/>
<path d="M 66.28,127.25 C 70.41,128.03 72.93,128.82 75.61,130.71" stroke="#72A4C7" stroke-width="3.5" stroke-linecap="round" stroke-linejoin="round"/>
<path d="M 83.6,138.42 C 86.04,141.74 87.11,144.64 87.54,147.75" stroke="#72A4C7" stroke-width="3.5" stroke-linecap="round" stroke-linejoin="round"/>
<path d="M 88.61,158.7 C 88.32,163.75 87.68,166.16 86.83,168.81" stroke="#72A4C7" stroke-width="3.5" stroke-linecap="round" stroke-linejoin="round"/>
<path d="M 83.18,178.74 C 81.04,183.44 79.82,185.31 77.21,187.81" stroke="#72A4C7" stroke-width="3.5" stroke-linecap="round" stroke-linejoin="round"/>
<defs>
<linearGradient id="paint0_linear_430_1020" x1="119.752" y1="63.9081" x2="166.907" y2="126.704" gradientUnits="userSpaceOnUse">
<stop stop-color="#DFF3FD"/>
<stop offset="1" stop-color="#D7F0FC" stop-opacity="0.75"/>
</linearGradient>
</defs>
</svg>