<svg xmlns="http://www.w3.org/2000/svg" width="250" height="196" fill="none" viewBox="0 0 250 196">
  <path d="m249.8 0.81h-68.98l-7.01 70.9 11.24 49.22 57.39-1.72 7.36-44.23v-74.17z" fill="#FEFFFE"/>
  <path d="m246.9 39.64-6.76-7.02-0.9-19.43-7.38-12.01h-34.68l-2.05 9.46 4.15 11.09-11.28 4.17 0.9 9.81 7 6.26-6.6 12.49 5.4 4.8 12.3-2.25 12.4 7.6 7-3.6 0.8-10.8 12-8 7.7 6.9v-9.47z" fill="url(#paint0_radial_1015_24793)"/>
  <path d="m236.2 13.03 2.06-1.9 1.1 3.7 4.8 2.8-4.1 2.3-1.7 4.5-3.1-5.5-3.1-1.7 0.4-0.6 3.64-3.6z" fill="#FEE696"/>
  <path d="m178.1 39.62 1.5-2.1 1 3 3.9 1.9-3.2 1.9-1.4 3.5-2.5-4.1-2.6-1.2 0.3-0.5 3-2.4z" fill="#FEE696"/>
  <path d="m197.4 9.52 1.9 5.4c0.46 1.35 2.75 0.71 2.1-1.4l-1.8-4.5c-0.9-2.5-3.2-2-2.2 0.5z" fill="#FEE696"/>
  <path d="m236.8 34.41c-2.15-2.1-10.8-4.7-11.8-5.5-1.2-1-1.8-11.7-5-13.8s-6.9 3.3-13.3 10c-1.7 1-11.5-0.8-14.5 0.6-4.3 2-0.5 8.1 3.4 14 1.5 2-0.7 5.3-3.4 12.3-2.3 6.2 1.5 6.9 5.1 6.2 4.3-0.9 8.7-1.9 10.4-1.5 2.8 0.7 7.6 7.1 13.1 7 4.7-0.1 5.3-8.5 5.6-13.6 0.1-1.4 9.7-6.2 11.4-9.2 1.2-2.2 0.8-4.8-1-6.5z" fill="url(#paint1_linear_1015_24793)" stroke="#D39D52" stroke-miterlimit="10" stroke-width="3.402"/>
  <path d="m234.7 36.91c-1-1.9-10.8-3.8-12.3-5.6-1.2-1.5-1.6-11.1-4.3-14-1.4-1.5-8 8.9-10.2 9.8-2.5 1-11.9-0.8-13.5 0.1-3.3 1.8 3.3 8.8 4.7 11.5 1.6 3.2-4.5 11.6-3.2 14.4 1.1 2.6 9.4-0.5 12.8-0.5 3 0 10.2 7.4 13.2 7.1 3.8-0.4 2.8-9.4 3.9-11.3 1.3-2.4 10.6-8.5 8.9-11.5z" fill="url(#paint2_linear_1015_24793)"/>
  <path d="m204.2 38.31c2.4 0.6 3.2-1.5 2.9-2.8-0.5-2.1-2.4-2.1-3.6-1.4-1.5 0.9-1.1 3.7 0.7 4.2z" fill="#322942"/>
  <path d="m220.3 43.11c2.4 1.1 3.4-1 3.2-2.4-0.3-2.1-2.2-2.3-3.5-1.6-1.6 0.8-1.4 3.2 0.3 4z" fill="#322942"/>
  <path d="m209 42.31c1.2 1.8 5.9 3.6 7 0.8 0.7-1.9-1.5-2.4-2.3-1.3-1.5 2.1-3.1-0.8-3.9-0.8-1-0.1-1.5 0.3-0.8 1.3z" fill="#322942"/>
  <path d="m237 54.91 4.8 4.1c1.6 1.4 3.1-0.8 1.6-2.3s-4-2.8-5.2-3.4c-1.6-0.8-2.6 0.4-1.2 1.6z" fill="#FEE696"/>
  <path d="m203.8 67.51-1.4 4.7c-0.7 2.4 2.4 2.7 3 0.5l1.2-4.9c0.5-2.1-2.2-2.3-2.8-0.3z" fill="#FEE696"/>
  <path d="m94.72 120.1h86.22c0-45.07-31.75-106.1-85.02-106.1h-3.8l2.6 106.1z" fill="#FFD571" stroke="#D8A74B" stroke-miterlimit="10" stroke-width="3.402"/>
  <path d="m95.81 14.01h-3.8c-45.87 0-84.1 37.9-85 85.8-0.8 44.1 33.2 80 80.1 86.2h9.8l-1.1-85v-87z" fill="url(#paint3_radial_1015_24793)" stroke="#5CB795" stroke-miterlimit="10" stroke-width="3.402"/>
  <path d="m96.71 100.6 82.4 0.2 1.5 6.2-2.7 10.9-81.2 1.2v-18.5z" fill="url(#paint4_linear_1015_24793)" stroke="#5CB795" stroke-miterlimit="10" stroke-width="3.402"/>
  <path d="m96.71 100.6-54 69c15.3 11.1 29.2 16.4 54 16.4v-85.4z" fill="#CCE6FF" stroke="url(#paint5_linear_1015_24793)" stroke-miterlimit="10" stroke-width="3.402"/>
  <path d="m96.71 100.6 49.9 60.6c2.3 3.7 1.1 8-2.1 10.4-13.9 10.3-28.4 14.4-47.8 14.4v-85.4z" fill="url(#paint6_linear_1015_24793)" stroke="url(#paint7_linear_1015_24793)" stroke-miterlimit="10" stroke-width="3.402"/>
  <path d="m34.81 96.91c5.2 1.3 5.5-3.1 5.2-5.3-0.6-3.9-4.9-4.2-7.1-2.7-3.3 2.2-3 6.8 1.9 8z" fill="#322942"/>
  <path d="m71.71 96.31c4.4 1.8 5.9-2.4 5.5-4.9-0.7-4.1-4.4-4.3-6.6-2.8-3.3 2.3-3 6.1 1.1 7.7z" fill="#322942"/>
  <path d="m26.61 99.61c-5.5 1.2-6.5 6.4-0.6 7.5 4 0.8 7.2 0.3 8.9-1 2.6-1.9 1.1-5.5-3.3-6.4-1.9-0.4-3.4-0.5-5-0.1z" fill="#F08888"/>
  <path d="m76.21 100.3c-5.5 1.2-4.5 6 0.8 7.2 3 0.7 5.9-0.1 7.6-1.4 2.6-1.9 1.1-5.2-3.3-6.1-1.9-0.3-3.5-0.1-5.1 0.3z" fill="#F08888"/>
  <path d="m45.91 99.81c2.3 4.3 5 5.2 8.3 5.2 3.6 0 5.7-2 7.4-4.9" stroke="#322942" stroke-linecap="round" stroke-miterlimit="10" stroke-width="3.402"/>
  <path d="m143.9 101.6c5.72-1.63 76.09-17.9 79.22-18.6 5.2-1.24 9.8 2.8 11.9 11.7 3.8 16.2 3.9 39.2 0.4 53.2-2.1 8.3-12.7 18.2-18.8 20.7-2.9 1.2-8.9 0.3-11.8-1.3l-56.7-18.3c-4.1-1.7-6.4-3.6-6.4-8.2v-6.1l-0.9-3.8 0.9-5.7-0.9-7.2c-0.9-7-1.8-15 3.08-16.4z" fill="url(#paint8_linear_1015_24793)" stroke="#5CB795" stroke-miterlimit="10" stroke-width="3.402"/>
  <path d="m142.8 106.8c1-2.1 4.5-1.9 8.8-1.1 8.4 1.7 27.5 6.6 34.5 9 10.1 3.5 21.5 5.8 24.6 8.2 3.3 2.5 5 4.1 9 1.4 4.9-3.2 13.3-11.3 15.1-16.9 1.2 8.7 0.9 27.2-2.7 40.5-2.3 8.3-12 18.1-18 19.1-2.3 0.4-5.4 0.1-7.1-0.7l-0.9-9.6-3.5-3.8-11.5-2.2-9.2-4.1-9.2 0.5-10.6-6.5-10.1-3.5-9.2-1.7c-1.8-0.8-3.2-6.7-0.9-8.4l0.4-11.9c-1.3-2.1-1.3-4.8 0.5-8.3z" fill="url(#paint9_linear_1015_24793)"/>
  <path d="m143.2 114.7c3.9 1.8 10-0.1 15.6 5.2 3.9 3.8 8.3 4.5 16.1 3.6 4.1-0.5 6.9 0.6 9.7 4.4 3.1 4.3 7.4 5.5 12.2 3.3 4-1.8 6.3-1.8 8.4 1 2.5 3.4 2.6 8.7 1.9 14.1l-64.3-21.1v-10.5h0.4z" fill="url(#paint10_linear_1015_24793)" stroke="#5CB795" stroke-miterlimit="10" stroke-width="3.402"/>
  <path d="m143.2 128.2 62.7 18.9c1.3 0.5 1.5 6.4 0.5 19.2l-56.2-18c-4.1-1.1-7.3-3.1-7.5-6.5l-0.4-6.1c-0.4-2.6-1.6-8.2 0.9-7.5z" fill="url(#paint11_linear_1015_24793)" stroke="#5CB795" stroke-miterlimit="10" stroke-width="3.402"/>
  <path d="m144.1 136.3 13.6 3.1 10.7 6.7 8 1.2 5.5-0.7 9.2 4.7h9.6l4.1 2.9-0.4 10.9-52.7-17.5c-4.5-1.5-7.5-2.5-7.6-5.8v-5.5z" fill="url(#paint12_linear_1015_24793)"/>
  <path d="m161.2 103.1 4.8-2.1" stroke="#E0B853" stroke-linecap="round" stroke-miterlimit="10" stroke-width="2.835"/>
  <path d="m185.2 99.81 3.5-2.8" stroke="#F7D054" stroke-linecap="round" stroke-miterlimit="10" stroke-width="2.835"/>
  <path d="m213.1 117.4 3.8-1.7" stroke="#E0B853" stroke-linecap="round" stroke-miterlimit="10" stroke-width="2.835"/>
  <path d="m223.2 105.6 3.2-4.9" stroke="#8598D5" stroke-linecap="round" stroke-miterlimit="10" stroke-width="2.835"/>
  <path d="m219.3 93.01 4-3.7" stroke="#F0F0F0" stroke-linecap="round" stroke-miterlimit="10" stroke-width="2.835"/>
  <path d="m204.5 94.71 3.8 2.9" stroke="#EBA4B5" stroke-linecap="round" stroke-miterlimit="10" stroke-width="2.835"/>
  <path d="m191.9 107.2 1.5 4.4" stroke="#5684CC" stroke-linecap="round" stroke-miterlimit="10" stroke-width="2.835"/>
  <path d="m204.1 106.8 4.4 0.9" stroke="#F0F0F0" stroke-linecap="round" stroke-miterlimit="10" stroke-width="2.835"/>
  <path d="m174.8 106.3 4.1 1.4" stroke="#F0F0F0" stroke-linecap="round" stroke-miterlimit="10" stroke-width="2.835"/>
  <defs>
    <radialGradient id="paint0_radial_1015_24793" cx="0" cy="0" r="1" gradientTransform="translate(217.8 36.61) scale(32.88)" gradientUnits="userSpaceOnUse">
      <stop stop-color="#FEFFFE" offset="0"/>
      <stop stop-color="#FEFFFE" stop-opacity=".25" offset="1"/>
    </radialGradient>
    <linearGradient id="paint1_linear_1015_24793" x1="214" x2="214" y1="13.97" y2="64.91" gradientUnits="userSpaceOnUse">
      <stop stop-color="#EAB052" offset="0"/>
      <stop stop-color="#F9C95C" offset="1"/>
    </linearGradient>
    <linearGradient id="paint2_linear_1015_24793" x1="214" x2="214" y1="16.71" y2="59.74" gradientUnits="userSpaceOnUse">
      <stop stop-color="#FEE696" offset="0"/>
      <stop stop-color="#F9C95C" offset="1"/>
    </linearGradient>
    <radialGradient id="paint3_radial_1015_24793" cx="0" cy="0" r="1" gradientTransform="translate(70.91 99.21) scale(86.76)" gradientUnits="userSpaceOnUse">
      <stop stop-color="#B6F3CD" offset="0"/>
      <stop stop-color="#A4EABD" offset=".4906"/>
      <stop stop-color="#93E5B1" offset="1"/>
    </radialGradient>
    <linearGradient id="paint4_linear_1015_24793" x1="138.6" x2="138.6" y1="100.6" y2="119.1" gradientUnits="userSpaceOnUse">
      <stop stop-color="#98E5BA" offset="0"/>
      <stop stop-color="#76D0A5" offset="1"/>
    </linearGradient>
    <linearGradient id="paint5_linear_1015_24793" x1="69.71" x2="69.71" y1="100.6" y2="186" gradientUnits="userSpaceOnUse">
      <stop stop-color="#83BBD5" offset="0"/>
      <stop stop-color="#83BBD5" stop-opacity=".75" offset="1"/>
    </linearGradient>
    <linearGradient id="paint6_linear_1015_24793" x1="121.7" x2="121.7" y1="100.6" y2="186" gradientUnits="userSpaceOnUse">
      <stop stop-color="#3382F2" offset="0"/>
      <stop stop-color="#2865D2" offset="1"/>
    </linearGradient>
    <linearGradient id="paint7_linear_1015_24793" x1="122.2" x2="122.2" y1="100.6" y2="187" gradientUnits="userSpaceOnUse">
      <stop stop-color="#1858AA" offset="0"/>
      <stop stop-color="#1858AA" stop-opacity=".56" offset="1"/>
    </linearGradient>
    <linearGradient id="paint8_linear_1015_24793" x1="188.9" x2="188.9" y1="82.61" y2="169.4" gradientUnits="userSpaceOnUse">
      <stop stop-color="#82DFB7" offset="0"/>
      <stop stop-color="#76D0A5" offset="1"/>
    </linearGradient>
    <linearGradient id="paint9_linear_1015_24793" x1="188.8" x2="188.8" y1="104.5" y2="167.3" gradientUnits="userSpaceOnUse">
      <stop stop-color="#A3EDCC" offset="0"/>
      <stop stop-color="#76D0A5" offset="1"/>
    </linearGradient>
    <linearGradient id="paint10_linear_1015_24793" x1="174.6" x2="174.6" y1="114" y2="146.3" gradientUnits="userSpaceOnUse">
      <stop stop-color="#F7D8B0" offset="0"/>
      <stop stop-color="#E0A56E" offset="1"/>
    </linearGradient>
    <linearGradient id="paint11_linear_1015_24793" x1="174.6" x2="174.6" y1="128" y2="166.3" gradientUnits="userSpaceOnUse">
      <stop stop-color="#82DFB7" offset="0"/>
      <stop stop-color="#76D0A5" offset="1"/>
    </linearGradient>
    <linearGradient id="paint12_linear_1015_24793" x1="174.5" x2="174.5" y1="136.3" y2="165.1" gradientUnits="userSpaceOnUse">
      <stop stop-color="#F7D8B0" offset="0"/>
      <stop stop-color="#E0A56E" offset="1"/>
    </linearGradient>
  </defs>
</svg>