<svg xmlns="http://www.w3.org/2000/svg" width="200" height="200" fill="none" viewBox="0 0 200 200">
  <path d="m165.1 137c-2.25 14.59-8.11 21.11-14.96 26.94 0.68 3.85 2.65 11.85 1.05 17.25-2.39 8.36-14.26 12.48-22.17 13.31-7.92 0.83-12.26-3.54-15.06-8.81-1.59-3.2-2.88-6.53-3.97-11.8-8.12 0.31-16.22-0.93-23.89-3.72-4.31 6.15-11.26 15.74-18.53 16.37s-19.74-8.85-21.44-15.22 3.02-14.22 9.77-23.03c-1.6-3.53-2.7-7.07-3.68-11.97l-18.49-2.42c-2.91-0.43-4.61-1.91-4.5-6.7-5.49-0.11-9.21-5.11-9.22-12.41-0.01-6.69 5.28-16.17 10.46-17.55 0.53-4.25 2.02-5.84 6.26-6.16-0.73-3.85-1.56-8.96 1.45-10.33 1.81-0.83 3.72-1.15 6.74-1.36 1.15-4.3 2.3-9.4 4-13.15 1.38-2.63 3.91-3.05 9.83-2.32l6.02-34.23c10-14.49 23.11-23.59 44.93-24.12 24.53-0.58 43.02 12.09 50.5 34.24l0.73 0.84c5.09 1.8 7.73 7.01 7.73 14.1 0 7.96-3.83 15.35-10.48 16.83-2.01 4.26-4.02 7.1-6.82 10.37 0.83 1.04 1.05 2.74 0.42 4.23 9.9 8.59 15.6 32.92 13.32 50.82z" fill="#314E7E"/>
  <path d="m65.57 31.12c-7.06 0-10.89 9.59-10.89 16.98s3.02 11.24 6.34 11.24l4.55-28.22z" fill="#4689D3" stroke="#314E7E" stroke-linecap="round" stroke-linejoin="round" stroke-width="2.3"/>
  <path d="m62.26 37.62c-2.97 0-5.44 8.29-5.44 13.6 0 3.71 1 5.5 1.94 6.38l3.5-19.98z" fill="#57A7F1"/>
  <path d="m111.6 6.74c-28.5 0-50.32 19.29-51.7 48.27-0.31 6.47 1.17 12.1 3.28 17.2l45.73 18.89h9.79c18.2 0 32.09-7.85 38.02-19.81 2.01-4.3 3.16-9.51 3.16-15.24 0-26.87-18.49-49.31-48.28-49.31z" fill="#E1F1FF" stroke="#314E7E" stroke-linecap="round" stroke-linejoin="round" stroke-width="2.3"/>
  <path d="m139.1 15.22c8.83 6.91 12.78 17.75 11.05 29.9-2.64 18.19-14.91 37.49-44.29 38.54l-5.38 0.11 8.58 6.57 9.25 0.32c16.49 0 29.09-6.58 35.54-15.39 3.83-5.21 5.74-12.01 5.74-19.45 0-17.99-9.66-33.59-20.49-40.6z" fill="#B7D0ED"/>
  <path d="m111.6 6.74c-28.5 0-50.32 19.29-51.7 48.27-0.31 6.47 1.17 12.1 3.28 17.2l45.73 18.89h9.79c18.2 0 32.09-7.85 38.02-19.81 2.01-4.3 3.16-9.51 3.16-15.24 0-26.87-18.49-49.31-48.28-49.31z" stroke="#314E7E" stroke-linecap="round" stroke-linejoin="round" stroke-width="2.3"/>
  <path d="m156 39.94c-6.85 0-9.28 11.32-9.28 19.28s3.31 12.33 8.09 12.33c7.27 0 12.76-7.85 12.76-16.76 0-7.39-3.83-14.33-11.57-14.85z" fill="#4689D3" stroke="#314E7E" stroke-linecap="round" stroke-linejoin="round" stroke-width="2.3"/>
  <path d="m162.8 43.1c-5.09 0-8.4 7.85-8.4 15.24 0 4.65 1.41 8.33 3.8 10.47 5.07-2.32 8.75-8.93 8.75-16.4 0-3.48-1.23-6.9-4.15-9.31z" fill="#57A7F1"/>
  <path d="m153.8 46.63c0.83-1.59 2.95-2.43 5.58-2.43" stroke="#314E7E" stroke-linecap="round" stroke-linejoin="round" stroke-width="1.5"/>
  <path d="m155.1 61.01c4.87 0 9.11-4.02 11.74-9.03 0.44 1.99-0.21 5.73-0.84 7.67-1.79 5.52-5.4 10.2-10.06 10.73l-0.84-9.37z" fill="#3A82D2"/>
  <path d="m150.1 86.09c9.8 8.59 15.5 31.57 13.9 49.46-1.49 15.74-10.09 24.54-14.54 27.39l-39.3 9.91c-20.18 0.42-41.89-6.97-52.1-21.77-3.83-5.53-5.08-10.26-6.01-14.95l19.03-0.21 11.38 2.31 3.72-1.15 3.42-20.89 0.63-8.91 2.8-1.8 2.91-6.68 2.01-15.55 3.83 0.83 5.18 4.15 1.91 5.73 2.92 2.01-0.53 3.15 2.8-1.8 15.03-2c7.37-2.31 15.19-3.25 21.01-9.23z" fill="#4689D3" stroke="#314E7E" stroke-linecap="round" stroke-linejoin="round" stroke-width="2"/>
  <path d="m150.8 165.5c-1.49-7.28-5.53-10.55-13.01-10.55-11.58 0-23.85 8.25-26.65 16.95-1.05 3.54 5.18 15.12 8.61 18.07 3.42 2.95 7.35 3.78 12.44 2.63 12.81-3.05 20.73-7.52 18.61-20.38v-6.72z" fill="#E1F1FF" stroke="#314E7E" stroke-linecap="round" stroke-linejoin="round" stroke-width="3"/>
  <path d="m116.1 184.4c8.33 0.95 22.65-2.47 34.28-11.17l0.63 2.79c-0.32 8.33-6.24 13.02-16.86 16.17-6.13 1.59-12.58 0.43-18.05-7.79z" fill="#57A7F1" stroke="#314E7E" stroke-linecap="round" stroke-linejoin="round" stroke-width="2"/>
  <path d="m132.7 156.3c-2.01 3.96-0.96 9.91 5.17 13.18 4.66 2.51 10.04 0.62 11.02-4.27-1.8-7.18-3.71-9.07-11.02-9.38l-5.17 0.47z" fill="#3A82D2" stroke="#314E7E" stroke-linecap="round" stroke-linejoin="round" stroke-width="2"/>
  <path d="m141.8 171.9c0.33 4.27-0.65 8.12-2.86 12.07-1.6 3.05-9.7 7.95-17.91 4.79 4.14 4.26 9.74 3.47 12.12 2.74 8.33-2.63 15.71-6 17.09-14.27l-0.31-4.07-0.53-2.1c-1.8 1.47-3.66 1.89-7.6 0.84z" fill="#3A82D2"/>
  <path d="m116.6 172.9c-1.49 1.7 0.63 7.12 2.54 7.65 1.8 0.53 3.05-1.63 2.32-4.27-1.04-3.38-2.74-5.17-4.86-3.38z" fill="#FEFFFE"/>
  <path d="m150.1 85.14c-3.12 5.63-10.94 9.17-20.91 10.18l-18.04 0.63-0.32-2.84-2.43-4.88c10.8 0.94 29.54 0.83 40.73-7.02 0.93 0.63 1.46 2.01 0.97 3.93z" fill="#3A82D2" stroke="#314E7E" stroke-linecap="round" stroke-linejoin="round" stroke-width="2"/>
  <path d="m129.6 97.84c-7.37 6.79-10.99 9.42-17.84 11.01-6.96 1.7-13.19 1.07-19.54 4.34-8.02 4.15-11.24 14.99-4.49 23.36 6.13 7.6 19.38 8.44 27.06 7.6 14.29-1.48 22.4-7.33 31.33-17.79 5.09-6.05 8.81-16.99 4.56-25.46-3.5-6.89-12.65-10.85-21.08-3.06z" fill="#E1F1FF" stroke="#314E7E" stroke-linecap="round" stroke-linejoin="round" stroke-width="2.3"/>
  <path d="m148.9 98.22c3.01 8.7-2.8 22.62-11.47 28.89-9.05 6.69-15.18 8.49-28.53 8.49-9.35 0-17.79-2.84-23.17-10.34-0.73 3.85 0.42 8.54 4.35 12.18 6.85 6.17 16.32 7.12 24.95 6.28 11.18-1.05 19.91-6.48 26.37-12.43 8.4-7.85 15.56-22.13 7.5-33.07z" fill="#B7D0ED"/>
  <path d="m120.7 107.5c7.06 3.27 11.52 9.64 12.15 18.34" stroke="#314E7E" stroke-linecap="round" stroke-linejoin="round" stroke-width="1.5"/>
  <path d="m103.1 110.9c5.09 8.26 5.09 21.02-0.84 30.93" stroke="#314E7E" stroke-linecap="round" stroke-linejoin="round" stroke-width="2"/>
  <path d="m123.3 141.4c-1.25-6.68 2.17-12.95 9.02-15.05 5.49-1.79 9.43-0.1 11.44 4.27-5.84 6.67-12.07 9.41-20.46 10.78z" fill="#57A7F1" stroke="#314E7E" stroke-linecap="round" stroke-linejoin="round" stroke-width="2"/>
  <path d="m142.6 137c4.35 4.69 13.08 4.06 20.45-0.42l0.53-4.48-0.84-11.75-2.63-13.2-3.83-10.12-5.19-7.05-2.12-1.89-4.88 3.63-7.92 2.42 2.8 0.31c5.49-0.73 11.73 4.27 13.11 9.54 2.53 9.7-1.81 20.43-9.92 29.9-0.63 0.84-0.63 1.89 0.44 3.11z" fill="#3A82D2"/>
  <path d="m131.8 101c-1.7 2.63 1 4.11 3.38 2.95 3.21-1.58 4.36-3.9 3.52-5.37-1.48-2.16-4.9-0.37-6.9 2.42z" fill="#FEFFFE" fill-opacity=".8"/>
  <path d="m110.8 113.2c-2.12 1.37-0.63 3.47 2.59 3.04 3.72-0.52 5.62-2 5.2-3.69-0.63-1.9-4.57-1.37-7.79 0.65z" fill="#FEFFFE" fill-opacity=".8"/>
  <path d="m56.03 149.3c-6.23 6.47-11.11 14.73-9.1 21.41 2.12 6.9 13.2 15.06 20.68 15.06 6.75 0 12.57-6.79 18.8-15.26-12.57-4.05-23.2-10.52-30.38-21.21z" fill="#B7D0ED" stroke="#314E7E" stroke-linecap="round" stroke-linejoin="round" stroke-width="2.3"/>
  <path d="m48.23 162.7c6.96 1.15 17.28 8.18 25.4 19.87l-1.24 1.48c-5.49 2.74-10.57 0.32-16.38-4.27-5.09-4.05-8.91-7.33-8.39-13.79l0.61-3.29z" fill="#57A7F1" stroke="#314E7E" stroke-linecap="round" stroke-linejoin="round" stroke-width="2"/>
  <path d="m48.23 169.1c5.09-0.63 10.58 5 14.41 7.95 2.38 1.9 5.08 0 6.33-2.22 1.15-2.12 1.15-3.7-1.92-6.34-4.41-3.84-9.9-6.06-14.99-7.21l-3.83 1.48v6.34z" fill="#3A82D2"/>
  <path d="m53.66 157.4c-0.63 1.48 1.49 1.8 2.83 0.75 1.25-1.05 1.46-2.64 0.42-3.17-1.15-0.63-2.4 0.42-3.25 2.42z" fill="#FEFFFE" fill-opacity=".8"/>
  <path d="m163.7 136.9c-5.72 3.75-14.43 5.75-19.92 0.74" stroke="#314E7E" stroke-linecap="round" stroke-linejoin="round" stroke-width="2"/>
  <path d="m53.88 139.1c10.83 2.22 20.27 4.02 30.59 5.18 2.01 0.31 3.71-0.96 5.31-2l-3.11-5.17-8.22-0.95-25.72-0.73 1.15 3.67z" fill="#9AB8D5"/>
  <path d="m90.15 143.6c8.64 6.16 18.11 7.53 34.06 5.95-8.11 9.37-17.58 13.43-30.83 12.9-14.29-0.63-25.35-6.27-33.14-12.33 7.48 0.95 22.57-0.1 29.91-6.52z" fill="#D1E6FF"/>
  <path d="m32.62 160.2c-0.84 2.22-1.37 5.85-0.84 6.48" stroke="#9AB8D5" stroke-linecap="round" stroke-linejoin="round" stroke-width="2"/>
  <path d="m39.78 157.8c-2.63 4.65-3.05 9.23-1.71 13.21" stroke="#9AB8D5" stroke-linecap="round" stroke-linejoin="round" stroke-width="2"/>
  <path d="m172.9 136.1c0.21 7.06-2.43 15.43-6.67 21.06" stroke="#9AB8D5" stroke-linecap="round" stroke-linejoin="round" stroke-width="2.3"/>
  <path d="m178.3 143.9c0 3.26-1.38 7.1-3.08 9.52" stroke="#9AB8D5" stroke-linecap="round" stroke-linejoin="round" stroke-width="2.3"/>
  <path d="m91.74 12.91c-3.45 1.89-1.85 4.1 1.47 3.68 5.08-0.63 9.54-2.74 9.54-4.43 0-2.11-6.74-1.69-11.01 0.75z" fill="#FEFFFE"/>
  <path d="m108.2 12.06c-2.12 0.65-1.15 2.85 1.48 2.85 2.53 0 3.67-0.85 3.46-2.12-0.31-1.37-3.01-1.47-4.94-0.73z" fill="#FEFFFE"/>
  <path d="m90.79 23.11c-14.71 0.53-21.16 11.37-21.69 24.67-0.43 8.37 3.3 13.17 13.92 15.8 10.31 2.74 21.25 4.11 32.83 4.64 12.85 0.63 20.58-3.42 21.41-17.06 0.94-15.12-3.83-23.08-25.87-26.93-6.96-1.17-12.15-1.48-20.6-1.12z" fill="#3369A3" stroke="#204068" stroke-linecap="round" stroke-linejoin="round" stroke-width="2.3"/>
  <path d="m83.74 28.97c-2.91 1.16-1.98 4.53 0.72 3.69 3.31-1.16 5.32-1.68 5.32-3.79 0-1.8-2.74-1.27-6.04 0.1z" fill="#69B9E7" fill-opacity=".7"/>
  <path d="m94.33 27.71c-1.48 0-1.58 1.89-0.43 2.1 1.48 0.32 2.01-1.37 1.38-2-0.27-0.21-0.61-0.18-0.95-0.1z" fill="#69B9E7" fill-opacity=".7"/>
  <path d="m132 55.11c-2.01 0.94-1.91 3.69-3.92 5.27-1.7 1.37-5.84 1.9-6.88 2.73-1.15 0.84-0.73 2.95 1.65 2.43 5.18-1.16 8.29-2.74 10.61-7.85 1.04-2.42 0.21-3.36-1.46-2.58z" fill="#69B9E7" opacity=".2"/>
  <path d="m84.06 36.72c-7.57 0-7.67 15.06-0.52 15.06 6.85 0 7.17-15.06 0.52-15.06z" fill="#9AF3FF"/>
  <path d="m118.4 40.67c-6.75 0-7.58 15.64-0.1 15.64 6.85 0 8.19-15.64 0.1-15.64z" fill="#9AF3FF"/>
  <path d="m96.12 47.57c1.8 3.38 6.89 3.06 8.38 0.53" stroke="#76DFFF" stroke-linecap="round" stroke-linejoin="round" stroke-width="3.5"/>
  <path d="m37.81 81.92c1.25-2.74 4.36-2.53 8.2-2.53l3.02-11.17c1.04-3.16 2.74-4.43 7.72-3.7l40.19 6.87c4.56 0.83 6.04 3.25 4.56 8.57l-5.38 19.79c-1.04 3.95-2.19 5.85-6.02 5.32l-0.42 3.05c0.42 4.59-2.49 6.07-4.08 6.07l-46.23-13.92c-2.23-4.26-3.27-15.04-1.56-18.35z" fill="#314E7E"/>
  <path d="m38.13 84.19 2.12 9.6 47.93 4.96 11.97-22.01-1.04-2.42-45.98-9.47-3.11 1.26-3.94 13.92-6.65 1.26-1.3 2.9z" fill="#FEFFFE"/>
  <path d="m40.14 82.13 19.03-0.84 2.97-2-9.88-13.18" stroke="#9AB8D5" stroke-linecap="round" stroke-linejoin="round" stroke-width="2"/>
  <path d="m79.08 84.71 8.11 11.09" stroke="#9AB8D5" stroke-linecap="round" stroke-linejoin="round" stroke-width="2"/>
  <path d="m78.77 82.39 20.34-8.07" stroke="#9AB8D5" stroke-linecap="round" stroke-linejoin="round" stroke-width="2"/>
  <path d="m37.71 84.08 1.24 6.91 49.13 5.23c2.75 0.42 3.07 3.05 2.96 4.95l-0.73 9.59 3.11-1.05 12.74-22.25c0-2.43-1.38-3.48-4.19-3.9l-2.24-0.74-6.46 20.19c-0.73 2.22-3.75 2.22-3.75 0v-3.95c0-1.89-1.91-3.05-3.81-3.16l-47.69-5.13-0.31-6.69z" fill="#FEFFFE" stroke="#314E7E" stroke-linecap="round" stroke-linejoin="round" stroke-width="2"/>
  <path d="m106 93.11 3.11 0.64c2.01 0.52 3.16 2.52 2.53 4.63l-4.44 10.36-3.83 0.42 2.63-16.05z" fill="#FEFFFE" stroke="#314E7E" stroke-linecap="round" stroke-linejoin="round" stroke-width="2"/>
  <path d="m97.36 96.64 1.8 2.11-2.12 11.37" stroke="#314E7E" stroke-linecap="round" stroke-linejoin="round" stroke-width="2"/>
  <path d="m33.98 93.75c-1.8 1.68-1.8 4.95-1.8 8v1.37c-4.14 0-10.48 5.94-10.06 13.64 0.32 5.32 4.04 9.47 6.79 9.26 5.18-0.42 7.82-7.21 7.82-11.89 0-5.22-2.54-8.38-4.55-10.07v-2.84c0-3.16 0.93-6.33 2.42-8h1.5l52.19 4.48 0.73 1.15-1.15 14.55c1.15-1.27 3.16-2.21 3.16-2.21l-0.73 1.9c-5.82 3.15-8.25 10.84-5.82 17.94l2.24 4.37c-0.31 2.52-1.8 3.99-4.71 3.36l-47.62-5.84c-3.21-0.63-4.36-2.11-4.25-5.27l0.1-1.26" fill="#FEFFFE"/>
  <path d="m30.35 100.7c-5.09 1.58-9.23 9.53-9.23 14.96 0 5.32 3.52 10.47 7.14 10.47 5.08 0 7.99-7.39 7.99-11.63 0-5.74-2.43-9.38-5.9-10.75v-3.05z" fill="#57A7F1" stroke="#314E7E" stroke-linecap="round" stroke-linejoin="round" stroke-width="2.3"/>
  <path d="m26.52 105.9c-0.73 1.37 0.31 2.32 1.56 1.9 1.7-0.53 2.01-2 1.38-2.74-0.84-0.95-2.08-0.42-2.94 0.84z" fill="#9AF3FF"/>
  <path d="m33.11 94.9 17.01 19.81-19.19 14.39" stroke="#9AB8D5" stroke-linecap="round" stroke-linejoin="round" stroke-width="2"/>
  <path d="m69.31 116.1 16.68 21" stroke="#9AB8D5" stroke-linecap="round" stroke-linejoin="round" stroke-width="2"/>
  <path d="m69.31 116.1 19.29-15.96" stroke="#9AB8D5" stroke-linecap="round" stroke-linejoin="round" stroke-width="2"/>
  <path d="m33.98 93.11c-1.8 1.68-1.8 4.32-1.8 7.37v2.32c3.93 2.22 5.53 6.27 5.53 11.07 0 5.84-4.25 11.26-7.57 12.21v1.47c0 2.53 1.49 4.22 5.01 4.74l48.08 6.16c2.75 0.31 4-1.37 3.9-3.79l-1.15-2.11c-3.72-7.05-0.92-15.95 6.03-18.89l0.21-12.44c0-2.74-1.7-4.53-5.03-4.74l-51.09-4.16c-0.84-0.1-1.47 0.21-2.12 0.79z" stroke="#314E7E" stroke-linecap="round" stroke-linejoin="round" stroke-width="2"/>
  <path d="m58.52 111.8c-1.59-3.16-7.51-4.32-8.34 1.11-0.84 4.69 4.75 10.32 6.76 11.8 2.38 0.84 10.2-4.69 10.31-9.69 0.1-4.8-6.34-6.17-8.73-3.22z" fill="#A9648A"/>
  <path d="m58.73 112.9c-1.38-2.84-6.36-3.79-6.99 0.69-0.63 4.06 4.35 8.53 5.94 9.37 2.02 0.63 8.47-4.17 8.68-8.11 0.32-4.06-5.61-4.69-7.63-1.95z" fill="#F687A2"/>
  <path d="m53.75 113.3c-0.42 0.73 0.21 1.78 0.95 1.68" stroke="#FFB5C7" stroke-linecap="round" stroke-linejoin="round" stroke-width="1.5"/>
  <path d="m69.94 78.28c-1.49-2.21-5.21-2-5.42 1.95-0.21 3.27 2.49 7.85 4.09 9.01 2.12 0.63 8.46-2.63 9.09-6.69 0.73-4.27-3.93-5.96-7.76-4.27z" fill="#A9648A" stroke="#A9648A" stroke-linecap="round" stroke-linejoin="round" stroke-width="1.5"/>
  <path d="m70.36 79.02c-1.34-1.9-4.65-2.11-4.86 0.94-0.21 2.74 2.12 6.39 3.37 7.23 1.7 0.63 7.19-2.11 7.82-5.48 0.73-3.43-3.53-4.7-6.33-2.69z" fill="#F687A2" stroke="#F687A2" stroke-linecap="round" stroke-linejoin="round" stroke-width="1.5"/>
</svg>