<svg xmlns="http://www.w3.org/2000/svg" width="250" height="250" viewBox="0 0 250 250" fill="none">
<path d="M 131.79,208.61 C 108.98,208.19 87.66,211.75 81.41,221.08 C 78.75,225.16 78.29,230.15 81.83,233.1 C 89.92,239.76 111.48,242.13 127.18,241.44 C 140.26,240.84 159.98,238.75 168.91,233.06 C 172.88,230.44 171.91,224.16 167.91,220.04 C 160.61,212.47 148.41,208.92 131.79,208.61 Z" fill="#A1E8C3" stroke="#2C8586" stroke-width="3" stroke-linecap="round" stroke-linejoin="round"/>
<path d="M 85.25,223.11 C 88.71,220.16 91.28,221.26 95.63,222.77 C 101.97,225.07 104.11,225.71 106.85,226.08 C 108.95,226.38 107.76,228.78 103.25,228.66 C 97.91,228.51 89.18,225.94 85.25,223.11 Z" fill="#C5F2D2"/>
<path d="M 115.72,195.91 L 115.47,213.75 C 115.13,219.01 120.23,220.77 125.26,220.64 C 130.29,220.52 134.63,218.63 134.63,213.75 V 196.37 L 115.72,195.91 Z" fill="url(#paint0_linear_57_39)" stroke="#004272" stroke-width="3" stroke-linecap="round" stroke-linejoin="round"/>
<path d="M 117.42,200.19 L 117.16,213.08 C 117.06,216.14 118.19,218.19 123.91,218.08 C 127.95,217.99 129.66,217.12 129.66,214.91 L 129.28,201.56 L 117.42,200.19 Z" fill="url(#paint1_linear_57_39)"/>
<path d="M 61.07,87.92 C 54.63,88.63 53.37,95.19 53.61,100.71 C 53.84,106.02 57.07,110.06 61.49,109.84 L 63.28,109.61 L 64.71,87.69 L 61.07,87.92 Z" fill="#A1E8C3" stroke="#2C8586" stroke-width="3" stroke-linecap="round" stroke-linejoin="round"/>
<path d="M 198.36,103.32 C 203.79,104.26 205.85,108.43 205.22,114.6 C 204.52,121.68 200.91,123.71 197.01,123.91 L 195.79,123.64 L 196.72,103.01 L 198.36,103.32 Z" fill="#A1E8C3" stroke="#2C8586" stroke-width="3" stroke-linecap="round" stroke-linejoin="round"/>
<path d="M 127.06,197.16 C 92.71,197.16 62.09,174.09 58.52,142.71 C 56.99,128.97 59.71,114.11 61.75,100.29 L 63.75,87.22 C 65.49,81.08 72.96,80.77 76.29,85.42 C 77.71,87.61 77.64,89.81 77.26,92.72 L 72.91,125.21 C 70.08,151.98 87.92,184.17 126.91,185.18 C 158.29,185.41 179.27,163.33 183.62,138.83 L 187.67,102.61 C 188.45,96.32 193.26,95.94 195.45,96.95 C 198.71,98.38 198.94,101.64 198.48,106.06 L 194.66,139.94 C 191.75,173.36 166.02,197.16 127.06,197.16 Z" fill="url(#paint2_linear_57_39)" stroke="#004272" stroke-width="3" stroke-linecap="round" stroke-linejoin="round"/>
<path d="M 129.98,10.93 C 102.79,12.13 88.62,31.04 86.07,51.12 L 81.28,86.61 L 80.2,109.49 L 77.29,126.71 C 75.91,149.74 88.91,176.13 127.64,176.63 C 158.29,176.63 174.76,154.93 177.43,134.69 L 186.02,67.3 C 189.72,39.04 170.22,9.34 129.98,10.93 Z" fill="url(#paint3_linear_57_39)" stroke="#004272" stroke-width="2" stroke-linecap="round" stroke-linejoin="round"/>
<path opacity="0.4" d="M 100.81,33.14 L 110.11,23.47 C 113.91,20.08 120.31,18.71 122.41,20.01 C 124.51,21.31 122.11,24.93 119.94,26.61 L 107.16,37.31 C 104.76,39.58 101.93,44.29 99.18,43.99 C 96.43,43.68 97.11,37.01 100.81,33.14 Z" fill="#F3FEFF"/>
<path opacity="0.4" d="M 130.36,18.51 C 127.26,18.89 127.11,22.76 129.45,23.55 C 132.36,24.56 134.86,22.84 134.71,20.5 C 134.63,19.04 133.13,18.21 130.36,18.51 Z" fill="#F3FEFF"/>
<path d="M 92.33,50.96 L 119.86,84.92" stroke="#286496" stroke-width="3" stroke-linecap="round" stroke-linejoin="round"/>
<path d="M 101.31,33.82 L 147.12,87.22" stroke="#286496" stroke-width="3" stroke-linecap="round" stroke-linejoin="round"/>
<path d="M 113.91,21.31 L 168.37,88.23" stroke="#286496" stroke-width="3" stroke-linecap="round" stroke-linejoin="round"/>
<path d="M 91.47,65.59 L 111.71,44.14 L 124.85,33.06 L 139.94,22.91 L 149.16,18.86" stroke="#286496" stroke-width="3" stroke-linecap="round" stroke-linejoin="round"/>
<path d="M 137.19,17.64 L 141.92,21.99 L 154.94,37.08 L 168.37,53.4 L 178.68,59.61" stroke="#286496" stroke-width="3" stroke-linecap="round" stroke-linejoin="round"/>
<path d="M 168.68,30.31 L 149.77,40.62 L 123.76,59.91 L 109.59,73.72 L 100.92,83.72" stroke="#286496" stroke-width="3" stroke-linecap="round" stroke-linejoin="round"/>
<path d="M 178.68,47.4 L 152.97,66.31 L 137.04,78.99 L 127.64,86.61" stroke="#286496" stroke-width="3" stroke-linecap="round" stroke-linejoin="round"/>
<path d="M 177.74,70.87 L 165.41,83.2 L 157.12,89.96" stroke="#286496" stroke-width="3" stroke-linecap="round" stroke-linejoin="round"/>
<path d="M 83.16,85.27 C 74.12,86.35 72.06,92.16 71.75,100.13 C 71.52,106.72 73.26,110.47 80.12,110.16 C 109.13,108.86 136.96,112.91 176.37,121.04 C 181.97,122.36 183.85,120.17 184.23,114.83 L 185.24,104.76 C 185.78,100.71 184.85,98.97 180.12,97.11 C 160.22,89.33 130.21,85.12 83.16,85.27 Z" fill="url(#paint4_linear_57_39)" stroke="#48A98D" stroke-width="3" stroke-linecap="round" stroke-linejoin="round"/>
<path opacity="0.4" d="M 75.28,90.35 C 77.14,88.11 84.54,87.76 94.77,87.61 C 112.09,87.34 136.81,89.02 154.94,93.81 C 162.91,96.17 175.06,99.35 177.12,100.71 C 178.91,101.87 175.29,112.49 175.14,113.71 C 174.83,115.73 171.84,114.72 170.18,113.94 C 156.22,107.96 128.07,103.21 93.76,103.67 C 86.06,103.82 79.69,106.65 76.29,104.84 C 72.41,102.86 72.79,93.58 75.28,90.35 Z" fill="#F3FEFF"/>
<path d="M 103.12,121.68 C 94.96,121.09 96.96,132.87 103.12,132.21 C 109.13,131.58 108.82,122.11 103.12,121.68 Z" fill="#0B345A"/>
<path d="M 143.28,126.48 C 136.42,126.02 136.65,136.48 143.05,136.41 C 149.16,136.33 148.78,126.86 143.28,126.48 Z" fill="#0B345A"/>
<path d="M 114.14,134.15 C 116.97,141.31 127.26,140.77 129.45,135.12" stroke="#0B345A" stroke-width="4.3" stroke-linecap="round" stroke-linejoin="round"/>
<path d="M 95.42,134.15 C 87.06,134.15 88.15,142.36 97.04,142.71 C 104.66,143.01 104.97,134.15 95.42,134.15 Z" fill="#F09985"/>
<path d="M 146.03,139.22 C 137.82,139.22 138.68,146.92 147.27,147.71 C 155.71,148.49 156.09,139.22 146.03,139.22 Z" fill="#F09985"/>
<path d="M 202.18,29.62 C 192.88,33.11 193.96,42.27 201.71,44.82 C 207.62,46.81 212.91,42.94 213.61,38.01 L 215.22,10.93 C 215.38,6.81 209.01,6.27 208.78,10.93 L 207.62,28.84 C 206.09,28.22 204.56,28.61 202.18,29.62 Z" fill="#96D2D8" stroke="#2C8586" stroke-width="3" stroke-linecap="round" stroke-linejoin="round"/>
<path d="M 202.34,32.06 C 198.94,33.65 198.79,36.12 200.13,37.01 C 202.61,38.62 205.68,36.12 206.54,34.05 C 207.7,31.12 205.02,30.81 202.34,32.06 Z" fill="#B8E7E5"/>
<path d="M 239.91,62.74 C 234.96,62.74 232.97,54.03 225.88,53.4 C 222.97,53.24 222.51,56.31 222.05,59.24 L 219.14,74.88 C 216.77,73.22 212.65,72.68 208.68,75.51 C 202.84,79.71 204.12,87.14 211.21,89.64 C 217.12,91.78 223.05,87.61 223.83,84.22 L 227.65,65.32 C 231.4,69.02 236.74,70.28 239.72,67.61 C 242.19,65.32 243.61,62.74 239.91,62.74 Z" fill="url(#paint5_linear_57_39)" stroke="#2C8586" stroke-width="3" stroke-linecap="round" stroke-linejoin="round"/>
<path d="M 210.01,78.91 C 207.77,81.08 209.29,83.28 211.21,83.2 C 214.35,83.05 215.7,80.58 215.32,79.29 C 214.62,77.12 211.71,77.28 210.01,78.91 Z" fill="#9AF2B3"/>
<path d="M 34.12,30.23 C 27.03,33.72 27.11,43.56 35.55,45.62 C 42.41,47.36 46.91,43.17 47.61,39.12 L 49.14,20.21 L 67.35,22.61 L 65.82,32.67 C 62.91,31.32 58.86,31.63 56.11,35.38 C 52.06,40.85 56.72,47.44 63.28,48.06 C 68.96,48.68 72.11,43.68 72.73,41.13 L 75.02,16.95 C 75.48,13.61 73.95,12.25 70.71,11.79 L 48.83,9.39 C 45.01,8.85 44.23,11.12 43.61,14.46 L 41.84,28.53 C 39.78,27.91 37.49,28.45 34.12,30.23 Z" fill="url(#paint6_linear_57_39)" stroke="#004272" stroke-width="3" stroke-linecap="round" stroke-linejoin="round"/>
<path d="M 33.97,33.26 C 31.72,35.42 32.91,37.21 34.77,37.36 C 38.14,37.66 39.78,35.42 39.93,34.07 C 40.24,31.82 36.27,31.04 33.97,33.26 Z" fill="#3896FF"/>
<path d="M 57.96,37.16 C 56.11,39.63 57.65,41.41 59.51,41.56 C 62.87,41.87 64.51,39.63 64.66,38.27 C 64.97,36.01 60.16,34.23 57.96,37.16 Z" fill="#3896FF"/>
<path d="M 187.24,8.77 L 189.61,13.84 L 194.04,15.27 L 189.01,19.01 L 187.59,21.99 L 186.66,21.37 L 184.87,17.02 L 180.75,15.27 L 185.48,12.6 L 187.24,8.77 Z" fill="#F09996" stroke="#F09996" stroke-width="2" stroke-linecap="round" stroke-linejoin="round"/>
<path d="M 232.28,27.91 L 234.26,33.14 L 238.31,35.12 L 233.58,37.86 L 232.28,42.21 L 229.91,37.16 L 224.88,35.12 L 229.91,32.75 L 232.28,27.91 Z" fill="#57A1E2" stroke="#57A1E2" stroke-width="2" stroke-linecap="round" stroke-linejoin="round"/>
<path d="M 15.12,42.71 L 17.49,48.37 L 22.83,51.27 L 17.18,54.18 L 14.81,59.83 L 12.44,53.56 L 7.41,50.96 L 13.07,47.4 L 15.12,42.71 Z" fill="#96C7ED" stroke="#5197CB" stroke-width="2" stroke-linecap="round" stroke-linejoin="round"/>
<path d="M 43.38,112.33 L 45.75,117.98 L 49.57,119.41 L 44.54,123.15 L 43.12,126.1 L 40.13,120.45 L 36.31,118.41 L 41.65,115.74 L 43.38,112.33 Z" fill="#88E2A6" stroke="#88E2A6" stroke-width="2" stroke-linecap="round" stroke-linejoin="round"/>
<path d="M 63.98,55.31 L 65.74,60.65 L 69.49,64.39 L 72.48,65.24 L 66.82,68.43 L 63.98,74.69 L 62.22,68.43 L 55.36,65.24 L 60.7,63.12 L 63.98,55.31 Z" fill="#F9D77D" stroke="#B78335" stroke-width="3" stroke-linecap="round" stroke-linejoin="round"/>
<path d="M 27.11,67.84 L 32.14,87.14 C 27.72,86.28 23.29,88.75 22.13,92.87 C 20.06,100.29 26.1,103.82 31.72,102.46 C 37.49,101.02 38.83,96.68 37.22,89.81 L 33.66,74.88 C 37.72,75.81 43.92,75.81 45.87,71.47 C 47.22,68.27 46.14,66.08 44.23,67.22 C 39.81,69.77 36.08,64.77 30.15,64.77 C 27.72,64.77 26.56,65.86 27.11,67.84 Z" fill="url(#paint7_linear_57_39)" stroke="#B78335" stroke-width="3" stroke-linecap="round" stroke-linejoin="round"/>
<defs>
<linearGradient id="paint0_linear_57_39" x1="125.043" y1="195.906" x2="125.043" y2="220.66" gradientUnits="userSpaceOnUse">
<stop stop-color="#0052CC"/>
<stop offset="1" stop-color="#51A0EA"/>
</linearGradient>
<linearGradient id="paint1_linear_57_39" x1="123.407" y1="200.188" x2="123.407" y2="218.101" gradientUnits="userSpaceOnUse">
<stop stop-color="#0052CC"/>
<stop offset="1" stop-color="#51A0EA"/>
</linearGradient>
<linearGradient id="paint2_linear_57_39" x1="128.151" y1="84.1094" x2="128.151" y2="197.16" gradientUnits="userSpaceOnUse">
<stop stop-color="#0052CC"/>
<stop offset="1" stop-color="#51A0EA"/>
</linearGradient>
<linearGradient id="paint3_linear_57_39" x1="129.041" y1="10.8398" x2="129.041" y2="176.633" gradientUnits="userSpaceOnUse">
<stop stop-color="#96C7ED"/>
<stop offset="1" stop-color="#88BCE6"/>
</linearGradient>
<linearGradient id="paint4_linear_57_39" x1="128.501" y1="85.2383" x2="128.501" y2="121.601" gradientUnits="userSpaceOnUse">
<stop stop-color="#C5F2D2"/>
<stop offset="1" stop-color="#88E2A6"/>
</linearGradient>
<linearGradient id="paint5_linear_57_39" x1="224.801" y1="53.375" x2="224.801" y2="90.4297" gradientUnits="userSpaceOnUse">
<stop stop-color="#88E2A6"/>
<stop offset="1" stop-color="#48C781"/>
</linearGradient>
<linearGradient id="paint6_linear_57_39" x1="54.3281" y1="9.27734" x2="54.3281" y2="48.1562" gradientUnits="userSpaceOnUse">
<stop stop-color="#0052CC"/>
<stop offset="1" stop-color="#266DE6"/>
</linearGradient>
<linearGradient id="paint7_linear_57_39" x1="32.9542" y1="64.7656" x2="32.9542" y2="102.863" gradientUnits="userSpaceOnUse">
<stop stop-color="#F0B936"/>
<stop offset="1" stop-color="#F8D964"/>
</linearGradient>
</defs>
</svg>