<svg xmlns="http://www.w3.org/2000/svg" width="250" height="250" viewBox="0 0 250 250" fill="none">
    <!-- ========================================== -->
    <!-- BACKGROUND CANVAS                          -->
    <!-- ========================================== -->

    <!-- ========================================== -->
    <!-- BOY CHARACTER: SHIRT & BODY                -->
    <!-- ========================================== -->
    <!-- Left Arm / Shoulder -->
    <path d="M 80.71,183.91 C 72.69,194.71 63.09,212.75 75.23,219.85 C 85.31,226.09 89.38,224.47 89.38,224.47 L 90.66,202.51 L 80.71,183.91 Z" fill="#5D7085" stroke="#0B394A" stroke-width="1.5" stroke-linecap="round" stroke-linejoin="round"/>
    <!-- Right Arm / Shoulder -->
    <path d="M 177.11,183.91 C 184.19,194.71 187.51,206.94 185.15,212.89 C 191 C 184.19,194.71 187.51,206.94 185.15,212.89 C 182.21,220.41 173.46,224.47 173.46,224.47 L 170.48,206.23 L 177.11,183.91 Z" fill="#5D7085" stroke="#0B394A" stroke-width="1.5" stroke-linecap="round" stroke-linejoin="round"/>
    <!-- Back of Shirt / Torso -->
    <path d="M 80.68,179.08 C 87.13,168.76 94.94,158.17 104.99,155.37 H 151.21 C 159.03,158.69 168.82,170.22 173.97,178.76 L 171.91,180.12 L 83.19,180.03 L 80.68,179.08 Z" fill="#495E76" stroke="#0B394A" stroke-width="1.5" stroke-linecap="round" stroke-linejoin="round"/>
    <!-- Neck -->
    <path d="M 117.07,159.82 C 118.99,165.34 123.72,166.66 127.96,166.57 C 132.91,166.46 137.09,164.79 139.06,159.21 L 137.13,158.69 H 118.73 L 117.07,159.82 Z" fill="#F9C2A7" stroke="#0B394A" stroke-width="1.5" stroke-linecap="round" stroke-linejoin="round"/>

    <!-- ========================================== -->
    <!-- BOY CHARACTER: HEAD & FACE BASE            -->
    <!-- ========================================== -->
    <!-- Hair Base -->
    <path d="M 173.88,119.94 C 178.91,113.86 179.19,91.07 162.91,79.91 C 159.76,77.74 157.43,77.09 155.26,76.42 L 159.11,74.6 C 159.56,71.13 152.21,71.13 147.88,73.95 C 146.12,69.71 143.02,66.24 140.09,66.24 C 138.91,67.16 139.82,70.41 141.13,71.99 C 133.61,69.39 123.06,68.11 111.81,70.33 C 102.64,72.81 96.01,77.18 91.28,82.89 C 84.65,89.78 80.31,93.91 74.14,95.84 C 73.87,98.06 78.37,98.73 81.93,97.68 C 75.76,104.13 74.22,112.11 74.89,117.82 L 78.45,115.01 L 80.31,123.91 L 83.42,123.46 L 86.98,126.85 L 94.15,114.08 V 119.71 C 99.92,117.02 105.77,106.22 106.61,103.41 C 109.21,112.31 117.81,119.03 128.45,119.03 V 113.32 C 132.79,117.11 137.82,118.39 140.75,117.82 C 139.71,115.34 138.67,111.21 138.67,108.31 C 145.93,114.39 154.04,118.94 163.91,119.71 L 167.47,128.61 L 171.81,121.27 L 173.88,119.94 Z" fill="#5A4A4B" stroke="#0B394A" stroke-width="1.5" stroke-linecap="round" stroke-linejoin="round"/>
    <!-- Right Ear -->
    <path d="M 171.81,123.91 C 177.58,123.18 179.75,128.71 178.36,134.15 C 176.51,141.67 167.16,144.36 164.47,141.21 L 166.98,127.02 C 168.16,125.35 169.61,124.22 171.81,123.91 Z" fill="#F9C2A7" stroke="#0B394A" stroke-width="1.5" stroke-linecap="round" stroke-linejoin="round"/>
    <!-- Left Ear -->
    <path d="M 83.14,123.64 C 77.73,124.31 75.97,131.03 77.42,135.76 C 79.18,141.38 85.72,143.98 90.45,142.04 L 90.1,128.02 C 88.65,125.33 86.72,123.28 83.14,123.64 Z" fill="#F9C2A7" stroke="#0B394A" stroke-width="1.5" stroke-linecap="round" stroke-linejoin="round"/>
    <!-- Right Cheek Blush -->
    <path d="M 167.92,135.1 C 169.19,131.95 170.23,127.11 173.16,127.93 C 176.18,128.76 175.73,133.79 172.71,136.38 C 170.48,138.32 167.16,138.23 167.92,135.1 Z" fill="#E58876"/>
    <!-- Left Cheek Blush -->
    <path d="M 82.79,131.06 C 83.46,128.75 85.72,128.29 87.26,130.13 C 88.89,132.27 89.06,135.32 88.15,136.6 C 86.98,137.64 81.84,134.65 82.79,131.06 Z" fill="#E58876"/>
    <!-- Face Base Outline -->
    <path d="M 164.92,136.94 C 160.19,148.38 150.05,158.69 128.62,159.73 C 107.64,160.49 96.18,153.24 90.19,137.03 L 88.74,126.89 L 93.97,114.03 L 94.92,119.66 C 98.12,118.08 105.47,108.21 106.51,103.77 C 109.29,112.13 116.81,118.86 128.27,119.04 V 113.32 C 132.03,116.71 137.07,118.21 140.92,117.76 C 139.75,115.37 138.81,112.13 138.36,108.22 C 144.99,114.13 153.92,119.04 163.96,119.71 L 166.98,127.23 L 164.92,136.94 Z" fill="#F9C2A7" stroke="#0B394A" stroke-width="1.5" stroke-linecap="round" stroke-linejoin="round"/>
    
    <!-- ========================================== -->
    <!-- BOY CHARACTER: FACIAL FEATURES             -->
    <!-- ========================================== -->
    <!-- Left Eye (White Base) -->
    <path d="M 107.61,121.64 H 108.37 C 115.09,121.64 117.16,126.62 116.71,132.15 C 116.26,137.68 113.16,140.68 107.39,140.68 H 107.12 C 100.67,140.68 97.98,135.85 97.98,131.4 C 97.98,126.13 102.07,121.64 107.61,121.64 Z" fill="#FEFFFE" stroke="#0B394A" stroke-width="1.5" stroke-linecap="round" stroke-linejoin="round"/>
    <!-- Right Eye (White Base) -->
    <path d="M 147.38,121.64 H 148.14 C 154.86,121.64 157.88,126.38 157.43,131.91 C 156.98,137.44 153.13,140.68 147.88,140.68 H 147.34 C 141.35,140.68 138.25,136.94 138.25,131.91 C 138.25,125.92 141.53,121.64 147.38,121.64 Z" fill="#FEFFFE" stroke="#0B394A" stroke-width="1.5" stroke-linecap="round" stroke-linejoin="round"/>
    <!-- Left Pupil -->
    <path d="M 108.91,127.31 H 109.36 C 113.43,127.31 115.18,130.22 114.82,133.6 C 114.47,136.69 112.22,138.62 108.91,138.62 C 105.35,138.62 103.68,135.81 103.68,133.12 C 103.68,129.97 106.02,127.31 108.91,127.31 Z" fill="#0B394A"/>
    <!-- Right Pupil -->
    <path d="M 146.62,127.31 H 147.07 C 150.63,127.31 152.71,130.01 152.44,133.25 C 152.17,136.31 149.83,138.35 146.81,138.35 C 143.25,138.35 141.26,135.76 141.26,132.85 C 141.26,129.79 143.72,127.31 146.62,127.31 Z" fill="#0B394A"/>
    <!-- Nose -->
    <path d="M 125.67,137.61 L 127.69,136.94 L 128.87,137.61 V 138.98 L 127.11,139.43 L 125.36,138.98 L 125.67,137.61 Z" fill="#E58876"/>
    <!-- Mouth (Frown) -->
    <path d="M 123.07,149.73 C 125.09,147.88 129.73,147.06 132.24,149.38" stroke="#0B394A" stroke-width="1.5" stroke-linecap="round" stroke-linejoin="round"/>
    <!-- Right Inner Ear Detail -->
    <path d="M 153.96,140.41 H 154.51 C 158.76,140.41 159.71,143.88 158.67,146.2 C 157.04,149.95 153.94,150.86 150.92,150.51 C 146.77,150.06 145.23,147.75 145.58,145.26 C 146.03,142.21 149.36,140.41 153.96,140.41 Z" fill="#F08E7D"/>
    <!-- Left Inner Ear Detail -->
    <path d="M 103.91,140.68 H 104.75 C 109.88,140.68 110.15,144.34 109.53,147.15 C 108.77,150.11 105.12,150.94 102.02,150.4 C 98.72,149.73 96.96,147.66 97.14,144.76 C 97.32,141.62 99.17,140.68 103.91,140.68 Z" fill="#F08E7D"/>
    <!-- Right Hand / Fingers on Laptop -->
    <path d="M 154.22,173.41 L 155.4,177.45" stroke="#0B394A" stroke-width="1.5" stroke-linecap="round" stroke-linejoin="round"/>
    <!-- Left Hand / Fingers on Laptop -->
    <path d="M 102.73,172.85 L 101.28,177.22" stroke="#0B394A" stroke-width="1.5" stroke-linecap="round" stroke-linejoin="round"/>

    <!-- ========================================== -->
    <!-- LAPTOP                                     -->
    <!-- ========================================== -->
    <!-- Laptop Bottom Edge / Base -->
    <path d="M 168.59,243.69 H 88.21 C 85.61,243.69 84.66,241.11 85.11,239.17 L 85.78,237.13 H 171.52 L 171.87,238.81 C 172.42,241.02 171.25,243.69 168.59,243.69 Z" fill="#7BB8E0" stroke="#0B394A" stroke-width="1.5" stroke-linecap="round" stroke-linejoin="round"/>
    <!-- Laptop Screen / Main Body -->
    <path d="M 174.42,178.76 H 81.12 C 78.34,178.76 76.67,181.24 77.03,183.82 L 83.37,234.98 C 83.64,237.11 85.28,238.72 87.62,238.72 H 167.92 C 170.43,238.72 172.18,236.96 172.44,234.57 L 178.88,184.09 C 179.24,181.15 177.48,178.76 174.42,178.76 Z" fill="#96CBED" stroke="#0B394A" stroke-width="1.5" stroke-linecap="round" stroke-linejoin="round"/>
    <!-- Boy & Laptop Shadow -->
    <path opacity="0.1" d="M 79.96,201.08 C 86.13,213.18 98.07,226.04 128.97,231.66 C 137.26,233.24 159.62,233.91 170.91,232.97 L 170.46,236.12 C 169.89,238.06 168.72,238.41 165.78,238.41 L 88.12,238.23 C 85.96,238.06 84.42,236.78 83.97,233.96 L 79.96,201.08 Z" fill="#0B394A"/>
    <!-- Apple Logo on Laptop Cover -->
    <path opacity="0.7" d="M 132.78,211.62 C 132.76,211.66 132.04,213.81 130.47,215.61 C 129.32,216.94 128.12,217.01 127.36,216.68 C 126.52,216.31 125.78,216.28 124.72,216.62 C 123.72,216.96 122.61,216.81 121.68,215.56 C 120.01,213.21 119.59,210.57 120.42,207.91 C 121.08,205.93 122.91,204.61 124.76,204.71 C 125.72,204.77 126.51,205.31 127.28,205.34 C 128.08,205.31 129.18,204.51 130.53,204.66 C 131.63,204.79 132.56,205.38 133.24,206.37 C 131.72,207.41 131.02,209.42 132.78,211.62 Z M 128.82,203.75 C 129.49,202.81 130.69,202.06 131.31,201.93 C 131.46,203.06 130.99,204.28 130.34,205.15 C 129.65,206.06 128.51,206.81 127.51,206.72 C 127.32,205.56 128.05,204.46 128.82,203.75 Z" fill="#FEFFFE"/>

    <!-- ========================================== -->
    <!-- BOY CHARACTER: HAIR HIGHLIGHT (ON TOP)     -->
    <!-- ========================================== -->
    <!-- Sheen / Highlight on the Boy's Hair -->
    <path opacity="0.7" d="M 163.96,113.06 C 170.22,113.72 172.99,110.16 172.9,104.45 C 172.81,99.91 171.05,94.84 168.98,91.2 C 174.02,96.47 177.76,104.72 176.68,113.06 C 176.01,118.33 174.61,121.81 172.26,123.56 L 168.01,128.62 L 165.17,120.06 L 163.96,113.06 Z" fill="#6A6261"/>

    <!-- ========================================== -->
    <!-- RAIN CLOUD FLOATING OBJECT                 -->
    <!-- ========================================== -->
    <!-- Main Cloud Base -->
    <path d="M 178.92,25.19 C 179.83,20.01 183.77,17.01 188.91,17.19 C 192.02,11.02 196.27,7.78 203.88,7.78 C 209.21,7.78 212.77,10.47 215.37,13.94 C 223.72,12.91 230.98,17.7 233.15,26.6 C 239.96,26.6 243.16,29.51 243.16,35.68 C 243.16,42.13 237.92,44.61 232.16,44.16 H 228.6 C 224.62,47.21 217.63,48.97 210.11,45.83 C 203.48,49.62 195.04,48.79 187.87,44.52 C 181.24,47.33 167.72,47.33 167.72,36.53 C 167.72,30.08 172.22,25.19 178.92,25.19 Z" fill="#8BA6B1" stroke="#0B394A" stroke-width="1.5" stroke-linecap="round" stroke-linejoin="round"/>
    <!-- Cloud Highlight Detail (Right) -->
    <path d="M 223.99,17.61 C 227.64,17.35 230.42,19.94 231.19,23.32" stroke="#D3E3E7" stroke-width="2.5" stroke-linecap="round" stroke-linejoin="round"/>
    <!-- Cloud Highlight Detail (Left) -->
    <path d="M 200.13,10.47 C 196.66,10.93 194.15,12.96 193.21,15.35" stroke="#D3E3E7" stroke-width="2.5" stroke-linecap="round" stroke-linejoin="round"/>
    <!-- Cloud Eye (Left) -->
    <path d="M 200.13,27.64 H 200.67 C 202.21,27.64 202.66,28.83 202.57,29.91 C 202.48,31.14 201.63,31.91 200.31,31.91 C 198.86,31.91 198.28,30.73 198.28,29.6 C 198.28,28.46 199.13,27.64 200.13,27.64 Z" fill="#0B394A"/>
    <!-- Cloud Eye (Right) -->
    <path d="M 216.91,27.64 H 217.36 C 218.72,27.64 219.44,28.67 219.35,29.82 C 219.26,30.96 218.32,31.78 217.18,31.78 C 215.82,31.78 215.06,30.74 215.06,29.6 C 215.06,28.55 215.91,27.64 216.91,27.64 Z" fill="#0B394A"/>
    <!-- Cloud Mouth (Frown) -->
    <path d="M 205.91,35.22 C 207.08,33.17 210.38,31.68 212.13,34.83" stroke="#0B394A" stroke-width="1.5" stroke-linecap="round" stroke-linejoin="round"/>
    
    <!-- Raindrops falling from the Cloud -->
    <path d="M 219.17,53.63 L 219.93,56.87" stroke="#6A9FAD" stroke-width="2" stroke-linecap="round" stroke-linejoin="round"/>
    <path d="M 201.98,53.9 L 201.22,57.94" stroke="#6A9FAD" stroke-width="2" stroke-linecap="round" stroke-linejoin="round"/>
    <path d="M 209.76,63.95 L 211.52,69.3" stroke="#6A9FAD" stroke-width="2" stroke-linecap="round" stroke-linejoin="round"/>
    <path d="M 224.66,66.17 L 226.42,71.05" stroke="#6A9FAD" stroke-width="2" stroke-linecap="round" stroke-linejoin="round"/>
    <path d="M 235.03,66.17 L 236.11,69.3" stroke="#6A9FAD" stroke-width="2" stroke-linecap="round" stroke-linejoin="round"/>
    <path d="M 230.42,53.27 L 232.68,57.94" stroke="#6A9FAD" stroke-width="2" stroke-linecap="round" stroke-linejoin="round"/>
    <path d="M 193.97,61.14 L 194.92,58.92" stroke="#6A9FAD" stroke-width="2" stroke-linecap="round" stroke-linejoin="round"/>
    <path d="M 184.27,63.36 L 185.12,66.83" stroke="#6A9FAD" stroke-width="2" stroke-linecap="round" stroke-linejoin="round"/>
    <path d="M 181.33,52.45 L 180.48,53.36 L 181.66,57.94" stroke="#6A9FAD" stroke-width="2" stroke-linecap="round" stroke-linejoin="round"/>
    <path d="M 190.32,79.91 L 190.77,79.08 L 194.15,78.42" stroke="#6A9FAD" stroke-width="2" stroke-linecap="round" stroke-linejoin="round"/>
    <path d="M 197.49,68.76 L 199.03,74.6" stroke="#6A9FAD" stroke-width="2" stroke-linecap="round" stroke-linejoin="round"/>
    <path d="M 213.73,75.64 L 214.27,77.85" stroke="#6A9FAD" stroke-width="2" stroke-linecap="round" stroke-linejoin="round"/>
    <path d="M 204.47,82.96 V 85.18" stroke="#6A9FAD" stroke-width="2" stroke-linecap="round" stroke-linejoin="round"/>
    <path d="M 230.15,80.57 L 231.01,83.53" stroke="#6A9FAD" stroke-width="2" stroke-linecap="round" stroke-linejoin="round"/>

    <!-- ========================================== -->
    <!-- YARN BALL FLOATING OBJECT                  -->
    <!-- ========================================== -->
    <!-- Loose Yarn Thread hanging out -->
    <path d="M 110.06,45.07 C 113.36,46.65 116.47,46.1 119.07,46.92 C 122.92,48.19 125.85,52.83 121.03,56.4 L 120.27,56.96" stroke="#0B394A" stroke-width="1.5" stroke-linecap="round" stroke-linejoin="round"/>
    <!-- Another Loose Yarn Thread -->
    <path d="M 117.92,36.17 C 121.77,38.98 126.81,38.71 129.42,36.12 C 132.02,33.64 133.29,30.73 133.56,27.26" stroke="#0B394A" stroke-width="1.5" stroke-linecap="round" stroke-linejoin="round"/>
    <!-- Yarn Ball Main Base Shape -->
    <path d="M 104.09,6.61 C 93.08,7.16 83.73,17.03 83.73,27.92 C 83.73,38.23 91.33,46.74 102.16,46.74 C 113.41,46.74 121.42,36.26 121.42,25.01 C 121.42,14.53 113.72,6.12 104.09,6.61 Z" fill="#93A8B0" stroke="#0B394A" stroke-width="1.5" stroke-linecap="round" stroke-linejoin="round"/>
    
    <!-- Individual threads mapped on the Yarn Ball -->
    <path d="M 102.64,7.43 C 96.19,10.13 94.74,18.68 96.91,26.02 C 98.21,30.73 99.97,34.47 102.04,36.7" stroke="#0B394A" stroke-width="1.5" stroke-linecap="round" stroke-linejoin="round"/>
    <path d="M 100.93,8.92 C 104.49,7.07 111.21,7.99 116.81,10.81" stroke="#0B394A" stroke-width="1.5" stroke-linecap="round" stroke-linejoin="round"/>
    <path d="M 120.38,15.17 C 114.22,14.03 105.06,15.97 100.81,22.11" stroke="#0B394A" stroke-width="1.5" stroke-linecap="round" stroke-linejoin="round"/>
    <path d="M 120.73,17.76 C 117.26,24.21 108.19,33.02 97.36,35.06" stroke="#0B394A" stroke-width="1.5" stroke-linecap="round" stroke-linejoin="round"/>
    <path d="M 117.17,12.22 C 118.02,13.36 119.06,15.03 119.62,16.48" stroke="#0B394A" stroke-width="1.5" stroke-linecap="round" stroke-linejoin="round"/>
    <path d="M 90.18,15.62 L 91.22,16.06" stroke="#0B394A" stroke-width="1.5" stroke-linecap="round" stroke-linejoin="round"/>
    <path d="M 86.11,20.5 L 92.19,20.23" stroke="#0B394A" stroke-width="1.5" stroke-linecap="round" stroke-linejoin="round"/>
    <path d="M 84.57,24.96 L 93.37,23.6" stroke="#0B394A" stroke-width="1.5" stroke-linecap="round" stroke-linejoin="round"/>
    <path d="M 84.22,28.81 L 93.72,27.05" stroke="#0B394A" stroke-width="1.5" stroke-linecap="round" stroke-linejoin="round"/>
    <path d="M 84.75,33.09 L 95.12,30.27" stroke="#0B394A" stroke-width="1.5" stroke-linecap="round" stroke-linejoin="round"/>
    <path d="M 86.11,36.74 L 97.11,35.61" stroke="#0B394A" stroke-width="1.5" stroke-linecap="round" stroke-linejoin="round"/>
    <path d="M 88.62,39.7 L 96.81,37.65" stroke="#0B394A" stroke-width="1.5" stroke-linecap="round" stroke-linejoin="round"/>
    <path d="M 92.69,43.26 L 102.33,39.7" stroke="#0B394A" stroke-width="1.5" stroke-linecap="round" stroke-linejoin="round"/>

    <!-- ========================================== -->
    <!-- REJECTED STAMP FLOATING OBJECT             -->
    <!-- ========================================== -->
    <!-- Stamp Handle -->
    <path d="M 17.59,81.09 L 29.82,73.2 C 34.86,70.05 33.11,64.25 28.47,60.92 C 23.53,57.45 22.08,52.01 26.24,46.65 C 29.17,43.01 33.33,43.77 34.95,44.34 C 39.68,45.83 41.13,50.01 40.58,56.05 C 40.13,60.59 40.67,64.43 44.82,67.48 L 56.17,62.79 C 60.15,61.03 63.62,62.16 65.07,66.01 L 66.61,66.83 L 68.37,76.06 C 68.72,77.91 68.28,79.27 66.03,80.31 L 28.64,97.41 C 24.22,97.05 18.77,88.98 17.59,81.09 Z" fill="#B55455" stroke="#0B394A" stroke-width="1.5" stroke-linecap="round" stroke-linejoin="round"/>
    <!-- Stamp Handle Shadow & Base Detail -->
    <path d="M 18.44,81.76 L 58.92,64.12 C 61.94,62.84 64.28,63.02 65.64,65.06 L 66.72,66.01 L 64.02,65.19 L 20.29,82.53 L 27.72,95.03 L 27.17,96.48 C 23.32,95.03 19.08,87.78 18.44,81.76 Z" fill="#89393A"/>
    <!-- Stamp Top Wooden Block Face -->
    <path d="M 26.82,53.54 C 26.82,49.51 29.08,46.13 31.25,46.79 C 32.61,47.24 30.19,49.09 29.43,51.13 C 28.67,53.18 29.12,55.12 28.27,55.47 C 27.33,55.83 26.82,54.81 26.82,53.54 Z" fill="#CC797A"/>
    <!-- Stamp Bottom Wooden Block Edge -->
    <path d="M 34.02,67.04 C 33.07,63.7 31.09,61.76 29.12,60.09 C 32.77,61.94 35.97,64.75 36.06,67.44 C 36.15,70.35 33.71,72.39 31.11,73.52 C 32.77,72.25 34.74,69.77 34.02,67.04 Z" fill="#A5484A"/>

    <!-- ========================================== -->
    <!-- VACANCY SIGN FLOATING OBJECT               -->
    <!-- ========================================== -->
    <!-- Vacancy Sign Main Board Shape -->
    <path d="M 24.04,127.11 L 24.61,125.16 C 25.28,123.71 27.78,124.48 27.61,126.15 L 27.16,127.91 L 39.95,138.71 L 45.18,137.76 C 47.78,137.41 48.54,139.08 48.81,141.12 L 50.97,161.01 C 51.24,163.32 50.11,164.68 47.76,164.77 L 13.11,169.22 C 10.76,169.58 9.82,168.44 9.64,166.13 L 7.29,146.68 C 7.11,144.46 8.77,142.42 10.94,141.76 L 16.51,139.91 L 24.04,127.11 Z" fill="#B7E1D8" stroke="#0B394A" stroke-width="1.5" stroke-linecap="round" stroke-linejoin="round"/>
    <!-- Vacancy Sign Inner Shadow/Highlight Edge -->
    <path d="M 24.74,127.66 C 24.48,126.43 25.15,125.39 26.09,125.39 C 27.04,125.39 27.61,126.21 27.44,127.15 C 27.17,128.38 26.32,128.94 25.65,128.76 C 25.06,128.6 24.88,128.29 24.74,127.66 Z" fill="#96CBCC" stroke="#0B394A" stroke-width="1.5" stroke-linecap="round" stroke-linejoin="round"/>
    
    <!-- Individual letters for "VACANCY" written on the sign -->
    <path d="M 14.05,160.07 L 15.06,159.89 L 16.78,163.83 L 18.06,159.31 L 19.03,159.13 L 17.21,165.16 L 16.23,165.35 L 14.05,160.07 Z" fill="#0B394A"/> <!-- Letter V -->
    <path d="M 20.81,158.81 L 21.79,158.62 L 24.61,163.81 L 23.62,164 L 22.77,162.27 L 20.61,162.7 L 20.28,164.61 L 19.32,164.81 L 20.81,158.81 Z M 22.42,161.51 L 21.21,159.02 L 20.69,161.84 L 22.42,161.51 Z" fill="#0B394A"/> <!-- Letter A -->
    <path d="M 24.11,161.01 C 23.71,159.12 24.61,157.72 26.32,157.41 C 27.04,157.27 27.71,157.38 28.27,157.7 L 27.96,158.44 C 27.48,158.16 26.92,158.06 26.39,158.18 C 25.16,158.46 24.71,159.56 25.02,160.84 C 25.34,162.16 26.37,162.88 27.61,162.61 C 28.21,162.47 28.71,162.09 29.03,161.51 L 29.71,162 C 29.28,162.78 28.51,163.32 27.66,163.5 C 25.91,163.88 24.52,162.88 24.11,161.01 Z" fill="#0B394A"/> <!-- Letter C -->
    <path d="M 30.62,156.81 L 31.61,156.62 L 34.43,161.81 L 33.44,162 L 32.59,160.27 L 30.42,160.7 L 30.09,162.61 L 29.13,162.81 L 30.62,156.81 Z M 32.23,159.51 L 31.02,157.02 L 30.5,159.84 L 32.23,159.51 Z" fill="#0B394A"/> <!-- Letter A -->
    <path d="M 33.72,156.21 L 34.62,156.01 L 38.18,159.89 L 37.28,155.51 L 38.13,155.33 L 39.35,161.23 L 38.59,161.39 L 34.88,157.32 L 35.83,161.86 L 34.97,162.04 L 33.72,156.21 Z" fill="#0B394A"/> <!-- Letter N -->
    <path d="M 39.52,158.31 C 39.12,156.42 40.02,155.02 41.73,154.71 C 42.45,154.57 43.12,154.68 43.68,155 L 43.37,155.74 C 42.89,155.46 42.33,155.36 41.8,155.48 C 40.57,155.76 40.12,156.86 40.43,158.14 C 40.75,159.46 41.78,160.18 43.02,159.91 C 43.62,159.77 44.12,159.39 44.44,158.81 L 45.12,159.3 C 44.69,160.08 43.92,160.62 43.07,160.8 C 41.32,161.18 39.93,160.18 39.52,158.31 Z" fill="#0B394A"/> <!-- Letter C -->
    <path d="M 46.38,157.61 L 44.03,154.28 L 45.02,154.07 L 46.82,156.76 L 47.91,153.53 L 48.86,153.32 L 47.32,157.46 L 47.77,159.63 L 46.87,159.84 L 46.38,157.61 Z" fill="#0B394A"/> <!-- Letter Y -->
    
    <!-- Facial features drawn on the Vacancy Sign -->
    <path d="M 20.76,149.06 L 21.12,148.24 C 21.88,147.01 23.95,147.1 24.4,148.6 C 24.95,150.45 23.41,151.68 22.15,151.41 C 21.03,151.15 20.48,150.11 20.76,149.06 Z" fill="#0B394A"/> <!-- Left Eye -->
    <path d="M 32.99,151.1 C 32.23,149.73 30.06,149.38 28.62,150.96" stroke="#0B394A" stroke-width="1.5" stroke-linecap="round" stroke-linejoin="round"/> <!-- Sad Mouth (Frown) -->
    <path d="M 33.26,147.72 C 33.44,146.14 34.7,144.82 35.83,144.91 C 37.28,145 37.73,146.14 37.55,147.27 C 37.28,148.76 35.83,149.33 34.79,149.06 C 33.75,148.71 33.21,148.15 33.26,147.72 Z" fill="#0B394A"/> <!-- Right Eye -->
    <path opacity="0.3" d="M 36.51,148.76 C 36.96,147.94 38.71,146.99 39.75,147.35 C 40.79,147.71 41.06,148.62 40.71,149.51 C 40.15,150.83 38.29,150.92 37.44,150.46 C 36.51,149.91 36.24,149.33 36.51,148.76 Z" fill="#B87A77"/> <!-- Cheek Blush -->

    <!-- ========================================== -->
    <!-- TEXT ON REJECTED STAMP ("REJECTED")        -->
    <!-- ========================================== -->
    <!-- Hand-drawn style letters -->
    <path d="M 24.5,85.0 L 27.0,91.0 M 24.5,85.0 C 28.5,83.0 29.5,86.5 26.0,88.0 M 26.0,88.0 L 29.5,91.5" stroke="#0B394A" stroke-width="1.5" stroke-linecap="round" stroke-linejoin="round"/> <!-- Letter R -->
    <path d="M 30.0,83.0 L 32.5,89.0 L 35.5,87.8 M 30.0,83.0 L 33.0,81.8 M 31.2,86.0 L 34.2,84.8" stroke="#0B394A" stroke-width="1.5" stroke-linecap="round" stroke-linejoin="round"/> <!-- Letter E -->
    <path d="M 34.0,81.4 L 38.0,79.8 M 36.5,80.4 L 39.0,86.4 C 39.3,87.5 37.5,88.0 36.0,87.0" stroke="#0B394A" stroke-width="1.5" stroke-linecap="round" stroke-linejoin="round"/> <!-- Letter J -->
    <path d="M 40.0,79.0 L 42.5,85.0 L 45.5,83.8 M 40.0,79.0 L 43.0,77.8 M 41.2,82.0 L 44.2,80.8" stroke="#0B394A" stroke-width="1.5" stroke-linecap="round" stroke-linejoin="round"/> <!-- Letter E -->
    <path d="M 47.5,76.0 C 43.5,75.0 44.5,82.0 49.5,81.0" stroke="#0B394A" stroke-width="1.5" stroke-linecap="round" stroke-linejoin="round"/> <!-- Letter C -->
    <path d="M 49.0,75.4 L 54.0,73.4 M 51.5,74.4 L 54.0,80.4" stroke="#0B394A" stroke-width="1.5" stroke-linecap="round" stroke-linejoin="round"/> <!-- Letter T -->
    <path d="M 55.0,73.0 L 57.5,79.0 L 60.5,77.8 M 55.0,73.0 L 58.0,71.8 M 56.2,76.0 L 59.2,74.8" stroke="#0B394A" stroke-width="1.5" stroke-linecap="round" stroke-linejoin="round"/> <!-- Letter E -->
    <path d="M 60.0,71.0 L 62.5,77.0 M 60.0,71.0 C 64.0,69.5 66.0,75.5 62.5,77.0" stroke="#0B394A" stroke-width="1.5" stroke-linecap="round" stroke-linejoin="round"/> <!-- Letter D -->
</svg>