<svg xmlns="http://www.w3.org/2000/svg" width="250" height="250" fill="none" viewBox="0 0 250 250">
  <path d="m175.9 76.73c-34.24 0-58.63 18.4-63.96 44.58-5.21 25.51 9.19 55.47 44.11 65.88 12.58 2.77 21.7 3.38 33.73 1.24 1.43-0.27 1.65 0.64 2.66 1.43 6.57 5.35 12.7 9.43 20.89 10.11 6.7 0.57 8.36-5.2 6.7-8.51-1.88-3.92-3.2-9.35-0.92-12.52 1.09-1.56 2.97-2.38 4.42-3.62 13.4-10.67 20.23-22.36 20.23-41.07 0-31.01-27.52-57.52-67.86-57.52z" fill="url(#paint0_linear_163_11917)"/>
  <path d="m175.4 80.93c-32.46 0-55.53 17.25-60.53 41.9-4.91 23.95 8.59 52.03 41.47 61.02 11.83 3.01 20.43 3.26 31.8 1.25 1.34-0.25 2.73-0.44 3.68 0.59 5.91 5.43 11.92 9.97 19.85 11.14 5.34 0.98 6.04-1.95 4.59-5.71-1.34-3.71-3.14-11.16 0.61-14.91 1.34-1.45 3.06-2.69 4.41-3.86 12.55-9.96 18.65-20.54 18.65-37.87 0-28.94-25.79-53.55-64.53-53.55z" fill="url(#paint1_linear_163_11917)"/>
  <path d="m224.8 115.9c-1.29 0-2.28-0.9-2.87-2.08-5.05-10.02-12.05-13.89-22.13-16.67-1.9-0.55-2.4-1.91-1.99-3.09 0.5-1.46 1.9-1.68 2.89-1.41 10.57 3.05 20.23 9.26 26.08 19.51 1.4 2.6-0.13 3.74-1.98 3.74z" fill="#FEF2C4"/>
  <path d="m228.9 126.5c-2.01 0-2.47-1.81-2.47-3.09 0-1.72 0.9-2.76 2.3-2.76 1.63 0 2.49 1.45 2.49 2.85 0 1.54-0.95 3-2.32 3z" fill="#FEF2C4"/>
  <path d="m122.3 156.2c9.75-4.48 21.43-18.69 22.04-38.9l-9.2-25.55-7.27 1.54-9.85 14.13-4.12 19.01 2.01 18.73 6.39 11.04z" fill="#D38B35" opacity=".2"/>
  <path d="m167.4 118.6c5.59-0.35 8.8 3.3 9.7 4.92 0.69 1.28 1.59 0.43 2.11-0.18 2.83-3.13 7.45-4.31 11.99-3.08 6.79 1.94 7.69 9.39 6.61 14.86-1.89 9.91-15.72 19.63-22.72 21.95-4.03 1.34-18.2-11.91-19.96-20.94-1.49-7.93 2.79-17.1 12.27-17.53z" fill="#D38B35" opacity=".15"/>
  <path d="m166 116.8c5.59-0.35 8.8 3.3 9.7 4.92 0.69 1.28 1.59 0.43 2.11-0.18 2.83-3.13 7.45-4.31 11.99-3.08 6.79 1.94 8.5 8.42 7.43 14.86-1.63 10.33-15.8 19.68-22.8 21.43-3.33 0.86-17.94-11.45-19.7-21.78-1.49-7.93 2.45-15.67 11.27-16.17z" fill="url(#paint2_linear_163_11917)"/>
  <path d="m166 120.2c4.21 0 7.25 3.61 8.65 5.95 1.3 2.37 3.33 1.01 4.1-0.12 2.24-3.27 6.6-4.72 10.18-3.73 5.63 1.59 6.15 7.02 4.96 11.09-2.34 8.3-13.75 15.66-19.11 16.88-2.59 0.57-14.75-10.56-16.29-18.49-1.04-5.68 2.22-11.58 7.51-11.58z" fill="url(#paint3_linear_163_11917)"/>
  <path d="m73.81 55.02c-38.69 0-67.81 25.91-67.81 58.9 0 17.07 7.22 29.69 20.89 40.31 1.72 1.4 4.32 2.21 4.93 4.68 0.99 3.97-1.01 9.18-2.55 12.7-1.45 3.62 1.63 7.33 6.35 6.85 8.59-0.9 16.29-6.33 21.54-11.1 0.95-0.9 1.56-0.55 2.75-0.33 4.3 0.71 7.13 0.75 12.47 0.75 35.34 0 67.34-23.47 67.34-56.08 0-31.76-27.8-56.68-65.91-56.68z" fill="url(#paint4_linear_163_11917)" stroke="#87B3D8" stroke-miterlimit="10" stroke-width="3"/>
  <path d="m73.72 59.79c-36.56 0-63.99 25.14-63.99 53.82 0 15.33 7.61 28.05 20.2 36.81 2.19 1.54 4.48 2.67 5.29 5.65 1.19 4.41 0.09 10.3-1.9 14.38-1.29 2.89 0.87 4.52 3.79 4.04 8.1-1.37 13.77-5.95 19.63-10.58 1.85-1.54 3.21-1.19 4.97-0.85 3.67 0.72 5.95 0.67 10.71 0.67 33.39 0 63.65-22.57 63.65-52.6 0-29.12-26.24-51.34-62.35-51.34z" fill="url(#paint5_linear_163_11917)"/>
  <path d="m23.72 94.47c-1.67-1.35-1.58-3.41-0.5-5.21 6.79-11.18 14.49-15.3 24.7-18.78 2.19-0.81 3.09-0.3 3.61 1.19 0.62 1.85-1.01 3.52-2.59 4.05-10.12 3.61-16.22 9.04-21.81 17.49-0.95 1.5-2.3 2.16-3.41 1.26z" fill="#E8F4FF"/>
  <path d="m19.78 101.8c-0.4-2.2 0.85-3.15 2.05-3.37 1.89-0.35 2.98 1.41 2.89 2.86-0.09 1.71-1.18 3.65-2.98 3.48-1.36-0.13-1.78-1.75-1.96-2.97z" fill="#E8F4FF"/>
  <path d="m48.78 117.3c-4.87 0.7-6.67 3.02-6.41 5.44 0.35 3.08 4.34 3.78 7.34 3.51 4.91-0.43 8.18-2.28 8-5.27-0.26-3.11-3.97-4.33-8.93-3.68z" fill="#F69799"/>
  <path d="m106.3 111.6c-4.86 0.43-6.49 3.37-6.4 4.91 0.09 3.12 3.8 4.06 7.16 3.84 4.21-0.3 7.83-2.27 7.83-4.81 0-2.78-2.83-4.49-8.59-3.94z" fill="#F69799"/>
  <path d="m56.61 103.7c-4.39 0-5.79 3.88-5.48 5.9 0.52 3.31 2.95 4.63 5.59 4.29 3.23-0.43 4.59-2.53 4.5-5.75-0.13-2.28-1.89-4.44-4.61-4.44z" fill="#32284A"/>
  <path d="m98.91 99.33c-4.39 0-5.29 4.04-5.03 6.01 0.61 3.31 2.85 4.63 5.24 4.37 3.36-0.35 4.71-3.04 4.62-5.19-0.22-3.11-2.02-5.19-4.83-5.19z" fill="#32284A"/>
  <path d="m70.21 113.9c2 3.87 5.22 5.04 7.82 4.87 4.71-0.26 7.18-2.67 8.8-6.19" stroke="#32284A" stroke-linecap="round" stroke-linejoin="round" stroke-width="4"/>
  <path d="m121.2 50.06c-1.76 0.52-0.59 4.13-0.25 5.67l1.63 5.56c0.52 1.93 4.59 1.93 4.33-0.92l-1.9-10.4c-0.35-1.36-2.34-0.51-3.81 0.09z" fill="#BED8F0"/>
  <path d="m142.1 49.53-6.43 12.43c-1.13 2.75 3.18 4.46 4.35 1.66l5-11.91c0.99-2.7-1.29-3.64-2.92-2.18z" fill="#BED8F0"/>
  <path d="m155.7 63.01-9.8 5.08c-2.64 1.4-0.4 5.12 2.2 3.94l9.1-5.43c2.39-1.45 0.72-4.44-1.5-3.59z" fill="#BED8F0"/>
  <path d="m100.9 172.4-9.61 4.54c-2.28 1.13-0.98 4.02 1.01 3.37l9.61-5.1c2-1.04 1-3.22-1.01-2.81z" fill="#BED8F0"/>
  <path d="m108.8 180.3-4.53 10.41c-1.27 3.03 3.13 3.55 3.74 1.36l3.84-10.41c0.81-2.66-1.97-3.01-3.05-1.36z" fill="#BED8F0"/>
  <path d="m120.2 181.2c-1.45 0.52-1.28 1.88-0.84 3.42l2.64 7.97c0.78 1.89 4 0.99 3.39-1.48l-2.65-8.95c-0.44-1.49-1.39-1.49-2.54-0.96z" fill="#BED8F0"/>
  <defs>
    <linearGradient id="paint0_linear_163_11917" x1="177.8" x2="177.8" y1="76.73" y2="200.1" gradientUnits="userSpaceOnUse">
      <stop stop-color="#D7A242" offset="0"/>
      <stop stop-color="#D59A40" offset="1"/>
    </linearGradient>
    <linearGradient id="paint1_linear_163_11917" x1="177" x2="177" y1="80.93" y2="197.2" gradientUnits="userSpaceOnUse">
      <stop stop-color="#FFE89F" offset="0"/>
      <stop stop-color="#FFD375" offset="1"/>
    </linearGradient>
    <linearGradient id="paint2_linear_163_11917" x1="176" x2="176" y1="116.7" y2="154.9" gradientUnits="userSpaceOnUse">
      <stop stop-color="#3886E0" offset="0"/>
      <stop stop-color="#004398" offset="1"/>
    </linearGradient>
    <linearGradient id="paint3_linear_163_11917" x1="176.3" x2="176.3" y1="120.2" y2="150.4" gradientUnits="userSpaceOnUse">
      <stop stop-color="#4687FF" offset="0"/>
      <stop stop-color="#1759BF" offset="1"/>
    </linearGradient>
    <linearGradient id="paint4_linear_163_11917" x1="72.86" x2="72.86" y1="55.02" y2="178.5" gradientUnits="userSpaceOnUse">
      <stop stop-color="#87B3D8" offset="0"/>
      <stop stop-color="#87B3D8" offset="1"/>
    </linearGradient>
    <linearGradient id="paint5_linear_163_11917" x1="70.78" x2="72.71" y1="61.01" y2="161.2" gradientUnits="userSpaceOnUse">
      <stop stop-color="#E1F0FF" offset="0"/>
      <stop stop-color="#CEE4FF" offset=".4948"/>
      <stop stop-color="#B3D3F2" offset="1"/>
    </linearGradient>
  </defs>
</svg>