<svg xmlns="http://www.w3.org/2000/svg" width="200" height="200" viewBox="0 0 200 200" fill="none">
<path d="M 107.43,11.08 C 102.76,9.03 96.51,9.03 92.57,11.02 L 25.93,37.63 C 20.09,39.96 20.22,48.46 26.86,50.64 L 58.41,63.21 V 77.5 H 56.23 H 29.06 C 24.81,77.5 22.04,79.98 20.01,84.06 L 8.81,104.91 C 5.68,105.36 4.39,108.31 4.39,110.03 C 4.39,113.23 6.64,115.65 9.71,115.65 V 163.54 C 6.08,163.54 6.08,167.79 6.08,168.93 V 173.82 C 6.08,177.29 8.29,179.16 10.89,179.16 H 44.97 C 42.96,180.91 42.02,182.93 42.02,184.84 C 42.02,187.79 44.28,189.97 47.06,189.97 H 152.94 C 156.14,189.97 157.71,187.61 157.48,184.99 C 157.28,182.62 156.02,180.78 154.11,179.16 H 188.91 C 192.72,179.16 194.29,176.31 194.29,173.82 V 168.93 C 194.29,165.81 192.42,163.54 188.91,163.54 V 115.65 C 193.21,115.65 195.32,112.96 195.32,109.81 C 195.32,106.91 193.59,104.71 190.72,104.11 L 179.51,83.7 C 177.24,79.48 174.02,77.5 169.93,77.5 H 141.59 V 63.21 L 173.14,50.64 C 179.28,48.49 179.61,40.21 173.94,37.84 L 107.43,11.08 Z" fill="#6E85A1" stroke="#2B3B4D" stroke-width="0.9" stroke-miterlimit="10"/>
<path d="M 26.92,39.21 L 92.81,12.81 C 97.13,10.71 102.59,10.63 107.19,12.71 L 173.27,38.89 C 178.6,41.09 178.38,48.63 172.89,50.47 L 140.54,63.32 V 78.41 H 58.41 V 62.38 L 27.21,49.41 C 21.41,47.42 21.38,41.43 26.92,39.21 Z" fill="#424351" stroke="#1B1D26" stroke-width="0.9" stroke-miterlimit="10"/>
<path opacity="0.1" d="M 106.74,12.09 L 106.31,16.74 L 173.23,42.96 C 175.14,43.72 175.06,46.27 173.62,47.12 L 175.82,46.21 C 177.84,43.19 176.22,39.96 173.31,38.73 L 106.74,12.09 Z" fill="#FEFFFE"/>
<path opacity="0.1" d="M 94.79,11.44 L 93.61,16.74 L 30.02,42.96 C 27.11,43.97 24.31,44.71 24.5,47.12 L 23.62,45.13 C 23.05,42.03 24.99,39.88 27.69,38.81 L 94.79,11.44 Z" fill="#FEFFFE"/>
<path d="M 140.54,52.89 V 78.41 H 58.41 V 52.89 C 58.41,43.06 75.92,36.04 100.07,36.04 C 122.92,36.04 140.54,43.62 140.54,52.89 Z" fill="#373842" stroke="#0B0E11" stroke-width="0.9" stroke-miterlimit="10"/>
<path opacity="0.1" d="M 64.66,54.19 C 71.44,47.06 84.75,43.97 99.84,43.97 V 36.51 C 80.21,37.08 63.36,43.41 59.91,50.61 V 77.96 H 64.66 V 54.19 Z" fill="#FEFFFE"/>
<path d="M 179.01,84.5 C 176.91,80.28 173.86,78.41 169.77,78.41 H 141.14 H 56.23 H 29.06 C 24.81,78.41 22.31,80.8 20.29,84.88 L 9.08,105.73 H 190.22 L 179.01,84.5 Z" fill="#96C8FB" stroke="#628AC7" stroke-width="0.9" stroke-miterlimit="10"/>
<path opacity="0.1" d="M 170.75,80.32 H 146.78 L 156.5,103.94 H 187.96 L 178.09,84.76 C 176.52,81.71 174.72,80.32 170.75,80.32 Z" fill="#FEFFFE"/>
<path d="M 11.31,115.03 H 188.37 V 163.54 H 11.31 V 115.03 Z" fill="#E6EAFF" stroke="#7690B2" stroke-width="0.9" stroke-miterlimit="10"/>
<path d="M 189.61,164.11 H 10.97 C 7.92,164.11 6.91,166.85 6.91,168.93 V 173.82 C 6.91,176.38 8.41,178.09 10.89,178.09 H 188.91 C 191.65,178.09 193.15,175.81 193.15,173.82 V 168.93 C 193.15,166.19 191.65,164.11 189.61,164.11 Z" fill="#B9E6F8" stroke="#628AC7" stroke-width="0.9" stroke-miterlimit="10"/>
<path d="M 189.61,105.06 H 10.11 C 6.72,105.06 5.31,107.8 5.31,109.81 V 110.48 C 5.31,113.22 7.33,115.03 9.71,115.03 H 189.61 C 192.66,115.03 194.29,112.47 194.29,110.03 C 194.29,107.29 192.66,105.06 189.61,105.06 Z" fill="#E6F0FF" stroke="#628AC7" stroke-width="0.9" stroke-miterlimit="10"/>
<path d="M 188.37,167.01 H 11.31 V 174.08 H 188.37 V 167.01 Z" fill="#C7E9F8"/>
<path d="M 151.93,178.66 L 149.81,176.77 H 49.42 L 46.12,179.16 C 43.73,180.78 42.81,182.72 42.81,184.84 C 42.81,187.23 44.52,188.94 46.91,188.94 H 152.49 C 155.12,188.94 156.51,186.95 156.36,184.71 C 156.21,182.25 154.79,180.41 151.93,178.66 Z" fill="#96C1F2" stroke="#628AC7" stroke-width="0.9" stroke-miterlimit="10"/>
<path d="M 149.81,171.09 L 142.41,163.54 H 53.69 L 48.92,171.09 C 47.21,173.82 47.86,178.66 52.25,178.66 H 147.42 C 151.46,178.66 152.01,174.08 149.81,171.09 Z" fill="#E6F0FF" stroke="#96C1F2" stroke-width="0.9" stroke-miterlimit="10"/>
<path d="M 27.91,122.23 H 23.71 C 21.79,122.23 20.51,123.91 20.51,125.83 V 133.81 C 20.51,135.72 21.79,136.78 23.28,136.78 H 28.49 C 30.41,136.78 31.01,135.47 31.01,133.81 V 125.83 C 31.01,123.61 29.83,122.23 27.91,122.23 Z" fill="#96C8FB" stroke="#628AC7" stroke-width="0.9" stroke-miterlimit="10"/>
<path d="M 45.51,122.23 H 41.31 C 39.39,122.23 38.62,123.91 38.62,125.83 V 133.81 C 38.62,135.72 39.82,136.78 41.31,136.78 H 45.92 C 47.84,136.78 48.44,135.47 48.44,133.81 V 125.83 C 48.44,123.61 47.43,122.23 45.51,122.23 Z" fill="#96C8FB" stroke="#628AC7" stroke-width="0.9" stroke-miterlimit="10"/>
<path d="M 27.71,143.85 H 23.71 C 21.79,143.85 20.51,145.24 20.51,147.16 V 154.55 C 20.51,156.46 21.79,157.52 23.28,157.52 H 27.89 C 29.81,157.52 30.41,156.21 30.41,154.55 V 147.16 C 30.41,145.24 29.63,143.85 27.71,143.85 Z" fill="#96C8FB" stroke="#628AC7" stroke-width="0.9" stroke-miterlimit="10"/>
<path d="M 45.72,143.85 H 41.72 C 39.8,143.85 38.62,145.24 38.62,147.16 V 154.55 C 38.62,156.46 39.8,157.52 41.29,157.52 H 46.5 C 48.42,157.52 48.44,156.21 48.44,154.55 V 147.16 C 48.44,145.24 47.64,143.85 45.72,143.85 Z" fill="#96C8FB" stroke="#628AC7" stroke-width="0.9" stroke-miterlimit="10"/>
<path d="M 157.61,122.23 H 153.96 C 152.04,122.23 151.01,123.91 151.01,125.83 V 133.81 C 151.01,135.72 152.29,136.78 153.78,136.78 H 157.98 C 159.9,136.78 160.68,135.47 160.68,133.81 V 125.83 C 160.68,123.61 159.53,122.23 157.61,122.23 Z" fill="#96C8FB" stroke="#628AC7" stroke-width="0.9" stroke-miterlimit="10"/>
<path d="M 175.72,122.23 H 171.96 C 170.04,122.23 169.01,123.91 169.01,125.83 V 133.81 C 169.01,135.72 170.29,136.78 171.78,136.78 H 175.98 C 177.9,136.78 178.48,135.47 178.48,133.81 V 125.83 C 178.48,123.61 177.64,122.23 175.72,122.23 Z" fill="#96C8FB" stroke="#628AC7" stroke-width="0.9" stroke-miterlimit="10"/>
<path d="M 158.02,143.85 H 153.56 C 151.64,143.85 150.61,145.24 150.61,147.16 V 154.55 C 150.61,156.46 151.89,157.52 153.38,157.52 H 158.39 C 160.31,157.52 160.68,156.21 160.68,154.55 V 147.16 C 160.68,145.24 159.94,143.85 158.02,143.85 Z" fill="#96C8FB" stroke="#628AC7" stroke-width="0.9" stroke-miterlimit="10"/>
<path d="M 175.62,143.85 H 172.16 C 170.24,143.85 169.21,145.24 169.21,147.16 V 154.55 C 169.21,156.46 170.49,157.52 171.98,157.52 H 176.18 C 178.1,157.52 178.68,156.21 178.68,154.55 V 147.16 C 178.68,145.24 177.54,143.85 175.62,143.85 Z" fill="#96C8FB" stroke="#628AC7" stroke-width="0.9" stroke-miterlimit="10"/>
<path opacity="0.1" d="M 11.31,102.81 L 10.11,105.06 H 34.67 V 102.81 H 11.31 Z" fill="#000020"/>
<path opacity="0.1" d="M 150.63,105.06 H 190.06 L 189.05,102.81 H 150.63 V 105.06 Z" fill="#000020"/>
<path opacity="0.1" d="M 11.31,115.03 H 188.37 V 117.84 H 11.31 V 115.03 Z" fill="#000020"/>
<path opacity="0.1" d="M 11.31,163.54 H 55.82 V 165.81 H 10.11 L 11.31,163.54 Z" fill="#000020"/>
<path opacity="0.1" d="M 143.42,163.54 H 189.61 L 190.82,165.25 H 146.12 L 143.42,163.54 Z" fill="#000020"/>
<path opacity="0.1" d="M 49.95,173.52 L 50.38,176.41 H 149.51 L 150.08,173.52 H 49.95 Z" fill="#000020"/>
<path opacity="0.1" d="M 44.18,185.47 L 46.12,187.71 H 153.75 L 155.14,185.47 H 44.18 Z" fill="#000020"/>
<path opacity="0.1" d="M 70.77,50.11 L 72.95,49.11 V 67.14 L 69.14,69.81 V 51.34 L 70.77,50.11 Z" fill="#FEFFFE"/>
<path opacity="0.1" d="M 118.82,48.12 L 121.31,48.83 V 59.81 L 117.07,58.12 V 47.91 L 118.82,48.12 Z" fill="#FEFFFE"/>
<path d="M 109.71,59.58 C 108.93,53.96 104.92,51.41 99.77,51.41 C 94.61,51.41 90.6,53.96 89.54,59.58 H 109.71 Z" fill="#E6F0FF" stroke="#96C1F2" stroke-width="0.9" stroke-miterlimit="10"/>
<path d="M 99.77,32.69 C 98.38,32.69 97.72,33.49 97.72,34.88 V 51.41 H 101.23 V 34.88 C 101.23,33.49 100.66,32.69 99.77,32.69 Z" fill="#E6F0FF" stroke="#96C1F2" stroke-width="0.9" stroke-miterlimit="10"/>
<path d="M 101.23,34.53 C 103.71,32.91 107.44,34.82 110.64,35.47 C 113.38,36.04 115.65,35.24 117.04,35.11 C 118.82,34.93 118.82,37.32 117.81,38.43 L 114.76,41.78 L 118.27,45.59 C 119.05,46.47 117.11,47.91 113.91,47.91 C 109.95,47.91 108.23,45.59 103.44,45.59 H 101.23 V 34.53 Z" fill="#96C8FB" stroke="#628AC7" stroke-width="0.9" stroke-miterlimit="10"/>
<path d="M 146.88,95.61 C 144.86,77.03 129.03,59.58 100.07,59.58 C 71.12,59.58 55.29,76.29 52.25,95.61 L 50.1,97.91 V 114.61 H 148.93 L 150.95,111.11 V 100.31 L 146.88,95.61 Z" fill="#C7E9F8" stroke="#7690B2" stroke-width="0.9" stroke-miterlimit="10"/>
<path d="M 116.58,78.71 C 115.06,67.81 109.11,59.58 100.07,59.58 C 90.61,59.58 84.21,66.82 82.3,78.71 L 100.07,73.42 L 116.58,78.71 Z" fill="#B0EBF2" stroke="#96C1F2" stroke-width="0.9" stroke-miterlimit="10"/>
<path d="M 50.1,97.91 L 95.81,74.12 C 98.07,73.06 100.93,73.06 103.71,74.12 L 148.93,96.59 C 150.84,97.65 151.41,100.11 151.41,102.21 V 107.91 C 151.41,112.71 148.36,115.03 143.97,115.03 H 54.17 C 51.12,115.03 50.1,112.71 50.1,109.81 V 97.91 Z" fill="#E6F0FF" stroke="#628AC7" stroke-width="0.9" stroke-miterlimit="10"/>
<path d="M 112.84,91.51 C 109.98,91.51 108.82,93.76 108.82,94.91 C 108.82,97.28 110.42,98.31 112.68,98.31 C 114.86,98.31 116.19,96.36 116.19,94.91 C 116.19,92.92 114.83,91.51 112.84,91.51 Z" fill="#2B3B4D"/>
<path d="M 86.89,91.51 C 84.22,91.51 83.62,93.76 83.62,94.91 C 83.62,97.09 85.21,98.31 86.89,98.31 C 89.07,98.31 90.39,96.79 90.39,94.91 C 90.39,93.07 89.28,91.51 86.89,91.51 Z" fill="#2B3B4D"/>
<path d="M 93.77,99.75 C 95.16,102.61 97.11,103.77 100.07,103.77 C 102.69,103.77 104.61,102.31 105.47,99.75" stroke="#2B3B4D" stroke-width="1.8" stroke-linecap="round" stroke-linejoin="round"/>
<path d="M 81.86,100.01 H 80.11 C 77.25,100.01 75.92,101.58 75.92,103.29 C 75.92,105.76 78.07,106.82 81.02,106.82 H 82.94 C 85.71,106.82 87.1,105.26 87.1,103.55 C 87.1,101.38 85.48,100.01 81.86,100.01 Z" fill="#F2A5B1"/>
<path d="M 119.26,99.75 H 118.61 C 115.06,99.75 113.22,100.81 113.22,103.29 C 113.22,105.21 114.93,106.67 117.96,106.67 H 119.11 C 122.57,106.67 123.89,105.06 123.89,103.29 C 123.89,101.04 122.31,99.75 119.26,99.75 Z" fill="#F2A5B1"/>
<path d="M 110.4,143.7 C 110.4,136.78 105.19,132.78 100.03,132.78 C 93.77,132.78 89.38,138.07 89.38,143.7 V 163.54 H 110.4 V 143.7 Z" fill="#80B6E7" stroke="#5186BA" stroke-width="0.9" stroke-miterlimit="10"/>
<path d="M 61.92,123.84 C 59.26,134.73 59.11,148.27 61.03,160.02 H 79.41 C 81.02,149.41 81.02,136.17 78.54,123.84 H 61.92 Z" fill="#E6F0FF" stroke="#96C1F2" stroke-width="0.9" stroke-miterlimit="10"/>
<path d="M 79.11,115.5 H 60.14 C 57.66,115.5 56.5,117.75 56.5,119.46 C 56.5,122.23 58.41,124.31 61.61,124.31 H 78.38 C 81.15,124.31 82.61,122.06 82.61,119.81 C 82.61,117.39 81.15,115.5 79.11,115.5 Z" fill="#96C8FB" stroke="#628AC7" stroke-width="0.9" stroke-miterlimit="10"/>
<path opacity="0.5" d="M 66.12,130.16 L 65.11,152.63 C 65.03,154.41 67.89,154.41 67.89,152.63 L 68.12,130.16 C 68.12,128.25 66.41,128.09 66.12,130.16 Z" fill="#FEFFFE"/>
<path d="M 119.98,123.84 C 117.96,133.91 117.96,147.91 120.14,159.51 H 137.91 C 139.93,149.44 139.62,135.44 137.61,123.84 H 119.98 Z" fill="#E6F0FF" stroke="#96C1F2" stroke-width="0.9" stroke-miterlimit="10"/>
<path d="M 138.71,115.5 H 120.06 C 117.32,115.5 116.26,117.19 116.26,119.11 C 116.26,121.98 117.88,123.84 120.65,123.84 H 137.91 C 140.65,123.84 142.41,121.6 142.41,119.11 C 142.41,117.19 141.14,115.5 138.71,115.5 Z" fill="#96C8FB" stroke="#628AC7" stroke-width="0.9" stroke-miterlimit="10"/>
<path opacity="0.5" d="M 125.11,130.16 L 124.1,152.16 C 124.02,153.94 126.88,154.06 126.88,152.16 L 127.46,130.16 C 127.46,128.25 125.61,127.94 125.11,130.16 Z" fill="#FEFFFE"/>
<path d="M 78.91,159.51 H 61.03 C 58.26,159.51 57.01,161.5 57.01,163.62 C 57.01,166.21 58.62,168.6 61.61,168.6 H 78.87 C 81.61,168.6 83.11,166.42 83.11,164.34 C 83.11,161.78 81.38,159.51 78.91,159.51 Z" fill="#96C8FB" stroke="#628AC7" stroke-width="0.9" stroke-miterlimit="10"/>
<path d="M 138.21,159.51 H 121.05 C 118.28,159.51 116.58,161.22 116.58,163.62 C 116.58,166.01 118.11,168.19 120.95,168.19 H 138.21 C 140.95,168.19 142.71,165.94 142.71,163.62 C 142.71,161.22 140.69,159.51 138.21,159.51 Z" fill="#96C8FB" stroke="#628AC7" stroke-width="0.9" stroke-miterlimit="10"/>
<path d="M 47.38,25.16 H 46.12 C 38.62,25.16 36.78,32.48 36.78,39.96 V 72.19 H 42.02 V 39.11 C 42.02,33.19 44.18,28.66 49.95,28.66 H 51.71 C 53.02,28.66 53.45,27.27 52.1,26.26 C 51.16,25.55 49.32,25.16 47.38,25.16 Z" fill="#D58809" stroke="#9E6206" stroke-width="0.9" stroke-miterlimit="10"/>
<path d="M 39.55,71.88 C 34.01,71.88 31.76,76.68 31.76,79.53 C 31.76,84.76 35.35,86.94 39.55,86.94 C 44.48,86.94 47.34,83.32 47.34,79.53 C 47.34,75.31 43.96,71.88 39.55,71.88 Z" fill="#F4C242" stroke="#C6820E" stroke-width="0.9" stroke-miterlimit="10"/>
<path d="M 35.41,85.55 C 29.29,92.12 28.64,111.01 29.06,120.84 C 29.14,123.61 29.29,125.07 31.91,125.9 C 34.75,126.81 37.37,126.81 39.62,126.81 C 42.02,126.81 44.04,126.43 46.27,125.62 C 48.93,124.64 49.64,123.56 49.95,118.12 C 50.53,107.14 48.14,90.86 44.44,85.11 C 42.02,86.58 38.06,86.94 35.41,85.55 Z" fill="#F9D048" stroke="#C6820E" stroke-width="0.9" stroke-miterlimit="10"/>
<path opacity="0.5" d="M 38.14,73.72 C 35.82,73.72 34.16,76.11 34.16,78.1 C 34.16,80.09 35.66,81.15 37.15,81.15 C 39.55,81.15 41.36,78.83 41.36,76.91 C 41.36,75.28 40.13,73.72 38.14,73.72 Z" fill="#FEFFFE"/>
<path d="M 35.61,101.7 C 34.67,107.8 34.45,117.06 35.61,124.77" stroke="#C6820E" stroke-width="0.9" stroke-miterlimit="10" stroke-linecap="round"/>
<path d="M 44.68,106.5 C 45.46,112.42 45.23,119.19 43.91,124.92" stroke="#C6820E" stroke-width="0.9" stroke-miterlimit="10" stroke-linecap="round"/>
</svg>