<svg xmlns="http://www.w3.org/2000/svg" width="250" height="250" viewBox="0 0 250 250" fill="none">
<path d="M 210.34,115.79 C 211.37,102.66 201.28,90.01 185.17,89.66 C 181.91,89.59 178.78,90.23 175.89,91.26 C 170.92,70.24 153.75,52.06 129.19,51.73 C 109.11,51.44 93.61,62.91 85.42,77.96 C 80.61,75.15 76.06,74.41 71.21,74.69 C 54.11,75.67 40.13,89.36 38.94,106.01 C 38.72,109.48 39.06,111.97 39.74,115.55 C 21.72,119.11 7.74,133.56 7.74,151.85 C 7.74,170.78 23.91,187.85 46.69,187.85 C 56.01,187.85 63.47,185.06 70.01,182.07 C 83.02,194.29 98.96,202.26 123.86,202.26 C 146.03,202.26 164.99,193.91 179.57,182.38 C 186.19,186.22 193.16,187.85 201.97,187.85 C 223.74,187.85 242.26,171.09 242.26,151.12 C 242.26,133.38 228.78,118.81 210.34,115.79 Z" fill="url(#paint0_radial_123_1260)" stroke="#86B6D7" stroke-width="3" stroke-miterlimit="10"/>
<path d="M 10.49,149.99 C 10.86,167.73 25.88,184.91 47.14,184.91 C 56.77,184.91 63.09,182.49 69.18,178.84 C 71.71,177.35 76.07,179.91 77.23,181.29 C 88.47,194.73 104.98,199.99 124.75,199.99 C 143.19,199.99 160.95,192.96 176.19,179.91 C 179.06,177.36 183.36,179.99 184.74,180.81 C 190.06,183.97 196.23,185.09 203.61,185.09 C 222.83,185.09 239.18,168.26 239.18,150.79 C 239.18,135.71 226.94,120.73 207.51,118.61 C 205.74,118.4 207.19,114.09 206.78,110.52 C 205.39,98.71 195.11,91.19 185.06,91.41 C 178.93,91.55 176.01,93.81 175.66,92.17 C 170.35,70.11 153.93,53.83 128.79,53.41 C 109.28,53.06 95.06,64.48 86.12,78.88 C 85.27,80.27 80.75,76.16 70.27,76.66 C 55.18,77.43 42.11,89.31 40.29,104.11 C 39.72,108.87 40.71,114.79 40.85,115.51 C 23.09,118.77 10.11,132.16 10.49,149.99 Z" fill="url(#paint1_linear_123_1260)"/>
<path opacity="0.5" d="M 170.26,95.91 L 177.18,92.22 C 175.92,82.11 164.83,57.94 136.03,54.91 C 121.92,53.38 106.94,56.35 94.74,69.09 C 90.26,73.86 87.11,80.32 87.11,80.32 C 83.42,77.98 77.93,76.19 71.14,76.68 C 57.42,77.74 47.11,85.66 43.08,97.62 C 40.82,104.41 41.71,112.01 42.8,115.71 C 48.12,114.81 54.83,115.81 57.91,118.92 C 61.06,122.08 62.31,128.73 57.31,132.97 C 53.94,135.91 48.81,135.88 46.18,136.23 C 37.81,137.36 31.73,143.81 28.22,149.93 C 25.49,154.76 17.15,153.16 14.96,147.81 C 13.11,142.98 16.21,133.11 24.21,125.75 C 16.21,131.31 10.14,139.96 10.14,151.78 C 10.14,167.66 24.62,175.76 32.11,177.11 C 43.11,179.21 48.85,177.99 55.11,174.37 C 58.61,172.31 62.94,167.06 67.23,167.06 C 73.81,167.06 76.07,172.06 77.19,175.21 C 78.12,178.06 80.21,177.42 82.06,178.31 C 93.19,183.81 102.99,187.81 116.22,188.81 C 130.01,189.91 145.11,187.01 152.91,178.11 C 157.91,172.51 167.31,167.11 173.11,167.11 C 179.71,167.11 181.61,174.11 185.11,176.41 C 190.41,179.71 195.81,178.91 199.81,178.41 C 210.71,177.01 226.71,167.11 233.71,156.11 C 238.41,148.91 235.71,135.11 224.21,126.11 C 217.21,120.51 207.81,119.01 202.81,119.01 C 198.81,119.01 197.01,116.11 198.11,112.11 C 199.61,106.31 198.71,98.41 190.41,94.41 C 183.11,90.81 174.91,92.71 170.26,95.91 Z" fill="url(#paint2_linear_123_1260)"/>
<path opacity="0.8" d="M 49.82,100.33 C 50.06,107.89 56.81,108.01 60.11,104.11 C 63.81,99.76 66.11,96.11 71.91,95.91 C 76.61,95.76 78.81,92.01 77.61,88.01 C 75.91,82.21 68.91,81.01 63.11,83.21 C 54.81,86.31 49.57,92.51 49.82,100.33 Z" fill="url(#paint3_linear_123_1260)"/>
<path opacity="0.8" d="M 100.01,74.61 C 95.01,80.11 102.31,88.11 110.31,86.11 C 117.01,84.36 122.31,79.61 129.11,79.61 C 134.11,79.61 137.41,83.61 140.91,82.61 C 146.91,80.81 147.11,74.61 141.11,70.11 C 134.61,65.11 126.11,64.11 120.11,65.11 C 112.11,66.61 105.31,68.81 100.01,74.61 Z" fill="url(#paint4_linear_123_1260)"/>
<path opacity="0.8" d="M 173.01,107.61 C 173.01,113.11 177.81,117.61 183.11,117.61 C 189.11,117.61 193.61,113.11 193.61,107.61 C 193.61,102.11 189.11,97.61 183.61,97.61 C 177.61,97.61 173.01,102.11 173.01,107.61 Z" fill="url(#paint5_linear_123_1260)"/>
<path opacity="0.8" d="M 193.01,135.11 C 193.01,142.61 199.81,147.11 206.11,147.11 C 213.61,147.11 218.61,141.11 218.61,135.11 C 218.61,128.61 212.61,123.61 206.61,124.11 C 199.61,124.61 193.01,128.61 193.01,135.11 Z" fill="url(#paint6_linear_123_1260)"/>
<path d="M 117.31,133.29 C 119.31,136.19 121.91,136.79 125.01,136.79 C 128.11,136.79 129.91,135.59 131.71,132.99" stroke="#2B4861" stroke-width="4.1" stroke-linecap="round" stroke-linejoin="round"/>
<path d="M 94.81,124.89 C 96.21,127.39 98.61,128.39 101.51,128.39 C 104.41,128.39 106.01,127.09 107.31,124.89" stroke="#2B4861" stroke-width="4.1" stroke-linecap="round" stroke-linejoin="round"/>
<path d="M 153.91,124.89 C 152.51,127.39 150.11,128.39 147.21,128.39 C 144.81,128.39 143.01,127.39 141.71,125.19" stroke="#2B4861" stroke-width="4.1" stroke-linecap="round" stroke-linejoin="round"/>
<path d="M 91.91,133.11 C 86.41,133.11 83.91,135.41 83.91,137.71 C 83.91,139.81 87.01,142.11 92.01,142.11 C 97.21,142.11 99.31,139.71 99.31,137.71 C 99.31,135.31 97.11,133.11 91.91,133.11 Z" fill="#EABED0"/>
<path d="M 157.91,133.11 C 152.41,133.11 149.91,135.41 149.91,137.71 C 149.91,139.81 153.01,142.11 158.01,142.11 C 163.21,142.11 165.31,139.71 165.31,137.71 C 165.31,135.31 163.11,133.11 157.91,133.11 Z" fill="#EABED0"/>
<path d="M 186.52,63.67 L 195.72,63.61 L 186.61,74.11 V 74.71 L 196.01,74.41" stroke="#5E91B3" stroke-width="4" stroke-linecap="round" stroke-linejoin="round"/>
<path d="M 205.11,47.31 L 217.91,47 L 205.01,62.41 V 63.31 L 219.01,63.01" stroke="#5E91B3" stroke-width="5" stroke-linecap="round" stroke-linejoin="round"/>
<defs>
<radialGradient id="paint0_radial_123_1260" cx="0" cy="0" r="1" gradientUnits="userSpaceOnUse" gradientTransform="translate(125.001 127.329) scale(106.554 84.3119)">
<stop stop-color="#F4FFFE"/>
<stop offset="0.4117" stop-color="#F1FDFF"/>
<stop offset="0.6899" stop-color="#E8F8FF"/>
<stop offset="0.936" stop-color="#D9F0FF"/>
<stop offset="1" stop-color="#D4EEFF"/>
</radialGradient>
<linearGradient id="paint1_linear_123_1260" x1="123.392" y1="53.3521" x2="123.392" y2="200.051" gradientUnits="userSpaceOnUse">
<stop stop-color="#FEFFFF"/>
<stop offset="0.2185" stop-color="#F1FBFF"/>
<stop offset="0.5059" stop-color="#D6EEFF"/>
<stop offset="0.8511" stop-color="#AFE0FF"/>
<stop offset="1" stop-color="#9DD6FF"/>
</linearGradient>
<linearGradient id="paint2_linear_123_1260" x1="106.082" y1="56.3566" x2="112.101" y2="191.812" gradientUnits="userSpaceOnUse">
<stop stop-color="#FEFFFF"/>
<stop offset="0.2185" stop-color="#F1FBFF" stop-opacity="0.7815"/>
<stop offset="0.5059" stop-color="#D6EEFF" stop-opacity="0.4912"/>
<stop offset="0.8511" stop-color="#AFE0FF" stop-opacity="0.1469"/>
<stop offset="1" stop-color="#9DD6FF" stop-opacity="0"/>
</linearGradient>
<linearGradient id="paint3_linear_123_1260" x1="61.3911" y1="82.1905" x2="63.5911" y2="107.791" gradientUnits="userSpaceOnUse">
<stop stop-color="#FEFFFF"/>
<stop offset="1" stop-color="#FEFFFF" stop-opacity="0.25"/>
</linearGradient>
<linearGradient id="paint4_linear_123_1260" x1="122.791" y1="64.3905" x2="126.191" y2="87.1905" gradientUnits="userSpaceOnUse">
<stop stop-color="#FEFFFF"/>
<stop offset="1" stop-color="#FEFFFF" stop-opacity="0.25"/>
</linearGradient>
<linearGradient id="paint5_linear_123_1260" x1="183.311" y1="97.6105" x2="183.311" y2="117.611" gradientUnits="userSpaceOnUse">
<stop stop-color="#FEFFFF"/>
<stop offset="1" stop-color="#FEFFFF" stop-opacity="0.25"/>
</linearGradient>
<linearGradient id="paint6_linear_123_1260" x1="205.811" y1="124.031" x2="205.811" y2="147.111" gradientUnits="userSpaceOnUse">
<stop stop-color="#FEFFFF"/>
<stop offset="1" stop-color="#FEFFFF" stop-opacity="0.25"/>
</linearGradient>
</defs>
</svg>