<svg xmlns="http://www.w3.org/2000/svg" width="250" height="250" fill="none" viewBox="0 0 250 250">
  <path d="m249.2 0h-106.3l-0.96 107.2 20.03-1.92c6.96-0.67 11.2-5.34 10.79-11.31l6.29 7.64c5.75 5.55 16.06 2.51 17.85-4.9l0.31-13.6 12.51 17.51c6.45 7.48 19.94 5.29 22.45-3.64l-0.13-35.28 17.12 0.39v-62.1z" fill="url(#paint0_linear_2436_11221)"/>
  <path d="m163 16.21c-8 0-10.78 6.91-10.78 12.88 0 6.68 5.44 10.64 10.78 10.64 6.62 0 11.03-5.7 11.03-10.64 0-6.11-3.58-12.88-11.03-12.88z" fill="#A1E6FF"/>
  <path d="m228.6 11.24c-0.52-1.86-2.88-1.77-3.35 0-1.41 5.37-2.58 6.47-8.04 8.27-1.39 0.48-1.33 2.22 0 2.58 6.19 1.78 7.37 3.62 8.83 8.71 0.53 1.96 2.6 1.61 2.98 0 1.41-5.79 3.64-6.89 7.1-8.39 1.35-0.59 1.5-2.3 0-2.73-4.55-1.4-6.12-3.27-7.52-8.44z" fill="#74C7F0" stroke="#345685" stroke-linecap="round" stroke-linejoin="round" stroke-width="1.7"/>
  <path d="m240.5 31.44c-0.29-1.05-1.69-0.99-1.99 0-0.58 2.53-0.8 2.99-3.07 3.94-0.84 0.36-0.8 1.39 0 1.63 2.8 0.9 3.07 1.5 3.79 3.95 0.35 1.11 1.54 0.9 1.77 0 0.73-2.95 1.53-3.4 3.31-4.24 0.8-0.39 0.89-1.39 0-1.73-2.36-0.9-3.17-1.38-3.81-3.55z" fill="#A1D3F0" stroke="#74C7F0" stroke-linecap="round" stroke-linejoin="round" stroke-width="1.06"/>
  <path d="m137.8 31.06c-0.44-1.43-2.16-1.05-2.34 0-0.77 3.88-1.7 4.61-4.42 5.66-1.26 0.52-1.21 1.7 0 2.14 4.29 1.57 4.64 2.4 5.44 5.78 0.35 1.37 1.81 1.07 2.03 0 0.94-4.25 1.88-5.08 4.38-6.31 1.04-0.52 1.04-1.79 0-2.1-3.18-1.03-4.11-1.67-5.09-5.17z" fill="#A1D3F0" stroke="#345685" stroke-linecap="round" stroke-linejoin="round" stroke-width="1.7"/>
  <path d="m209.3 110.7c-0.44-1.43-2.16-1.05-2.34 0-0.77 3.88-1.7 4.62-4.42 5.66-1.26 0.52-1.21 1.7 0 2.14 4.29 1.57 4.64 2.4 5.44 5.78 0.35 1.37 1.81 1.07 2.03 0 0.94-4.25 1.88-5.08 4.38-6.31 1.04-0.52 1.04-1.79 0-2.1-3.18-1.03-4.11-1.67-5.09-5.17z" fill="#A1D3F0" stroke="#345685" stroke-linecap="round" stroke-linejoin="round" stroke-width="1.7"/>
  <path d="m163 37.21c6.62 0 9.46-5.43 9.46-9.89 0-5.83-3.47-10.44-9.46-10.44-7.15 0-10.24 5.79-10.24 11.85 0 5.48 4.9 8.48 10.24 8.48z" stroke="#195291" stroke-linecap="round" stroke-linejoin="round" stroke-width="3.4"/>
  <path d="m163 103.3c7.05 0 9.82-6.33 9.82-10.57v-39.83c0-6.63-4-10.87-9.26-10.87-6.71 0-9.76 5.26-9.76 10.87v41.72c0 5.48 4.45 8.68 9.2 8.68z" fill="#A1E6FF"/>
  <path d="m185.9 105.3c6.8 0 10.48-5.34 10.48-11v-14.15l13.5 18.6c5.71 7.37 17.81 5.62 20.77-2.62v-43.94c0-6.77-4.66-10.48-9.27-10.48-6.3 0-9.35 5.39-9.35 9.63v14.55l-16-20.3c-6.08-6.81-18.94-5.59-19.58 5.75v43.31c0 6.07 4.19 10.65 9.45 10.65z" fill="#A1E6FF"/>
  <path d="m163 99.46c6.12 0 7.76-5.75 7.76-9.62v-38.98c0-5.75-4.04-8.81-7.76-8.81-5.75 0-7.87 4.77-7.87 8.81v40.11c0 5.21 3.68 8.49 7.87 8.49z" fill="#A1E6FF" stroke="#195291" stroke-linecap="round" stroke-linejoin="round" stroke-width="3.4"/>
  <path d="m186.3 99.91c5.75 0 8.29-4.63 8.29-8.87v-21.01l16.44 23.16c5.26 7.37 11.93 6.72 16.12 1.87v-44.94c0-5.48-4.15-8.42-7.37-8.42-5.88 0-7.66 5.39-7.66 8.42v20.04l-17.02-23.87c-6.07-7.21-16.15-4.81-17.14 3.83v40.85c0 5.75 4.14 8.94 8.34 8.94z" fill="#A1E6FF" stroke="#195291" stroke-linecap="round" stroke-linejoin="round" stroke-width="3.4"/>
  <path d="m158.1 27.32c2.12 0 6.09-4.51 8.96-4.51 0.94 0 1.65 0.9 1.65 2.12 0 3.8-3.05 7.18-6.97 7.18-3.64 0-5.55-2.4-5.55-4.1 0-1.09 0.64-0.69 1.91-0.69z" fill="#FEFFFE" opacity=".4"/>
  <path d="m185.8 53.01c0.58-2.15 2.22-2.89 3.09-3.29" opacity=".4" stroke="#FEFFFE" stroke-linecap="round" stroke-linejoin="round" stroke-width="3.4"/>
  <path d="m157.7 48.97v10.74" opacity=".4" stroke="#FEFFFE" stroke-linecap="round" stroke-linejoin="round" stroke-width="3.4"/>
  <path d="m185.3 58.97v2.07" opacity=".4" stroke="#FEFFFE" stroke-linecap="round" stroke-linejoin="round" stroke-width="3.4"/>
  <path d="m222.9 47.09c2.59 0 3.53 2.81 3.53 4.11v37.42c0 4.2-2.86 5.8-6 5.8-3.72 0-6.72-3.71-9.31-7.2l-13.11-18.1c-1.3-1.89-4.4-1.41-4.4 1.3v18.2c0 3.7-1.69 6.02-5.19 6.02-2.96 0-5.08-2.63-5.08-6.02v-37.42c0-3.44 2.28-4.91 4.72-4.91 2.22 0 4.13 1.38 5.91 3.83l15.54 21.96c1.78 2.81 5.05 2.5 5.05-1.25v-19.63c0-2.54 2.17-4.11 4.35-4.11h3.99z" fill="#FEFFFE" opacity=".4"/>
  <path d="m173.1 159.1-18.58-18.6c-5.34-5.34-13.66-3.04-16.71 0.92-10.64 13.28-28.4 33.45-38.08 40.35-11.68 8.73-27.68 7.03-32.94 1.48-9.33-8.77-9.06-25.19 0-37.1 7.2-9.44 26.36-24.25 39.03-37.35 5.43-4.98 5.96-13.53 0-19.75l-14.37-19.6c-5.25-5.25-12.49-4.38-16.99-1.14-17.36 12.26-40.19 28.8-53.69 48.81-18.67 28.09-18.8 62.85 2.98 88.9 15.18 18.29 34.47 31.89 61.6 32.2 28.7 0 49.6-16.09 65.6-36.1l22.15-25.02c5.25-5.97 5.25-13.1 0-18z" fill="#F26B6B" stroke="#34496D" stroke-linecap="round" stroke-linejoin="round" stroke-width="3.4"/>
  <path d="m14.94 186.3c-7.91-21.29-4.96-47.44 9.19-68.08 9.68-14.15 18.88-22.9 29.98-32.07l23.52 25.02-19.51 18.6c-14.93 14.55-13.9 35.15-3.71 46.03 8 8.71 15.65 15.06 30.23 15.36 12.47 0.31 19.38-5.14 26.3-12.05l12.42-13.6 21.35 17.25c-17.89 20.01-35.08 36.54-61.48 38.76-25.95 2.26-57.55-7.4-68.29-35.22z" fill="#F26B6B"/>
  <path d="m21.28 140.1c4.75-13.78 13.03-23.96 22.63-31.41" stroke="#F8B1B1" stroke-linecap="round" stroke-linejoin="round" stroke-width="5.1"/>
  <path d="m50.88 102.5c1.61 0.67 3.23-0.75 3.45-2.61s-1.51-2.04-2.55-1.39c-2.17 1.34-2.86 3.1-0.9 4z" fill="#F8B1B1"/>
  <path d="m20.73 176.4c0.4 2.75 4.5 6.85 7 6s2.28-3.89 0-6.26c-2.54-2.66-7.62-3.6-7 0.26z" fill="#F8B1B1"/>
  <path d="m58.12 210.7c-1.4 2.37 1.87 6.37 5.5 7 3.09 0.63 3.69-2.8 1.69-5.38-2.1-2.85-5.74-4-7.19-1.62z" fill="#F8B1B1"/>
  <path d="m35.42 178.2c4.29 1.05 6.06-3.15 5.08-6.24-1.31-3.81-5.69-3.9-7.87-1.95-3.22 2.76-2.15 7.05 2.79 8.19z" fill="#34496D" stroke="#34496D" stroke-linecap="round" stroke-linejoin="round" stroke-width="1.7"/>
  <path d="m64.91 206.9c4.15 1.66 6.27-2.92 5.15-6.2-1.45-3.24-5.74-3.59-7.82-0.92-2.54 3.03-1.13 6.22 2.67 7.12z" fill="#34496D" stroke="#34496D" stroke-linecap="round" stroke-linejoin="round" stroke-width="1.7"/>
  <path d="m42.28 188.5c-0.64 4.73 3.77 9.19 9.34 7.62" stroke="#34496D" stroke-linecap="round" stroke-linejoin="round" stroke-width="3.4"/>
  <path d="m79.22 112-21.1 18.01c-13.41 13.14-14.21 31.74-4.01 43.08 1.77 2.16 3.67 3.99 5.57 5.49-5.57-11.55-3.35-25.46 7.53-37l20.62-20.01-8.61-9.57z" fill="#CF4857"/>
  <path d="m55.97 84.5 23.52 26.05c7.77-6.9 17.58-14.72 20.44-18.1 2.86-3.39 2.29-7 0.22-9.37l-11.14-12.92c-3.83-3.53-9.39-3.44-13.49-0.44l-19.55 14.78z" fill="#D3DCE6" stroke="#34496D" stroke-linecap="round" stroke-linejoin="round" stroke-width="2.55"/>
  <path d="m104.3 87.11c3.63 3.95 6.04 10.81 1.01 17.71-2.68 2.9-12.68 10.36-17.77 15.15l-7.9-9.69c7.01-5.55 17.09-14.27 19.81-16.97 2.28-2.38 3.18-4.33 4.85-6.2z" fill="#94A8C2" stroke="#34496D" stroke-linecap="round" stroke-linejoin="round" stroke-width="2.55"/>
  <path d="m171.5 158.7-18.23-17.65c-4.45-4.05-11.08-3-14.63 1.13l-14.92 18.6 33.1 35.51 16-20.02c5.01-5.7 4.25-12.96-1.32-17.57z" fill="#D3DCE6" stroke="#34496D" stroke-linecap="round" stroke-linejoin="round" stroke-width="3.4"/>
  <path d="m165.3 153.3c2.45 2.46 3.34 7.56 0 12.41l-16 20.01 7.44 10.07 16-20.01c4.75-5.79 3.89-13.38-1.81-18.08l-5.63-4.4z" fill="#94A8C2" stroke="#34496D" stroke-linecap="round" stroke-linejoin="round" stroke-width="2.55"/>
  <path d="m50.39 224.7c11.14 6.5 21.97 11.99 41.02 11.99 22.51-1 41.66-13.96 54.73-28.98l9.89-11.12-6.91-9.49c-18.19 20.01-39.31 42.01-72.11 42.6-10.6 0-19.23-1.8-26.62-5z" fill="#CF4857"/>
  <path d="m112.1 61.41 9.06-6.33" stroke="#34496D" stroke-linecap="round" stroke-linejoin="round" stroke-width="3.4"/>
  <path d="m110 74.46c8-5.97 19.14-11.55 30.28-15.84" stroke="#34496D" stroke-linecap="round" stroke-linejoin="round" stroke-width="3.4"/>
  <path d="m117.8 84.92c4.45-2.81 7.92-4.21 11.93-5.91" stroke="#34496D" stroke-linecap="round" stroke-linejoin="round" stroke-width="3.4"/>
  <path d="m137.9 74.46h0.44" stroke="#34496D" stroke-linecap="round" stroke-linejoin="round" stroke-width="3.4"/>
  <path d="m161.4 133c3.54-4.69 5.26-7.83 7.35-11.37" stroke="#34496D" stroke-linecap="round" stroke-linejoin="round" stroke-width="3.4"/>
  <path d="m169.6 140.7c7.44-8.19 14.79-18.44 19.24-25.35" stroke="#34496D" stroke-linecap="round" stroke-linejoin="round" stroke-width="3.4"/>
  <path d="m184.4 138.9 4.45-5.21" stroke="#34496D" stroke-linecap="round" stroke-linejoin="round" stroke-width="3.4"/>
  <path d="m174.7 115.5 0.18-0.18" stroke="#34496D" stroke-linecap="round" stroke-linejoin="round" stroke-width="3.4"/>
  <path d="m187 146.7 2.68 3" stroke="#34496D" stroke-linecap="round" stroke-linejoin="round" stroke-width="3.4"/>
  <path d="m196.9 146.4-1.64 3.35" stroke="#34496D" stroke-linecap="round" stroke-linejoin="round" stroke-width="3.4"/>
  <path d="m198 155.8 2.77 0.77" stroke="#34496D" stroke-linecap="round" stroke-linejoin="round" stroke-width="3.4"/>
  <path d="m185.3 157 3.78-1.66" stroke="#34496D" stroke-linecap="round" stroke-linejoin="round" stroke-width="3.4"/>
  <path d="m193.3 159.6v3.29" stroke="#34496D" stroke-linecap="round" stroke-linejoin="round" stroke-width="2.55"/>
  <path d="m93.28 43.85 2.36 3.46" stroke="#34496D" stroke-linecap="round" stroke-linejoin="round" stroke-width="3.4"/>
  <path d="m103.9 44.33-2.27 3.76" stroke="#34496D" stroke-linecap="round" stroke-linejoin="round" stroke-width="3.4"/>
  <path d="m106.1 53.99-3.89-1.38" stroke="#34496D" stroke-linecap="round" stroke-linejoin="round" stroke-width="2.55"/>
  <path d="m95.06 51.51-5.57 1.85" stroke="#34496D" stroke-linecap="round" stroke-linejoin="round" stroke-width="3.4"/>
  <path d="m97.78 56.13-0.17 4.13" stroke="#34496D" stroke-linecap="round" stroke-linejoin="round" stroke-width="3.4"/>
  <path d="m63.12 85.71 6.96-2" opacity=".4" stroke="#FEFFFE" stroke-linecap="round" stroke-linejoin="round" stroke-width="5.1"/>
  <path d="m77.41 77.85c0.4 1.96 2.71 2.13 4.98 0.56s2.32-3.18 0.68-3.74c-2.16-0.8-6.13 0.67-5.66 3.18z" fill="#FEFFFE" opacity=".4"/>
  <path d="m145.5 146.6c-2.86 0-3.38 5.07 0 5.47 3.1 0.4 3.41-5.47 0-5.47z" fill="#FEFFFE" opacity=".4"/>
  <defs>
    <linearGradient id="paint0_linear_2436_11221" x1="187.6" x2="191.8" y1="-11.61" y2="108.5" gradientUnits="userSpaceOnUse">
      <stop stop-color="#A1E6FF" offset="0"/>
      <stop stop-color="#A1E6FF" stop-opacity=".11" offset="1"/>
    </linearGradient>
  </defs>
</svg>