<svg xmlns="http://www.w3.org/2000/svg" width="200" height="200" fill="none" viewBox="0 0 200 200">
  <path d="m176.4 61.94c-1.43-4.46-5.03-4.78-5.93-4.6-1.73 0.37-2.13 2.44-0.72 3.83 2.28 2.42 1.39 5.94-2.08 6.91-5.59-17.99-20.49-37.67-55.64-39.97-11.14-0.7-24.46 0.88-33.55 5.04-4.73-2.67-9.54-4.33-16.23-3.92-7.18 0.44-10.21 9.24-8.07 20.68-6.31 9.07-9.34 17.66-9.34 30.01 0 12.27 3.85 24.9 14 34.69l0.23 0.7c-0.23 5.38-0.23 13.74 4.95 17.32 3.76 2.7 13.05 2.55 17.03-3.31 4.92 1.39 9.09 1.86 13.19 1.99 1.62 4.86 3.79 8.67 9.38 8.67 8.15 0 11.42-2 14.2-8.85 5.18-0.91 11.85-2.52 19.22-5.51 0.89 3.81 3.67 6.23 9.75 6.23 7.92 0 10.23-5.14 10.89-10.64 1-8.59 2.8-13.76 6.19-19.75 3.55-6.68 4.81-14.47 4.51-24.26 6.49-2.48 9.99-9.12 8.02-15.26z" fill="url(#paint0_linear_121_1039)" stroke="#C96B8E" stroke-linecap="round" stroke-linejoin="round" stroke-miterlimit="10" stroke-width="2.3"/>
  <path d="m56.29 51.11c-1.18-6.06-0.98-16.33 3.92-18.4 4.1-1.68 10.41 1.12 12.03 4.21-6.31 4.85-11.83 8.49-15.95 14.19z" fill="url(#paint1_linear_121_1039)"/>
  <path d="m117.3 31.1c-8.15 0-15.66 0.91-21.74 5.94-1.52 0.91-2.7-0.81-1.68-2.01 2.54-3.02 7.96-4.81 10.57-5.82 5.59-0.6 14.33-0.19 20.64 1.77-0.33 1.23-2.4 2.85-3.45 3.23-1.35-1.5-2.4-2.99-4.34-3.11z" fill="#C96B8E"/>
  <path d="m167.9 69.31c1.12 0.7 1.82 3.6 1.32 4.9 4.22-1.87 7.55-7.4 6.4-11.27-0.83-3.09-2.8-4.58-4.43-4.88-1.15-0.24-1.84 1.25-1.05 2.16 3.56 3.49 1.59 7.25-2.24 9.09z" fill="url(#paint2_linear_121_1039)" stroke="#C96B8E" stroke-linecap="round" stroke-linejoin="round" stroke-miterlimit="10" stroke-width="2.3"/>
  <path d="m119.7 36.79c-6.28 0.79-11.77 4.24-13.98 7.11-0.96 1.26 0.8 2.62 1.89 1.51 3.82-3.7 8.55-6.18 13.31-6.3 7.79-0.25 9 8.61 8.2 19.13-0.23 1.79 0.76 2.04 1.29 0.62 2.41-5.11 1.12-14.72-1.29-18.85-1.94-2.6-5.4-3.57-9.42-3.22z" fill="#C96B8E" stroke="#C96B8E" stroke-linecap="round" stroke-linejoin="round" stroke-miterlimit="10" stroke-width="1.09"/>
  <path d="m121.3 42.92c-2.44-2.91-11.21 1.4-13.52 4.89 5.32 2.87 8.32 7.25 9.98 10.25 1.15 1.85 2.44 0.68 3.04-1.35 1.29-4.45 2.15-11.66 0.5-13.79z" fill="url(#paint3_linear_121_1039)"/>
  <path d="m61.14 115.4c0 2.77-0.53 9.39 1.09 13.38 2.18 4.8 12.63 5.65 17.42 0-6.22-2.04-13.76-7.7-18.51-13.38z" fill="url(#paint4_linear_121_1039)" stroke="#C96B8E" stroke-linecap="round" stroke-linejoin="round" stroke-miterlimit="10" stroke-width="2"/>
  <path d="m126.1 129v10.87c0 5.93 12.87 10.72 25.69 10.72s29.01-4.21 29.01-10.14v-9.38l-54.7-2.07z" fill="url(#paint5_linear_121_1039)" stroke="#c93" stroke-linecap="round" stroke-linejoin="round" stroke-miterlimit="10" stroke-width="2.3"/>
  <path d="m151.8 139.4c13.11 0 29.01-3.69 29.01-9.09s-13.18-8.6-26.29-8.6-28.41 2.68-28.41 8.6c0 5.93 12.58 9.09 25.69 9.09z" fill="url(#paint6_linear_121_1039)" stroke="#c93" stroke-linecap="round" stroke-linejoin="round" stroke-miterlimit="10" stroke-width="2.3"/>
  <path d="m127 145v9.85c0 5.23 12.02 8 25.3 8s28.51-3.87 28.51-8.45v-8.28l-53.81-1.12z" fill="url(#paint7_linear_121_1039)" stroke="#c93" stroke-linecap="round" stroke-linejoin="round" stroke-miterlimit="10" stroke-width="2.3"/>
  <path d="m151.8 152.4c13.11 0 29.01-3.69 29.01-9.09s-13.18-4.17-26.29-4.17-28.41-1.23-28.41 4.17 12.58 9.09 25.69 9.09z" fill="url(#paint8_linear_121_1039)" stroke="#c93" stroke-linecap="round" stroke-linejoin="round" stroke-miterlimit="10" stroke-width="2.3"/>
  <path d="m38.21 153c2.71 5.11 14.92 7.41 28.2 7.41s17-2.61 17-7.19v-8.28l-42.29 1.49-2.91 6.57z" fill="url(#paint9_linear_121_1039)" stroke="#c93" stroke-linecap="round" stroke-linejoin="round" stroke-miterlimit="10" stroke-width="2.3"/>
  <path d="m63.63 151.2c13.11 0 19.78-2.81 19.78-8.21s-10.58-6.89-23.69-6.89-21.51 1.47-21.51 6.89 12.31 8.21 25.42 8.21z" fill="url(#paint10_linear_121_1039)" stroke="#c93" stroke-linecap="round" stroke-linejoin="round" stroke-miterlimit="10" stroke-width="2.3"/>
  <path d="m46.78 142.1c3.63 1.6 8.23 2.15 15.26 2.15 13.28 0 18.47-3.15 18.47-9.08s-9.6-7.42-22.72-7.42c-2.68 0-4.99 0.12-7.17 0.3l-3.84 14.05z" fill="url(#paint11_linear_121_1039)" stroke="#c93" stroke-linecap="round" stroke-linejoin="round" stroke-miterlimit="10" stroke-width="2.3"/>
  <path d="m71.58 137.8v24.1c0 4.91 11.43 9.11 27.62 9.11 14.19 0 28.79-4.2 28.79-8.51v-7.78l-1.87-4.8v-12.12h-54.54z" fill="url(#paint12_linear_121_1039)" stroke="#c93" stroke-linecap="round" stroke-linejoin="round" stroke-miterlimit="10" stroke-width="2.3"/>
  <path d="m99.2 155.6c14.19 0 26.92-3.92 26.92-9.32s-12.73-8.45-26.92-8.45-26.92 3.05-26.92 8.45 12.73 9.32 26.92 9.32z" fill="url(#paint13_linear_121_1039)" stroke="#c93" stroke-linecap="round" stroke-linejoin="round" stroke-miterlimit="10" stroke-width="2.3"/>
  <path d="m99.2 161.2c14.19 0 26.92-3.35 26.92-7.44 0-4.1-12.73-4.91-26.92-4.91s-26.92 0.81-26.92 4.91c0 4.09 12.73 7.44 26.92 7.44z" fill="url(#paint14_linear_121_1039)" stroke="#c93" stroke-linecap="round" stroke-linejoin="round" stroke-miterlimit="10" stroke-width="1.73"/>
  <path d="m99.2 146.3c13.11 0 26.92-3.15 26.92-8.57s-12.73-6.91-26.92-6.91-26.92 1.49-26.92 6.91 13.81 8.57 26.92 8.57z" fill="url(#paint15_linear_121_1039)" stroke="#c93" stroke-linecap="round" stroke-linejoin="round" stroke-miterlimit="10" stroke-width="2.3"/>
  <path d="m16.76 161.6c9.73 0 32.4-13.93 38.05-25.69 2.31-4.8 0.85-8.91-2.05-10.74-0.89-4.97-3.99-6.92-8.85-6.28-13.84 1.91-32.37 16.07-38.02 27.17-1.97 3.92-1.84 5.59 0.13 8.67 3.13 3.92 5.23 6.87 10.74 6.87z" fill="url(#paint16_linear_121_1039)" stroke="#c93" stroke-linecap="round" stroke-linejoin="round" stroke-miterlimit="10" stroke-width="2"/>
  <path d="m10.71 152.7c9.43 0 27.7-12.1 35.42-22.56 2.77-3.74 3.63-9.34 0.13-9.94-10.25-1.77-32.35 13.58-39.05 25.5-2.37 4.28-1.97 7 3.5 7z" fill="url(#paint17_linear_121_1039)" stroke="#c93" stroke-linecap="round" stroke-linejoin="round" stroke-miterlimit="10" stroke-width="1.73"/>
  <path d="m18.11 110-1.69 4.51-5.55 2.77 5.55 2.36 1.69 5.11 2.61-5.48 4.99-1.99-4.99-2.77-2.61-4.51z" fill="#FEE398"/>
  <path d="m180.4 104.5-2.24 5.01-5.39 2.59 5.12 2.5 2.24 5 3.13-5.99 4.69-2.01-5.09-2.71-2.46-4.39z" fill="#FEE398"/>
  <path d="m191 120.9-1.29 3.55-3.26 1.85 3.26 1.23 1.29 2.87 1.94-3.49 2.68-0.91-3-1.85-1.62-3.25z" fill="#FEE398"/>
  <path d="m32.98 102.7-1.29 3.55-3.26 1.85 3.26 1.23 1.29 2.87 1.94-3.49 2.68-0.91-3-1.85-1.62-3.25z" fill="#FEE398"/>
  <path d="m45.86 127.2-1.55 3.85-4.06 2.19 4.06 1.46 1.55 3.49 1.91-4.54 3.36-1.17-3.72-2.22-1.55-3.06z" fill="#FEFFFE"/>
  <path d="m83.64 142-1.15 3.26-3.27 1.49 3.27 0.85 1.15 2.28 1.62-3.49 2.68-0.79-3.01-1.49-1.29-2.11z" fill="#FEFFFE"/>
  <path d="m170.9 130-1.29 4.68-4.63 1.2 4.63 1.49 1.29 2.9 1.8-4.58 4.36-1.32-4.36-1.78-1.8-2.59z" fill="#FEFFFE"/>
  <path d="m118.1 67.76c-3.13-2.03-7.95-3.58-11.68-3.58-1.97 0-3.66 1.93-3.16 4.48 1.29 6.26 5.51 6.26 8.09 5.29 3.56-1.34 6.56-3.76 6.75-6.19z" fill="#F295A5" opacity=".2"/>
  <path d="m129.7 34.72c19.98 6.37 34.2 21.19 35.39 42.12 0.73 11.92-2.37 20.24-6.93 28.28-3.89 6.79-2.67 15.69-5.38 21.92-2.67 4.14-11.78 3.8-13.47-0.73 2.11-1.85 5.57-4.6 5.9-6.56-9.01 6.38-20.49 9.18-27.06 9.86 0.23-1.79 0.1-4.49-0.79-4.49-1.42 0-1.32 7.63-5.15 11.5-2.44 2.3-8.59 2-10.7 1.09-3.56-1.6-5.59-8.22-5.99-11.97-0.2-1.03-1.82-0.8-1.82 0v3.69c-21.7-2.72-42.4-15.69-46.89-36.23-2.61-11.04-0.67-23.45 3.39-32.09 1.49 6 6.22 9.6 9.81 9.22 4.23-0.46 8.09-6.5 11.22-8.16 1.52-0.79 0.8-3.62-2.11-4.35-3.33-0.91-8.92-0.66-12.41-0.17 2.11-4.34 9.35-12.54 20.89-20.32 8.28-3.87 19.65-6.11 27.3-6.73 8.28-0.49 17.2 1.41 24.8 4.12z" fill="url(#paint18_radial_121_1039)" opacity=".2"/>
  <path d="m48.43 58.18c0.14-1.55 0.93-2.34 2.69-2.34 4.99 0 18 0.3 22.29 2.1 1.32 0.55 1.81 1.29 2.01 1.89 2.34-0.3 4.75-0.24 7.49 0.61 1.22-1.95 3.53-2.08 5.84-2.14 5.16-0.12 14.38 1.31 18.98 1.86 3.69 0.44 4.55 3.99 3.4 6.21-0.66 1.23-2.25 1.59-2.68 2.38-1.62 3.21-3.24 8.27-9.32 9.99-4.22 1.23-10.01 0.67-13.01-3.34-2.21-3.14-3.3-9.29-9.38-9.29l-1.87 3.92-14.26 5.73c-7.48 0.38-10.48-3.54-11.6-11.15-0.3-2.2-0.83-4.5-0.58-6.43z" fill="url(#paint19_linear_121_1039)"/>
  <path d="m52.83 76.54c-3.36 0-5.12 1.39-5.12 3.38 0 2.24 1.52 3.09 5.12 3.09 3.33 0 5.44-1.39 5.44-3.28 0-2-2.11-3.19-5.44-3.19z" fill="#EF4136" opacity=".2"/>
  <path d="m102.9 81.16c-4.36 0-6.9 1.49-6.9 3.67s2.54 3.09 6.9 3.09c4.12 0 6.2-1.73 6.2-3.69 0-1.95-2.34-3.07-6.2-3.07z" fill="#EF4136" opacity=".2"/>
  <path d="m74.28 70.03c-9.67 0-16.36 5.73-16.36 12.98 0 7.24 6.14 12.31 15.81 12.31 10.51 0 16.13-5.38 16.13-12.62 0-6.76-5.92-12.67-15.58-12.67z" fill="url(#paint20_linear_121_1039)" stroke="#C96B8E" stroke-linecap="round" stroke-linejoin="round" stroke-miterlimit="10" stroke-width="2"/>
  <path d="m73.72 72.22c-7.89 0-12.71 4.5-12.71 10.79 0 5.81 5.59 9.3 13.47 9.3 8.31 0 12.53-3.95 12.53-9.48 0-5.93-5.39-10.61-13.29-10.61z" fill="url(#paint21_linear_121_1039)"/>
  <path d="m67.31 84.86c1.22 0 1.75-1.85 1.75-3.7s-0.69-3.23-1.75-3.23c-1.22 0-1.62 1.38-1.62 3.23s0.4 3.7 1.62 3.7z" fill="#C9607E"/>
  <path d="m77.61 86.71c1.62 0 2.18-1.97 2.18-3.7 0-1.96-0.86-3.28-2.05-3.28-1.38 0-1.88 1.32-1.88 3.28 0 1.73 0.5 3.7 1.75 3.7z" fill="#C9607E"/>
  <path d="m80.51 100.3c4.62 0.85 8.85-1.45 11.16-5.26" stroke="#C96B8E" stroke-linecap="round" stroke-linejoin="round" stroke-miterlimit="10" stroke-width="2.6"/>
  <path d="m53.13 66.06 7.28-7.45h4.39l-9.69 12.35-1.98-4.9z" fill="#FEFFFE" opacity=".3"/>
  <path d="m60.01 69.99 8.15-10.15 2.11 0.91-8.15 10.52-2.11-1.28z" fill="#FEFFFE" opacity=".3"/>
  <path d="m87.21 73.86 6.91-12.63 4.79 0.71-9.42 13.96-2.28-2.04z" fill="#FEFFFE" opacity=".3"/>
  <path d="m92.33 76.1 9.98-12.97 1.8 0.38-9.99 13.19-1.79-0.6z" fill="#FEFFFE" opacity=".3"/>
  <defs>
    <linearGradient id="paint0_linear_121_1039" x1="109.9" x2="109.9" y1="28" y2="140.1" gradientUnits="userSpaceOnUse">
      <stop stop-color="#FFBDCD" offset="0"/>
      <stop stop-color="#FBA8C2" offset="1"/>
    </linearGradient>
    <linearGradient id="paint1_linear_121_1039" x1="63.72" x2="63.72" y1="32.01" y2="51.11" gradientUnits="userSpaceOnUse">
      <stop stop-color="#FFBDCD" offset="0"/>
      <stop stop-color="#FBA8C2" offset="1"/>
    </linearGradient>
    <linearGradient id="paint2_linear_121_1039" x1="172.4" x2="172.4" y1="57.96" y2="74.21" gradientUnits="userSpaceOnUse">
      <stop stop-color="#FFBDCD" offset="0"/>
      <stop stop-color="#FBA8C2" offset="1"/>
    </linearGradient>
    <linearGradient id="paint3_linear_121_1039" x1="117" x2="117" y1="41.76" y2="59.3" gradientUnits="userSpaceOnUse">
      <stop stop-color="#F17687" offset="0"/>
      <stop stop-color="#F890A0" offset="1"/>
    </linearGradient>
    <linearGradient id="paint4_linear_121_1039" x1="70.4" x2="70.4" y1="115.4" y2="133.5" gradientUnits="userSpaceOnUse">
      <stop stop-color="#F17687" offset="0"/>
      <stop stop-color="#F890A0" offset="1"/>
    </linearGradient>
    <linearGradient id="paint5_linear_121_1039" x1="153.5" x2="153.5" y1="129" y2="150.6" gradientUnits="userSpaceOnUse">
      <stop stop-color="#FEE589" offset="0"/>
      <stop stop-color="#F6B153" offset="1"/>
    </linearGradient>
    <linearGradient id="paint6_linear_121_1039" x1="153.5" x2="153.5" y1="121.7" y2="139.4" gradientUnits="userSpaceOnUse">
      <stop stop-color="#FFF8C7" offset="0"/>
      <stop stop-color="#FFE17A" offset="1"/>
    </linearGradient>
    <linearGradient id="paint7_linear_121_1039" x1="153.9" x2="153.9" y1="145" y2="162.9" gradientUnits="userSpaceOnUse">
      <stop stop-color="#FEE589" offset="0"/>
      <stop stop-color="#F6B153" offset="1"/>
    </linearGradient>
    <linearGradient id="paint8_linear_121_1039" x1="153.5" x2="153.5" y1="137.8" y2="152.4" gradientUnits="userSpaceOnUse">
      <stop stop-color="#FFF8C7" offset="0"/>
      <stop stop-color="#FFE17A" offset="1"/>
    </linearGradient>
    <linearGradient id="paint9_linear_121_1039" x1="60.81" x2="60.81" y1="144.9" y2="160.4" gradientUnits="userSpaceOnUse">
      <stop stop-color="#FEE589" offset="0"/>
      <stop stop-color="#F6B153" offset="1"/>
    </linearGradient>
    <linearGradient id="paint10_linear_121_1039" x1="60.81" x2="60.81" y1="136.1" y2="151.2" gradientUnits="userSpaceOnUse">
      <stop stop-color="#FFF8C7" offset="0"/>
      <stop stop-color="#FFE17A" offset="1"/>
    </linearGradient>
    <linearGradient id="paint11_linear_121_1039" x1="59.64" x2="59.64" y1="127.8" y2="144.3" gradientUnits="userSpaceOnUse">
      <stop stop-color="#FFF8C7" offset="0"/>
      <stop stop-color="#FFE17A" offset="1"/>
    </linearGradient>
    <linearGradient id="paint12_linear_121_1039" x1="99.78" x2="99.78" y1="137.8" y2="171" gradientUnits="userSpaceOnUse">
      <stop stop-color="#FEE589" offset="0"/>
      <stop stop-color="#F6B153" offset="1"/>
    </linearGradient>
    <linearGradient id="paint13_linear_121_1039" x1="99.2" x2="99.2" y1="137.8" y2="155.6" gradientUnits="userSpaceOnUse">
      <stop stop-color="#FFF8C7" offset="0"/>
      <stop stop-color="#FFE17A" offset="1"/>
    </linearGradient>
    <linearGradient id="paint14_linear_121_1039" x1="99.2" x2="99.2" y1="148.8" y2="161.2" gradientUnits="userSpaceOnUse">
      <stop stop-color="#FFF8C7" offset="0"/>
      <stop stop-color="#FFE17A" offset="1"/>
    </linearGradient>
    <linearGradient id="paint15_linear_121_1039" x1="99.2" x2="99.2" y1="130.8" y2="146.3" gradientUnits="userSpaceOnUse">
      <stop stop-color="#FFF8C7" offset="0"/>
      <stop stop-color="#FFE17A" offset="1"/>
    </linearGradient>
    <linearGradient id="paint16_linear_121_1039" x1="30.8" x2="30.8" y1="118.7" y2="161.6" gradientUnits="userSpaceOnUse">
      <stop stop-color="#FEE589" offset="0"/>
      <stop stop-color="#F6B153" offset="1"/>
    </linearGradient>
    <linearGradient id="paint17_linear_121_1039" x1="27.4" x2="27.4" y1="120.1" y2="152.7" gradientUnits="userSpaceOnUse">
      <stop stop-color="#FFF8C7" offset="0"/>
      <stop stop-color="#FFE17A" offset="1"/>
    </linearGradient>
    <radialGradient id="paint18_radial_121_1039" cx="0" cy="0" r="1" gradientTransform="translate(97.31 63.52) scale(68.35 58.91)" gradientUnits="userSpaceOnUse">
      <stop stop-color="#FFD2DE" offset="0"/>
      <stop stop-color="#FBA8C2" stop-opacity=".01" offset="1"/>
    </radialGradient>
    <linearGradient id="paint19_linear_121_1039" x1="79.92" x2="79.92" y1="55.84" y2="79.58" gradientUnits="userSpaceOnUse">
      <stop stop-color="#00001B" offset="0"/>
      <stop stop-color="#2A1A36" offset="1"/>
    </linearGradient>
    <linearGradient id="paint20_linear_121_1039" x1="73.89" x2="73.89" y1="70.03" y2="95.32" gradientUnits="userSpaceOnUse">
      <stop stop-color="#FBA8C2" offset="0"/>
      <stop stop-color="#CB647A" offset="1"/>
    </linearGradient>
    <linearGradient id="paint21_linear_121_1039" x1="74.01" x2="74.01" y1="72.22" y2="92.31" gradientUnits="userSpaceOnUse">
      <stop stop-color="#FBA8C2" offset="0"/>
      <stop stop-color="#F17687" offset="1"/>
    </linearGradient>
  </defs>
</svg>