<svg xmlns="http://www.w3.org/2000/svg" width="200" height="200" viewBox="0 0 200 200" fill="none">
<path opacity="0.3" d="M 95.04,188.16 C 77.95,188.16 65.19,189.91 65.19,192.4 C 65.19,194.68 77.95,196.19 95.04,196.19 C 112.13,196.19 127.46,194.68 127.46,192.4 C 127.46,189.91 112.13,188.16 95.04,188.16 Z" fill="#1B647D"/>
<path d="M 172.71,95.72 C 178.75,104.14 178.78,119.09 172.08,128.7 C 164.85,139.3" fill="#1B647D"/>
<path d="M 172.71,95.72 C 178.75,104.14 178.78,119.09 172.08,128.7 C 164.85,139.31 156.34,142.16 148.78,141.62 C 138.71,140.88 133.07,135.38 133.53,128.91 C 134.13,120.76 142.12,116.96 148.12,117.98 C 154.44,119.06 157.28,123.74 157.66,128.81 C 160.81,129.83 160.81,134.29 159.11,135.52 C 166.02,132.99 172.13,123.74 172.52,120.76 L 173.31,121.01 C 176.15,112.21 174.76,102.21 172.71,95.72 Z" fill="#E6F0F4" stroke="#88A4B2" stroke-width="0.7" stroke-linecap="round" stroke-linejoin="round"/>
<path d="M 145.81,122.56 C 140.99,121.86 138.66,124.95 138.93,127.78 C 137.71,128.18 136.82,128.59 136.62,130.73 C 136.31,133.91 139.96,137.49 143.01,137.39 C 144.63,137.34 145.21,136.17 146.43,136.27 C 148.06,136.43 148.21,137.8 149.84,137.8 C 151.68,137.8 153.72,136.12 155.46,135.82 C 156.99,135.52 156.79,131.14 154.23,130.63 C 152.29,130.23 151.07,128.59 150.76,126.56 C 150.46,124.72 148.42,122.93 145.81,122.56 Z" fill="#FEFFFE" stroke="#88A4B2" stroke-width="0.7" stroke-linecap="round" stroke-linejoin="round"/>
<path d="M 159.11,140.12 C 160.69,142.06 160.03,145.63 158.81,146.66 C 161.25,151.92 157.95,158.01 150.56,163.12 C 149.03,164.09 149.84,167.12 146.89,167.12 C 145.97,167.12 145.41,167.68 144.75,169.1 C 142.91,172.68 137.91,174.72 134.31,173.44 C 133.18,173.03 132.77,173.64 132.06,175.07 C 130.12,178.55 125.12,180.69 122.07,178.55 C 121.26,178.04 120.03,179.26 118.81,179.98 C 116.16,181.51 110.61,182.93 108.38,182.01 L 110.92,180.59 C 107.77,179.06 105.83,178.75 103.28,181.1 C 100.74,183.94 97.29,183.23 96.37,180.08 L 94.84,179.88 C 90.73,182.12 84.41,182.62 81.16,181.61 C 67.06,180.79 56.08,174.1 50.13,168.03 C 48.6,169.66 44.79,169.72 43.88,167.07 C 41.03,169.21 37.23,167.68 36.31,164.11 C 35.29,160.73 35.39,157.8 38.24,157.19 L 39.06,158.11 L 40.79,156.07 C 43.34,159.35 46.18,160.78 47.31,160.17 C 48.74,159.25 48.84,153.18 45.79,150.24 C 46.91,147.8 49.86,147.08 51.9,148.92 L 52.2,149.83 C 54.95,148.92 57.29,150.95 57.29,153.79 C 59.63,154.1 60.24,157.24 57.19,159.88 L 56.27,160.69 L 57.19,162.22 L 55.76,163.03 C 61.71,168.7 68.33,173.29 73.98,174.31 L 73.47,175.02 C 77.48,175.43 79.72,176.14 81.05,176.65 L 84.6,177.57 C 88.81,177.78 92.92,173.44 97.03,173.85 C 99.98,174.15 101.1,175.17 102.43,176.39 C 105.58,174.05 109.69,173.75 113.8,175.07 C 115.02,170.84 118.17,169.1 122.28,170.02 C 123.81,165.06 128.42,162.92 134.47,165.96 C 136.91,162.32 141.31,162.32 143.96,165.16 C 145.59,158.57 148.43,157.24 150.97,157.45 C 155.18,153.28 155.18,150.65 153.65,147.7 C 153.24,145.66 154.98,142.42 156.92,141.61 L 159.11,140.12 Z" fill="#E6F0F4" stroke="#88A4B2" stroke-width="0.7" stroke-linecap="round" stroke-linejoin="round"/>
<path d="M 157.23,5.61 L 118.82,24.73 C 116.62,25.79 115.78,28.19 116.81,30.47 L 146.68,93.93 C 147.81,96.52 150.15,96.93 152.69,95.71 L 193.01,76.62 C 195.45,75.5 196.06,73.66 194.84,70.62 L 166.29,7.08 C 165.17,4.24 162.62,3.73 157.23,5.61 Z" fill="#F7C957" stroke="#1B4145" stroke-width="0.7" stroke-linecap="round" stroke-linejoin="round"/>
<path d="M 157.12,10.62 L 125.85,25.14 C 126.36,27.98 123.92,31.26 121.78,32.58 L 146.99,86.19 C 150.14,85.48 153.09,86.6 154.62,89.54 L 186.19,75.61 C 185.17,71.23 187.11,69.09 189.66,67.35 L 165.17,13.16 C 161.72,14.28 158.34,13.46 157.12,10.62 Z" fill="#FEFBE1" stroke="#1B4145" stroke-width="0.7" stroke-linecap="round" stroke-linejoin="round"/>
<path d="M 132.41,30.5 C 135.06,29.13 137.06,30.79 137.77,33.01 C 138.58,35.62 137.77,38.06 135.32,39.03 C 132.72,40.1 130.71,38.73 129.85,36.23 C 128.88,33.39 130.05,31.51 132.41,30.5 Z M 135.01,37.51 C 136.54,36.79 136.54,35.01 135.83,33.28 C 135.22,31.76 134.04,31.05 132.77,31.71 C 131.29,32.52 131.13,34.09 131.85,35.93 C 132.51,37.61 133.63,38.22 135.01,37.51 Z" fill="#1B4145"/>
<path d="M 137.01,28.16 L 142.21,25.92 L 142.72,27.24 L 139.37,28.72 L 140.39,31.26 L 143.03,30.14 L 143.54,31.36 L 140.9,32.58 L 142.42,36.26 L 140.79,37.08 L 137.01,28.16 Z" fill="#1B4145"/>
<path d="M 143.24,25.42 L 148.43,23.18 L 148.94,24.5 L 145.59,25.98 L 146.61,28.52 L 149.25,27.4 L 149.76,28.62 L 147.12,29.84 L 148.64,33.52 L 147.01,34.34 L 143.24,25.42 Z" fill="#1B4145"/>
<path d="M 148.74,22.98 L 153.73,20.64 L 154.34,21.86 L 150.99,23.44 L 152.11,26.08 L 154.76,24.86 L 155.27,25.98 L 152.62,27.3 L 153.84,29.94 L 157.39,28.21 L 157.9,29.53 L 152.82,32 L 148.74,22.98 Z" fill="#1B4145"/>
<path d="M 154.45,19.83 L 157.19,18.61 C 159.03,17.79 160.25,18.61 160.87,19.73 C 161.38,20.65 161.27,21.77 160.46,22.58 L 162.8,25.96 L 160.97,26.88 L 158.83,23.74 L 157.4,24.45 L 158.93,27.79 L 157.29,28.61 L 153.43,19.94 L 154.45,19.83 Z M 158.11,22.68 C 159.03,22.27 159.23,21.46 158.72,20.54 C 158.21,19.73 157.4,19.53 156.58,19.93 L 156.07,20.24 L 157.4,23.18 L 158.11,22.68 Z" fill="#1B4145"/>
<path d="M 132.82,43.33 L 134.45,42.41 L 137.5,48.99 L 140.75,47.36 L 141.36,48.79 L 136.57,51.23 L 132.82,43.33 Z" fill="#1B4145"/>
<path d="M 137.91,40.79 L 142.91,38.05 L 143.52,39.27 L 139.97,41.2 L 141.29,43.64 L 143.94,42.21 L 144.55,43.33 L 141.9,44.86 L 143.33,47.4 L 146.78,45.46 L 147.49,46.79 L 142.4,49.63 L 137.91,40.79 Z" fill="#1B4145"/>
<path d="M 146.62,37.75 L 144.58,38.97 L 143.87,37.65 L 149.52,34.31 L 150.33,35.63 L 148.19,36.95 L 151.75,43.43 L 150.12,44.45 L 146.62,37.75 Z" fill="#1B4145"/>
<path d="M 152.46,34.61 L 150.42,35.83 L 149.71,34.51 L 155.36,31.17 L 156.17,32.49 L 154.03,33.81 L 157.59,40.29 L 155.96,41.31 L 152.46,34.61 Z" fill="#1B4145"/>
<path d="M 155.11,31.77 L 160.1,29.03 L 160.71,30.25 L 157.26,32.18 L 158.59,34.62 L 161.23,33.19 L 161.84,34.31 L 159.2,35.84 L 160.62,38.38 L 164.07,36.44 L 164.78,37.77 L 159.69,40.61 L 155.11,31.77 Z" fill="#1B4145"/>
<path d="M 161.06,29.53 L 163.71,28.21 C 165.54,27.29 166.77,28.11 167.38,29.23 C 167.89,30.15 167.79,31.27 166.97,32.08 L 169.31,35.32 L 167.48,36.34 L 165.34,33.2 L 163.91,33.91 L 165.44,37.15 L 163.81,38.07 L 160.05,29.53 H 161.06 Z M 164.72,32.18 C 165.64,31.67 165.85,30.86 165.34,29.94 C 164.83,29.13 164.01,28.92 163.19,29.33 L 162.58,29.64 L 163.91,32.58 L 164.72,32.18 Z" fill="#1B4145"/>
<path d="M 139.23,56.21 L 170.5,41.3" stroke="#B6CBCD" stroke-width="1.2" stroke-linecap="round" stroke-linejoin="round"/>
<path d="M 142.18,59.89 L 162.89,50.77" stroke="#B6CBCD" stroke-width="1.2" stroke-linecap="round" stroke-linejoin="round"/>
<path d="M 145.03,65.86 L 159.13,59.28" stroke="#B6CBCD" stroke-width="1.2" stroke-linecap="round" stroke-linejoin="round"/>
<path d="M 169.99,48.53 C 170.91,47.52 172.13,47.52 173.46,48.43 L 174.78,49.25 C 175.91,49.96 175.71,51.18 174.78,52.71 C 170.67,59.29 167.93,70.91 167.42,75.19 C 167.11,77.63 164.97,78.24 163.03,77.02 L 154.62,73.25 C 153.39,72.64 153.09,71.42 153.8,70.1 L 154.41,68.78 C 155.02,67.56 156.15,67.45 157.78,68.27 L 162.88,70.91 C 164.01,63.92 167.06,53.51 169.99,48.53 Z" fill="#66C69E" stroke="#1B4145" stroke-width="0.7" stroke-linecap="round" stroke-linejoin="round"/>
<path d="M 64.98,32.19 L 58.26,28.41 C 56.93,27.59 57.14,26.07 58.26,24.33 L 59.99,20.95 C 61.01,19.01 60.1,17.59 57.86,17.79 L 52.21,18.1 C 50.17,18.2 49.36,17.08 49.46,15.04 L 49.56,10.07 C 49.67,7.93 48.24,7.12 46.5,8.44 L 42.39,11.68 C 40.66,12.9 39.03,12.6 37.91,10.66 L 34.76,6.18 C 33.74,4.65 32.41,4.76 31.39,6.69 L 28.75,11.78 C 27.73,13.61 26.1,14.12 24.16,13.21 L 18.81,10.47 C 17.08,9.55 15.85,10.37 15.95,12.4 L 16.06,16.98 C 16.16,19.12 15.04,20.44 12.89,20.75 L 9.03,21.26 C 6.79,21.46 6.08,22.88 7.51,24.92 L 10.05,28.9 C 11.28,30.73 11.07,32.16 9.24,33.48 L 5.68,36.32 C 4.05,37.64 4.25,39.07 6.29,39.98 L 10.2,41.92 C 12.24,42.84 12.75,44.47 11.53,46.61 L 9.79,50.19 C 8.77,52.33 9.59,53.75 11.93,53.55 L 16.63,53.14 C 18.87,52.94 20.29,54.16 20.39,56.4 L 20.7,60.77 C 20.8,62.91 22.13,63.73 23.96,62.3 L 28.27,59.06 C 30.01,57.74 31.74,58.04 33.07,59.88 L 36.02,64.46 C 37.14,66.29 38.57,66.19 39.48,64.15 L 41.42,59.88 C 42.34,57.84 43.97,57.33 45.91,58.35 L 50.22,60.59 C 52.26,61.61 53.38,60.69 52.98,58.45 L 52.77,53.87 C 52.57,51.73 53.79,50.31 56.03,50.21 L 59.69,49.8 C 61.93,49.6 62.74,48.17 61.32,46.24 L 58.67,42.36 C 57.45,40.52 57.75,38.89 59.59,37.57 L 64.69,33.99 C 65.91,33.28 66.01,32.77 64.98,32.19 Z" fill="#F7C957" stroke="#1B4145" stroke-width="0.7" stroke-linecap="round" stroke-linejoin="round"/>
<path d="M 35.61,13.81 C 23.96,13.81 13.19,23.91 13.19,35.73 C 13.19,47.56 22.43,56.07 34.08,56.07 C 45.73,56.07 55.71,46.27 55.71,35.22 C 55.71,24.17 46.36,13.81 35.61,13.81 Z" fill="#F9D666" stroke="#1B4145" stroke-width="0.7" stroke-linecap="round" stroke-linejoin="round"/>
<path opacity="0.1" d="M 36.83,15.24 C 46.17,16.97 53.38,25.12 53.38,34.92 C 53.38,44.72 44.75,52.98 35.2,52.98 C 30.11,52.98 25.41,50.74 22.06,47.26 C 25.41,49.7 28.96,50.11 32.82,50.11 C 42.36,50.11 49.97,40.8 49.97,32.27 C 49.97,24.42 44.02,17.07 36.83,15.24 Z" fill="#CC7930"/>
<path opacity="0.5" d="M 17.79,28.62 C 18.71,24.14 23.21,19.77 26.76,18.04 C 28.49,17.23 28.9,19.16 27.37,20.28 C 24.12,22.52 21.78,25.16 19.84,28.83 C 19.02,30.46 17.39,30.36 17.79,28.62 Z" fill="#FEFFFE"/>
<path d="M 24.99,36.46 C 25.91,34.73 28.25,33.91 29.17,35.44" stroke="#1B4145" stroke-width="0.7" stroke-linecap="round" stroke-linejoin="round"/>
<path d="M 41.27,32.18 C 42.19,30.14 43.92,29.33 45.65,30.35" stroke="#1B4145" stroke-width="0.7" stroke-linecap="round" stroke-linejoin="round"/>
<path opacity="0.3" d="M 24.17,38.71 C 21.93,39.62 20.91,42.96 23.05,43.37 C 25.69,43.88 28.24,42.15 27.83,40.22 C 27.53,38.8 26.2,37.89 24.17,38.71 Z" fill="#DB3A35"/>
<path opacity="0.3" d="M 46.67,33.91 C 44.43,34.82 44.02,37.16 46.46,37.47 C 49.21,37.87 50.33,36.25 50.02,34.82 C 49.72,33.4 48.39,33.2 46.67,33.91 Z" fill="#DB3A35"/>
<path opacity="0.3" d="M 32.72,36.76 C 33.74,38.8 37.3,39.62 38.62,36.48" stroke="#1B4145" stroke-width="0.7" stroke-linecap="round" stroke-linejoin="round"/>
<path d="M 129.2,76.21 C 128.28,72.83 129.91,67.16 134.12,65.94 C 135.75,65.43 137.08,67.16 136.26,68.59 L 134.02,71.33 L 134.33,75.01 L 137.18,78.99 L 136.16,82.17 L 129.2,76.21 Z" fill="#F5C2B3" stroke="#1B4145" stroke-width="0.7" stroke-linecap="round" stroke-linejoin="round"/>
<path d="M 116.84,135.94 C 117.04,142.93 116.73,157.15 110.78,161.12 C 104.83,163.87 98.41,160.29 93.71,155.72 L 94.22,150.85 L 98.22,146.88 L 92.88,156.13 L 85.86,161.39 L 80.01,160.27 L 70.26,153.48 L 70.16,147.09 L 73.21,142.92 L 78.95,145.66 L 82.3,137.31 L 116.84,135.94 Z" fill="#417593" stroke="#1B4145" stroke-width="0.7" stroke-linecap="round" stroke-linejoin="round"/>
<path d="M 115.21,108.71 C 121.76,103.84 134.12,87.19 136.97,81.83 C 137.48,80.61 131.93,75.04 129.19,75.65 C 127.25,76.16 121.3,85.97 117.75,87.29 L 115.21,108.71 Z" fill="#96D9C0" stroke="#1B4145" stroke-width="0.7" stroke-linecap="round" stroke-linejoin="round"/>
<path d="M 72.49,141.4 C 67.89,140.38 63.29,148.82 63.09,152.1 C 62.88,154.64 65.02,155.76 67.26,154.74 C 68.79,154.03 70.12,152.91 70.42,152.1 C 70.12,147.92 73.57,143.94 77.68,144.86 C 77.37,143.74 75.03,141.91 72.49,141.4 Z" fill="#779BAE" stroke="#1B4145" stroke-width="0.7" stroke-linecap="round" stroke-linejoin="round"/>
<path d="M 104.01,144.97 L 100.35,145.79 L 100.96,152.37" stroke="#1B4145" stroke-width="0.7" stroke-linecap="round" stroke-linejoin="round"/>
<path d="M 93.61,101.82 C 97.72,102.13 101.07,101.42 103.2,100.4 C 103.92,103.04 102.28,107.12 97.58,107.02 C 94.64,106.92 92.7,104.58 92.09,102.95 L 93.61,101.82 Z" fill="#F5C2B3" stroke="#1B4145" stroke-width="0.7" stroke-linecap="round" stroke-linejoin="round"/>
<path d="M 117.34,76.31 C 119.18,75.39 121.11,76.21 121.42,78.45 C 122.03,82.23 118.47,86.7 116.74,87.01 L 117.34,76.31 Z" fill="#F5C2B3" stroke="#1B4145" stroke-width="0.7" stroke-linecap="round" stroke-linejoin="round"/>
<path d="M 70.15,58.06 C 70.25,54.92 71.99,50.24 73.41,50.04 C 74.43,49.84 74.64,52.78 74.43,54.31 C 78.19,49.73 84.24,44.57 94.6,44.67 C 102.39,44.67 106.99,48.65 113.14,49.67 C 117.04,50.28 118.17,50.48 117.25,51.91 C 116.43,53.23 114.8,53.95 113.88,54.45 C 117.64,56.69 121.2,61.27 121.91,65.05 C 122.22,66.47 121.4,66.47 120.18,65.97 C 119.16,65.46 117.83,65.05 117.83,65.05 C 120.38,68.93 119.67,73.9 117.12,77.04 L 115.19,72.27 C 110.09,72.88 105.1,70.44 101.55,68.2 C 101.24,68.1 100.43,68.2 101.24,70.14 C 101.75,71.36 102.67,72.48 102.98,72.78 C 100.23,73.6 96.68,72.48 95.05,71.05 C 94.54,71.05 94.13,71.36 94.64,73.19 C 94.95,74.41 95.56,75.23 95.56,75.23 C 88.84,76.25 84.63,73.2 82.08,70.06 C 81.16,75.13 78.92,79.8 76.48,81.73 L 75.77,79.19 L 75.46,88.99 L 73.93,86.35 C 71.79,84.52 68.95,85.74 67.82,87.67 C 61.47,80.31 60.04,69.01 66.7,62.02 C 67.21,61.41 67.72,61.21 68.02,60.9 C 66.7,60.29 63.65,60.29 63.14,59.89 C 62.73,59.38 65.17,57.04 70.15,58.06 Z" fill="#564041" stroke="#1B4145" stroke-width="0.7" stroke-linecap="round" stroke-linejoin="round"/>
<path d="M 69.95,87.37 C 66.7,88.9 66.7,94.46 68.94,96.6 C 71.99,99.34 75.85,97.71 76.87,96.49 C 81.27,101.07 87.22,102.9 94.63,102.7 C 102.94,102.39 112.08,97.61 116.68,88.4 L 117.6,76.77 L 115.36,71.11 C 111.5,72.13 105.45,70.09 102.1,68.06 C 101.49,67.75 100.26,67.35 100.77,69.08 C 101.18,70.4 102.2,72.03 102.61,72.64 C 99.36,73.25 96.11,71.93 95.09,71.01 C 94.37,70.4 93.86,70.91 94.27,72.13 C 94.68,73.35 95.19,74.47 95.5,74.98 C 89.25,75.9 85.24,73.35 82.19,70.21 C 81.17,74.78 79.03,79.85 76.59,81.68 L 75.77,78.84 L 75.46,88.94 C 74.34,87.01 72.6,86.09 69.95,87.37 Z" fill="#F9D1B7" stroke="#1B4145" stroke-width="0.7" stroke-linecap="round" stroke-linejoin="round"/>
<path d="M 70.15,89.91 C 70.97,88.08 73.72,88.89 74.53,90.83 C 75.45,93.07 74.23,94.7 72.29,94.4 C 70.15,94.09 69.44,91.44 70.15,89.91 Z" fill="#E08570"/>
<path d="M 86.5,80.11 C 82.19,80.82 81.58,85.79 82.7,88.03 C 84.03,90.97 88.93,91.28 90.97,88.34 C 93.41,84.76 92.08,79.19 86.5,80.11 Z" fill="#FEFFFE" stroke="#1B4145" stroke-width="0.7" stroke-linecap="round" stroke-linejoin="round"/>
<path d="M 108.72,75.04 C 104.41,75.04 103.39,78.72 103.69,80.96 C 104.2,84.34 107.86,85.87 110.71,84.24 C 114.26,82.21 114.36,75.04 108.72,75.04 Z" fill="#FEFFFE" stroke="#1B4145" stroke-width="0.7" stroke-linecap="round" stroke-linejoin="round"/>
<path d="M 109.84,75.65 C 107.19,75.65 106.48,77.89 106.69,79.21 C 107,81.45 108.93,82.16 110.36,81.45 C 112.7,80.23 112.9,75.65 109.84,75.65 Z" fill="#1B4145"/>
<path d="M 89.14,81.23 C 86.8,81.23 86.19,83.47 86.29,84.59 C 86.49,86.63 88.12,87.24 89.45,86.93 C 92.19,86.22 92.39,81.23 89.14,81.23 Z" fill="#1B4145"/>
<path d="M 94.84,90.06 C 94.13,90.37 93.82,92.71 95.25,94.75 C 97.39,97.89 102.28,96.67 104.12,93.63 C 105.44,91.29 105.65,88.05 104.32,87.85 C 103.3,87.65 98.31,89.07 94.84,90.06 Z" fill="#B84646" stroke="#1B4145" stroke-width="0.7" stroke-linecap="round" stroke-linejoin="round"/>
<path opacity="0.3" d="M 112.18,85.17 C 109.94,86.08 109.02,89.42 111.16,89.83 C 113.81,90.34 115.64,89.02 115.75,87.19 C 115.85,85.36 114.42,84.35 112.18,85.17 Z" fill="#DB3A35"/>
<path opacity="0.3" d="M 100.09,83.13 C 98.76,83.13 98.46,81.4 99.78,81.1 C 101.11,80.79 101.62,83.13 100.09,83.13 Z" fill="#A54533"/>
<path d="M 55.81,106.88 C 55.2,107.79 67.15,112.96 81.76,116.24 C 82.98,120.12 81.35,132.75 80.74,135.99 C 80.23,138.83 90.39,139.55 96.03,139.45 C 104.02,139.35 118.32,137.31 119.65,135.07 C 120.36,133.75 118.22,118.18 115.78,106.26 L 114.76,105.96 L 116.08,108.8 C 117.1,108.19 116.9,107.28 115.57,105.96 C 114.76,105.04 116.59,104.43 117.2,103.72 C 118.22,102.6 110.81,100.26 110.81,100.26 C 106.8,103.41 101.26,103.92 96.16,103.31 C 87.43,102.19 71.75,100.05 63.03,97.81 C 58.03,96.49 57.22,95.98 56.61,97.3 C 55.69,98.93 54.98,105.11 55.81,106.88 Z" fill="#96D9C0" stroke="#1B4145" stroke-width="0.7" stroke-linecap="round" stroke-linejoin="round"/>
<path d="M 55.2,95.47 C 53.57,93.84 52.04,91.1 51.02,92.42 C 50.1,93.54 50.92,96.48 50.92,96.48 C 48.07,95.57 44.02,94.55 43.1,95.06 C 41.88,95.77 43.1,97.19 46.05,98.72 C 44.11,98.62 42.08,98.72 41.77,99.64 C 41.36,100.76 43.71,101.37 46.05,101.78 C 44.21,102.08 42.08,102.29 42.08,103.51 C 42.08,104.73 43.61,105.65 44.73,105.65 C 46.77,105.65 49.21,105.45 50.74,105.75 C 53.28,106.26 54.41,105.45 54.92,103.82 C 55.81,100.76 56.93,97.29 55.2,95.47 Z" fill="#F5C2B3" stroke="#1B4145" stroke-width="0.7" stroke-linecap="round" stroke-linejoin="round"/>
<path opacity="0.1" d="M 117.96,134.36 C 118.37,131.12 116.33,117.01 114.49,109.06 L 115.72,109.47 C 116.74,111.3 118.88,126.77 118.88,133.66 C 118.88,134.16 117.96,134.77 117.96,134.36 Z" fill="#1B4145"/>
<path opacity="0.1" d="M 82.69,115.63 C 84.42,116.14 84.63,121.91 83.4,130.35 C 82.79,135.02 82.28,137.06 81.67,136.76 C 80.75,136.35 81.26,134.11 81.77,129.74 C 82.48,124.07 82.07,117.9 81.26,116.07 C 80.75,114.95 81.46,115.25 82.69,115.63 Z" fill="#1B4145"/>
<path d="M 157.01,102.39 L 158.34,105.13 L 161.08,105.74 L 158.95,107.78 L 159.15,110.62 L 156.4,109.1 L 153.76,109.91 L 154.47,107.07 L 152.64,104.93 L 155.59,104.52 L 157.01,102.39 Z" fill="#F7D96A" stroke="#1B4145" stroke-width="0.7" stroke-linecap="round" stroke-linejoin="round"/>
<path d="M 136.31,148.72 L 137.53,151.26 L 139.87,151.87 L 137.84,153.5 L 137.73,155.84 L 135.29,154.42 L 133.15,156.05 L 133.46,153.3 L 132.03,151.47 L 134.68,150.96 L 136.31,148.72 Z" fill="#F7D96A" stroke="#1B4145" stroke-width="0.7" stroke-linecap="round" stroke-linejoin="round"/>
<path d="M 161.41,164.48 L 161.82,165.09 L 161.72,166.41 L 162.53,165.6 L 163.55,165.8 L 163.04,164.68 L 163.45,163.76 L 162.33,163.97 L 161.41,163.26 V 164.48 Z" fill="#E6F0F4" stroke="#1B4145" stroke-width="0.7" stroke-linecap="round" stroke-linejoin="round"/>
<path d="M 167.66,110.22 L 168.07,110.83 L 168.78,110.63 L 168.99,111.44 L 169.6,110.22 L 168.78,109.61 L 168.48,109.01 L 167.66,110.22 Z" fill="#E6F0F4" stroke="#1B4145" stroke-width="0.7" stroke-linecap="round" stroke-linejoin="round"/>
<path d="M 27.32,163.87 L 28.75,166.61 L 31.6,166.81 L 29.36,169.25 L 29.77,171.39 L 26.62,169.97 L 24.48,170.78 L 25.29,167.54 L 23.36,166.01 L 26.51,165.6 L 27.32,163.87 Z" fill="#F7D96A" stroke="#1B4145" stroke-width="0.7" stroke-linecap="round" stroke-linejoin="round"/>
<path d="M 68.43,163.16 C 67.1,163.57 67.31,166.61 68.73,166.71 C 70.47,166.81 70.77,165.39 70.36,163.97 C 70.06,162.95 69.24,162.85 68.43,163.16 Z" stroke="#88A4B2" stroke-width="0.7" stroke-linecap="round" stroke-linejoin="round"/>
<path d="M 46.31,174.26 C 46.92,176.5 47.94,178.64 49.47,178.64 C 50.89,178.64 50.69,176.1 49.47,175.79 C 48.55,175.59 47.22,175.28 46.31,174.26 Z" stroke="#88A4B2" stroke-width="0.7" stroke-linecap="round" stroke-linejoin="round"/>
<path d="M 172.28,140.02 C 170.65,140.53 170.14,142.77 172.08,143.28 C 173.91,143.79 174.42,141.65 173.81,140.53 C 173.41,139.82 172.79,139.82 172.28,140.02 Z" stroke="#88A4B2" stroke-width="0.7" stroke-linecap="round" stroke-linejoin="round"/>
<path d="M 78.29,173.04 L 80.93,173.45" stroke="#88A4B2" stroke-width="0.7" stroke-linecap="round" stroke-linejoin="round"/>
<path d="M 16.51,110.78 C 14.27,112.01 12.64,121.81 14.78,129.07 C 17.12,136.82 21.92,143.2 27.67,148.27 C 29.4,149.19 30.93,148.99 32.05,148.07 L 36.45,149.29 L 43.57,141.14 C 44.18,139.92 43.87,137.18 42.75,134.24 C 37.95,122.62 28.81,110.78 16.51,110.78 Z" fill="#F8E9D3" stroke="#1B4145" stroke-width="0.7" stroke-linecap="round" stroke-linejoin="round"/>
<path d="M 27.36,114.46 C 22.96,118.33 20.01,121.18 13.86,123.22 C 13.56,119.04 13.86,111.79 16.31,110.67 C 18.35,109.76 24.71,112.09 27.36,114.46 Z" fill="#96D9C0" stroke="#1B4145" stroke-width="0.7" stroke-linecap="round" stroke-linejoin="round"/>
<path d="M 39.91,129.17 C 45.01,130.09 49.81,133.96 50.62,140.02 C 50.83,141.45 49.5,141.25 48.28,140.23 C 46.65,138.8 44.91,138.29 42.47,138.5 L 39.91,129.17 Z" fill="#77BCA4" stroke="#1B4145" stroke-width="0.7" stroke-linecap="round" stroke-linejoin="round"/>
<path d="M 21.12,142.16 C 19.69,147.33 21.93,151.71 26.23,155.09 C 27.46,156.11 27.87,154.79 27.77,153.36 C 27.67,151.12 28.18,149.08 29.4,147.56 L 21.12,142.16 Z" fill="#77BCA4" stroke="#1B4145" stroke-width="0.7" stroke-linecap="round" stroke-linejoin="round"/>
<path d="M 26.55,122.62 C 22.64,123.94 20.81,128.91 23.86,131.65 C 26.91,134.39 30.92,132.97 31.84,129.09 C 32.76,125.61 29.91,121.61 26.55,122.62 Z" fill="#96D9C0" stroke="#1B4145" stroke-width="0.7" stroke-linecap="round" stroke-linejoin="round"/>
<path d="M 26.55,124.76 C 24.11,125.67 23.7,129.05 25.74,130.38 C 27.78,131.7 29.71,130.38 30.22,128.65 C 30.93,126.41 29.1,123.86 26.55,124.76 Z" fill="#B3DCF4" stroke="#1B4145" stroke-width="0.7" stroke-linecap="round" stroke-linejoin="round"/>
<path d="M 31.34,135.9 C 30.11,136.61 32.05,142.37 36.65,147.74 C 37.98,149.37 39.61,148.86 39.61,147.03 C 39.71,144.39 33.87,134.78 31.34,135.9 Z" fill="#77BCA4" stroke="#1B4145" stroke-width="0.7" stroke-linecap="round" stroke-linejoin="round"/>
<path d="M 35.09,148.16 C 34.79,151.2 37.53,156.27 42.98,159.11 C 45.12,160.23 46.65,160.33 47.46,158.81 C 48.79,156.17 47.67,151.99 46.14,150.16 C 44.61,148.33 42.77,146.09 39.92,145.48 L 35.09,148.16 Z" fill="#F7C957" stroke="#1B4145" stroke-width="0.7" stroke-linecap="round" stroke-linejoin="round"/>
<path d="M 37.84,156.12 C 37.94,154.69 38.76,155.1 39.78,156.12 C 41.31,157.65 43.04,158.77 44.77,158.16 C 46.51,157.55 46.92,154.18 45.79,151.14 C 44.77,149.51 43.35,150.73 42.53,152.36 C 41.11,153.38 38.26,152.06 37.84,156.12 Z" fill="#F9D666"/>
</svg>