<svg xmlns="http://www.w3.org/2000/svg" width="250" height="250" fill="none" viewBox="0 0 250 250">
  <path d="m173.3 56.92-35.87-37c-2.49-2.61-4.63-2.74-9.25-2.74h-88.5c-10.75 0-20.75 9-20.75 21.9v102.9c-7.5 8.14-12.6 19.78-12.6 28.09 0 7.74 5.66 10.84 12.38 8.51v31.89c0 12.1 8.49 21.26 20.59 21.26h80c13.2 0 27.83-9.36 36.73-19.55 10.75-12.31 19.7-24.42 19.7-41.05v-12.81c4.28-1.21 8.61-3.53 12.12-6.06l10.24-28.21c-8.06 4.04-11.04 6.68-22.06 7.86v-65.68c0-4.15-0.05-6.56-2.73-9.31z" fill="#3D5270"/>
  <path d="m135.8 22.17 34.66 35.69c1.38 1.45 3.19 3.12 3.19 9.39l-0.7 103.7c0 10.66-5.54 15.95-17 15.95h-6.78c-10.3 0-17.07 8.32-17.07 17.69v6.67c0 10-4.35 17.19-13.15 17.19h-79c-10 0-17.81-8-17.81-18v-36.31l3.07-3.44 1.54-31v-100.6c0-10.66 8-18.97 18.3-18.97h82.89c4.2 0 5.78-0.07 7.86 2.06z" fill="#FEF2D3"/>
  <path d="m134.7 20.73c2.04 2.46 34.21 34.28 36.25 37.44-2.75 0-11.5-0.38-20.5 0-8.5 0.38-15.75-7.06-15.75-14.56v-22.88z" fill="#FCE9C0"/>
  <path d="m129.2 20.11c3.62 3-1 26-0.5 33.5 0.62 9.5 8.25 14.5 14.75 13.5 5.2-0.78 15.5-3.5 22.25-3 4.75 0.36 6.75 2 7.25 5v-5c0-3-1-4.5-2.5-6l-3.5-0.5-6.5 0.5h-10c-8 0-15.25-6.5-15.75-14.5-0.38-6 0-19.5-1-23.5h-4.5z" fill="#EAC9A2"/>
  <path d="m169.8 185.6c-3.62 6.37-12.62 21.37-19.62 28.87-5.75 6.25-15 10.5-18.5 11.5 3.5-4.75 3.5-13 3.5-21.75 0-7.25 6.25-13.75 13.75-13.25 8.25 0.56 16.25-0.5 20.87-5.37z" fill="#C9E3F7"/>
  <path d="m22.11 174.2c-0.77 3.9-0.5 26.57-0.5 33.57 0 11.5 6.5 20.25 20 20.25h76c7.5 0 11.56-4.75 12.56-10.5-2 3-4.5 7-13.5 7h-69.5c-12 0-20.56-4.25-20.56-21.75 0-9.5-2-26.5 2-32.5l-6.5 3.93z" fill="#EFD3B4"/>
  <path d="m136.2 194c-4 3.5-5 6.25-5 13.25 0 6-0.5 12.25-3.5 16.25 1.5-2 4.5-5 4.5-14.5 0-7 1-11 4-15z" fill="#B8CFE5"/>
  <path d="m176 133.9c6.5-0.5 11.91-3.3 16.26-5.68l-3.35 23c-3.83 2.68-7.65 4.38-12.91 5v-22.32z" fill="#F6E3D2"/>
  <path d="m176 133.9c2.68-0.18 4.26-0.3 6.13-0.8-1 1.75-1.5 4-1.5 6.62 0 4.88 1.5 7.13 7.13 4.88l1.15 6.62c-3.28 2.38-8 4.5-12.91 5v-22.32z" fill="#E5C5AA"/>
  <path d="m24.61 140.1c-9 8.5-16 20.5-16 30 0 6.5 6 7.5 10 4.5 5-3.5 8.5-10 13-13" fill="#FEF2D3" stroke="#3D5270" stroke-linecap="round" stroke-width="3.4"/>
  <path d="m197.8 111.4-10.88 48.81c-0.68 3.24 1.69 6.19 5.13 6.19 3.1 0 4.96-1.89 5.69-5.64l9.96-47.61-9.9-1.75z" fill="#3D5270"/>
  <path d="m199.9 113.8-10.09 46.41c-0.46 2.24 0.59 3.39 2.34 3.39 1.56 0 2.56-1.15 3.03-3.5l9.88-45-5.16-1.3z" fill="url(#paint0_linear_838_14487)"/>
  <path d="m207.8 59.23c-14.5 0-26.25 12.88-26.25 27.38 0 11 7.13 20.75 16.21 25.37l1 0.5 8.25 1.5h0.79c15 0 27.88-13.37 27.88-27.37s-11.88-27.38-27.88-27.38z" fill="#3D5270"/>
  <path d="m207.8 62.98c-12.75 0-22.5 11.38-22.5 23.63s10.75 23 22.5 23c12.75 0 24.13-11.38 24.13-23 0-12.25-10.63-23.63-24.13-23.63z" fill="url(#paint1_linear_838_14487)" stroke="#3D5270" stroke-width="2.5"/>
  <path d="m222.8 75.23c-2.75-2.5-6-1.5-8 0.75l-10.37 11.25-3-3.5c-2.75-2.5-6.75-1.5-8.75 2-1.5 2.75-0.5 5.25 1 6.75l7.5 7.75c2.5 2.5 6.25 1.5 8-0.75l14.5-16c2-2.5 2-5.75-0.88-8.25z" fill="#FEFFFE" stroke="#3D5270" stroke-width="3"/>
  <path d="m197.4 132.4c0 5.75 3.75 11.25 6 11.25 3.25 0 6.5-5.5 6.5-10.75 0-5.75-3-8.25-6-8.25-3.75 0-6.5 3.5-6.5 7.75z" fill="#3D5270"/>
  <path d="m198.9 132.6c0 4.5 3 9 4.75 9 2.5 0 4.75-4.5 4.75-8.75 0-4.5-1.75-6.75-4.25-6.75-3 0-5.25 3-5.25 6.5z" fill="#F6E3D2"/>
  <path d="m220.8 46.31-0.89 7.63c-0.19 1.63 0.31 2.17 1.39 2.17s1.5-0.75 1.67-2.17l0.64-6.5c0.13-1.46-0.7-2.21-1.7-2.21-0.75 0-1.06 0.5-1.11 1.08z" fill="#78D6A9"/>
  <path d="m233.6 49.61-5 7c-0.89 1.28-0.45 2.5 0.67 3 0.88 0.41 1.88 0 2.52-1l4.61-6.88c0.79-1.25 0.25-2.62-1-3-0.75-0.25-1.5 0.25-1.8 0.88z" fill="#78D6A9"/>
  <path d="m241.9 60.42-5.75 2.5c-1.25 0.56-1.75 1.5-1.25 2.69 0.5 1 1.75 1.25 2.75 0.75l5.75-3c1.25-0.63 1.5-1.63 1-2.5-0.5-0.88-1.5-0.94-2.5-0.44z" fill="#78D6A9"/>
  <path d="m30.29 66.42v-23.56c0-8.75 6.5-15.75 16.5-15.75h15c2.5 0 3.5 0.87 3.5 2.12s-1.25 2-3 2h-15c-9 0-14.5 4.5-14.5 13v22c0 1.75-0.75 2.5-2 2.5s-1.5-1.12-0.5-2.31z" fill="#FEFFFE"/>
  <path d="m68.29 28.73c0-1.62 1.25-2.12 2.5-2.12h2.5c1.5 0 2 1 2 2 0 1.25-0.75 2-2.25 2h-2.75c-1.25 0-2-0.75-2-1.88z" fill="#FEFFFE"/>
  <path d="m48.11 170.1h104.5" stroke="#A3BDD6" stroke-linecap="round" stroke-width="4.5"/>
  <path d="m48.11 183.7h68" stroke="#A3BDD6" stroke-linecap="round" stroke-width="4.5"/>
  <path d="m48.36 197.1h54.75" stroke="#A3BDD6" stroke-linecap="round" stroke-width="4.5"/>
  <path d="m94.86 51.61h24.5" stroke="#A3BDD6" stroke-linecap="round" stroke-width="4.5"/>
  <path d="m95.11 65.61h24.25" stroke="#A3BDD6" stroke-linecap="round" stroke-width="4.5"/>
  <path d="m94.86 78.73h57.25" stroke="#A3BDD6" stroke-linecap="round" stroke-width="4.5"/>
  <path d="m74.01 97.27c-7.79-1.93-13.97 3.11-14.72 9.54-0.91 7.92 4.9 12.25 10.82 12.25 6.9 0 11.65-6.25 11.4-11-0.25-5-3.25-9.7-7.5-10.79z" fill="#354966"/>
  <path d="m72.79 101.1c-4 2-4.5 6.5-1.25 8 3.5 1.5 6.25-1.5 6.25-4.5s-2.5-4.63-5-3.5z" fill="#FEFFFE"/>
  <path d="m65.04 110.4c-1.25 1.5-0.5 3.25 1 3.5 1.75 0.25 2.5-1.25 2.25-2.75-0.5-1.5-2-2-3.25-0.75z" fill="#FEFFFE"/>
  <path d="m139.5 97.02c-7.79-1.93-13.47 2.86-14.72 9.79-1.43 8.07 4.82 12.25 9.82 12.25 7.5 0 11.75-6.75 11.75-11.25 0-5-2.6-9.7-6.85-10.79z" fill="#354966"/>
  <path d="m138 101.1c-3.5 1-4.25 5.25-1.75 7.25 3 2.5 6.75-0.25 6.5-3.5-0.25-2.75-2.5-4.5-4.75-3.75z" fill="#FEFFFE"/>
  <path d="m129.3 110.4c-1.25 1.5-0.25 3 1 3.25 1.75 0.25 2.75-1 2.5-2.5-0.5-1.5-2.25-2-3.5-0.75z" fill="#FEFFFE"/>
  <path d="m94.11 113.4c1 4.25 4.75 6.75 9.25 6.75 5 0 7.75-3.5 8.75-7" stroke="#2B3B57" stroke-linecap="round" stroke-width="3.5"/>
  <path d="m59.81 120.5c-6 0-8.25 2.25-8.25 4.25 0 3 3.5 4.5 8.5 4.5 5.75 0 7.75-2 7.75-4.25 0-2.75-2.5-4.5-8-4.5z" fill="#F69A98"/>
  <path d="m145.3 120.3c-6 0-8.25 2.25-8.25 4.25 0 3 3.5 4.5 8.5 4.5 5.75 0 8.25-2 8.25-4.25 0-2.75-2.5-4.5-8.5-4.5z" fill="#F69A98"/>
  <path d="m46.01 97.21 2.8 1.6c1.4 0.8 1.8 1.4 2.1 2.8l0.4 1.8c0.2 0.8 1.4 0.8 1.6-0.1l0.4-1.9c0.3-1.3 1-2.2 2.3-2.8l2.4-1.1c0.7-0.3 0.7-1.4-0.1-1.7l-2.2-0.8c-1.4-0.6-2.2-1.6-2.7-3.4l-0.4-1.2c-0.3-0.9-1.5-0.8-1.7 0l-0.5 2.3c-0.4 1.6-1.4 2.7-2.9 3.3l-1.6 0.6c-0.8 0.3-0.8 1.2 0.1 0.6z" fill="#FEFFFE"/>
  <path d="m147 97.21 2.8 1.6c1.4 0.8 1.8 1.4 2.1 2.8l0.4 1.8c0.2 0.8 1.4 0.8 1.6-0.1l0.4-1.9c0.3-1.3 1-2.2 2.3-2.8l2.4-1.1c0.7-0.3 0.7-1.4-0.1-1.7l-2.2-0.8c-1.4-0.6-2.2-1.6-2.7-3.4l-0.4-1.2c-0.3-0.9-1.5-0.8-1.7 0l-0.5 2.3c-0.4 1.6-1.4 2.7-2.9 3.3l-1.6 0.6c-0.8 0.3-0.8 1.2 0.1 0.6z" fill="#FEFFFE"/>
  <path d="m47.54 80.11c1-10 7.5-14.5 16-14.5s14.25 4.5 16.25 14.5c-7.25 2.25-19.75 3.5-32.25 0z" fill="#C9E3F7" stroke="#A3BDD6" stroke-linecap="round" stroke-linejoin="round" stroke-width="2.5"/>
  <path d="m63.54 44.86h1c6.5 0 10 6.25 9.25 11.5-0.75 5.5-5 9-9.75 8.75-5.75-0.25-10.5-4.5-10.5-10s4.75-10.25 10-10.25z" fill="#C9E3F7" stroke="#86A9CC" stroke-linecap="round" stroke-linejoin="round" stroke-width="2.5"/>
  <path d="m80.29 145.2c-1 4-1.5 12.75 3.5 14.75 5.25 2.13 11.75-2.87 15.25-5.37 1 0.25 2.5 0.75 4.5 0.75 1.75 0 3.25-0.5 4.25-1 3.25 2.75 8.75 8.25 14.75 6.25 4.75-1.75 5.25-9 3.75-14 1.25-5-1-11.5-7.5-10-4 1-8.5 4-11 5.75-1-0.5-2.25-0.75-4-0.75s-3.25 0.5-4.25 1c-3.5-2.75-9.25-7-14.25-6.25s-5.75 5.25-5 8.87z" fill="#DDBB97" opacity=".6"/>
  <path d="m79.29 143.5c-0.5-5.75 2.5-10.25 8.5-8.75 4.25 1.13 8.25 4 11 6 1-0.75 2.5-1 4.5-1s3.5 0.5 4.5 1.25c3-2.25 7-5.25 11.5-6.25 6.25-1.25 8.75 5.25 7.5 11.25 1 3.5 0.75 11-4 13-5.25 2-11.25-3.25-14.25-5.25-1 0.75-2.5 1.25-4.5 1.25s-3.5-0.5-4.5-1.25c-3 2.5-9 7.25-14.25 5.5s-6.25-8.5-6-12.25v-3.5z" fill="#354966"/>
  <path d="m82.79 143.6c-0.5-3.75 1.75-6.5 5.25-5.75 3.75 0.75 7.25 3 9.5 4.75-0.5 1-0.75 2.25-0.75 3.75h-3.5c-1.25 0-2 0.5-2 1.5s0.75 1.5 2 1.5h3.5c0 1.25 0.25 2.25 0.75 3.25-2.75 2.25-6.25 4-10.25 4s-5-4-4.5-8.25v-4.75z" fill="url(#paint2_linear_838_14487)"/>
  <path d="m124.5 143.4c0.5-3.75-2.25-6.25-5.75-5.5-3.75 0.75-6.75 3-9.25 4.75 0.5 1 0.75 2.25 0.75 3.5h3.5c1 0 1.75 0.5 1.75 1.5s-0.75 1.5-1.75 1.5h-3.5c0 1.25-0.25 2.25-0.75 3 2.75 1.75 6 4 9.75 4.25 4 0.25 5.5-4 5-8l0.25-5z" fill="url(#paint3_linear_838_14487)"/>
  <path d="m103.8 142.4h1c3 0 4 2.25 4 4.75v1.25c0 2.75-1.75 4.25-4.25 4.25h-1c-2.75 0-4.5-1.75-4.5-4.5v-1.5c-0.25-2.75 1.25-4.25 4.75-4.25z" fill="url(#paint4_linear_838_14487)" stroke="#BA3645" stroke-linecap="round" stroke-linejoin="round" stroke-width="2.5"/>
  <defs>
    <linearGradient id="paint0_linear_838_14487" x1="197.4" x2="197.4" y1="113.8" y2="163.6" gradientUnits="userSpaceOnUse">
      <stop stop-color="#A3FBB7" offset="0"/>
      <stop stop-color="#78D6A9" offset="1"/>
    </linearGradient>
    <linearGradient id="paint1_linear_838_14487" x1="208.6" x2="208.6" y1="61.73" y2="110.9" gradientUnits="userSpaceOnUse">
      <stop stop-color="#A3FBB7" offset="0"/>
      <stop stop-color="#78D6A9" offset="1"/>
    </linearGradient>
    <linearGradient id="paint2_linear_838_14487" x1="90.17" x2="90.17" y1="137.7" y2="156.6" gradientUnits="userSpaceOnUse">
      <stop stop-color="#F96A71" offset="0"/>
      <stop stop-color="#E3555A" offset="1"/>
    </linearGradient>
    <linearGradient id="paint3_linear_838_14487" x1="117.2" x2="117.2" y1="137.7" y2="156.4" gradientUnits="userSpaceOnUse">
      <stop stop-color="#F96A71" offset="0"/>
      <stop stop-color="#E3555A" offset="1"/>
    </linearGradient>
    <linearGradient id="paint4_linear_838_14487" x1="103.9" x2="103.9" y1="142.4" y2="152.6" gradientUnits="userSpaceOnUse">
      <stop stop-color="#F96A71" offset="0"/>
      <stop stop-color="#E3555A" offset="1"/>
    </linearGradient>
  </defs>
</svg>