<svg xmlns="http://www.w3.org/2000/svg" viewBox="0 83 84 84" fill="none">
  <path d="m26.61 101c-1.32 0-2.38-1.06-2.38-2.38s1.06-2.38 2.38-2.38 2.38 1.06 2.38 2.38-1.06 2.38-2.38 2.38z" fill="#37A058"/>
  <path d="m18.91 113.2c-1.21 0-2.18 0.97-2.18 2.18s0.97 2.18 2.18 2.18 2.18-0.97 2.18-2.18-0.97-2.18-2.18-2.18z" fill="#37A058"/>
  <path d="m17.06 120.9h0.25c5.41 0 5.66 3.95 5.76 5.25 0.41 4.9-1.83 11.3-7.25 11.3-5.7 0-7.31-5.6-7.11-9.7 0.2-3.9 3.33-6.85 8.35-6.85z" fill="#171D3A"/>
  <path d="m15.71 139.2h1.5c8.43 0 12.41 3.85 12.41 9.8 0 2.3-0.71 3.3-4.6 4-3.13 0.6-5.19 0.7-8.68 0.7-3.35 0-5.59-0.3-8.88-1-3.4-0.75-4.41-1.5-4.41-3.65 0-5.44 4.15-9.85 12.66-9.85z" fill="#171D3A"/>
  <path d="m66.71 120.9h0.25c5.41 0 7.21 3.2 6.96 7.1-0.26 4.7-2.4 9.45-7.68 9.45-5.7 0-7.15-5.4-6.7-10.15 0.31-3.45 3.3-6.4 7.17-6.4z" fill="#171D3A"/>
  <path d="m65.21 139.2h2.05c8.43 0 14.13 3.3 14.13 9.5 0 2.05-0.6 3-4.1 3.8-3.49 0.85-6.57 1.2-9.96 1.2-3.6 0-5.84-0.4-9.39-1.25-3.23-0.8-4.64-1.35-4.64-3.75 0-5.9 5.02-9.5 11.91-9.5z" fill="#171D3A"/>
  <path d="m18.11 110.7c-1.26 0-2.29-1.03-2.29-2.3 0-1.26 1.03-2.3 2.29-2.3 1.27 0 2.3 1.04 2.3 2.3 0 1.27-1.03 2.3-2.3 2.3z" fill="#37A058"/>
  <path d="m19.32 103.9c-1.06 0-1.91-0.85-1.91-1.91 0-1.07 0.85-1.92 1.91-1.92 1.07 0 1.92 0.85 1.92 1.92 0 1.06-0.85 1.91-1.92 1.91z" fill="#37A058"/>
  <path d="m35.36 95.62c-1.32 0-2.38-1.06-2.38-2.38s1.06-2.38 2.38-2.38 2.38 1.06 2.38 2.38-1.06 2.38-2.38 2.38z" fill="#37A058"/>
  <path d="m42.65 95.06c-1.32 0-2.38-1.06-2.38-2.38s1.06-2.38 2.38-2.38 2.38 1.06 2.38 2.38-1.06 2.38-2.38 2.38z" fill="#37A058"/>
  <path d="m49.49 96.36c-1.32 0-2.38-1.06-2.38-2.38s1.06-2.38 2.38-2.38 2.38 1.06 2.38 2.38-1.06 2.38-2.38 2.38z" fill="#37A058"/>
  <path d="m57.88 101.6c-1.32 0-2.38-1.06-2.38-2.38s1.06-2.38 2.38-2.38 2.38 1.06 2.38 2.38-1.06 2.38-2.38 2.38z" fill="#37A058"/>
  <path d="m63.17 107.3c-1.32 0-2.38-1.06-2.38-2.38s1.06-2.38 2.38-2.38 2.38 1.06 2.38 2.38-1.06 2.38-2.38 2.38z" fill="#37A058"/>
  <path d="m66.4 118.1c1.22 0 2.18-0.97 2.18-2.18s-0.96-2.18-2.18-2.18c-1.21 0-2.18 0.97-2.18 2.18s0.97 2.18 2.18 2.18z" fill="#37A058"/>
  <path d="m29.28 106.2-4.35 8.6 1.7 1.95h1.56l3.72-8.35 1.07-1.8-1.82-1.3-1.88 0.9z" fill="#171D3A"/>
  <path d="m34.07 108.3 3.94-0.9 1.88-0.9h4.82l6.4 4.1-1.7-4.5 3.23-0.8 5.07 9.6-1.7 2.05-1.21 0.25-7.71-7.3-5.41 1.7-2.58-1.5-2.33 1.7-2.7-3.5z" fill="#171D3A"/>
  <path d="m33.01 116.7 1.11-1.4 2 0.4 2.98 2.6 1.56 1.5 1.36 1.19" stroke="#171D3A" stroke-linecap="round" stroke-linejoin="round" stroke-width="1.5"/>
  <path d="m36.12 120.5 1.56-1.9" stroke="#171D3A" stroke-linecap="round" stroke-linejoin="round" stroke-width="1.5"/>
  <path d="m38.92 122 1.07-1.3" stroke="#171D3A" stroke-linecap="round" stroke-linejoin="round" stroke-width="1.5"/>
  <path d="m41.9 123.1 0.86-1.1 2.47-0.4 4.09-3.2-2.23-2.4" stroke="#171D3A" stroke-linecap="round" stroke-linejoin="round" stroke-width="1.5"/>
</svg>
