<svg xmlns="http://www.w3.org/2000/svg" viewBox="83 0 84 84" fill="none">
  <path d="m139.8 16.07-11.46-12.26h-26.76c-3.13 0-4.59 1.96-4.59 4.7v50.21c0 2.89 1.69 4.69 4.63 4.69h35.24c2.34 0 2.69-0.5 2.76-1.95l-5.14-5.4-0.41-2.15c-3.39 2.05-5.97 2.6-9.1 2.6-10.21 0-17.97-8.09-17.97-17.9 0-10.3 8.58-19.5 18.38-19.5 5.76 0 11.29 2.7 14.42 8.23v-11.27z" fill="#37A058"/>
  <path d="m128 3.81 12.11 12.41h-8.78c-2.24 0-3.64-1.65-3.64-3.86v-8.55h0.31z" fill="#171D3A"/>
  <path d="m125 21.21c-9.44 0-15.74 8.4-15.74 17.05 0 8.82 7.01 16 15.74 16s16.02-7.03 15.71-16.45c-0.26-8.5-6.98-16.6-15.71-16.6z" fill="#171D3A"/>
  <path d="m125 25.17c-7.16 0-11.98 6.54-11.98 13.14 0 6.81 5.58 12.06 11.88 12.06 7.16 0 12.25-6.45 12-12.81-0.26-6.5-5.5-12.39-11.9-12.39z" fill="#FEFFFE"/>
  <path d="m118.6 38.51 4.57 4.86 8.38-8.65" stroke="#37A058" stroke-linecap="round" stroke-linejoin="round" stroke-width="3.75"/>
  <path d="m138.9 48.92 3.13 0.25 10.21 10.43c2.37 2.46 1.24 6.98-2.85 6.98-1.55 0-2.56-0.9-3.68-2.25l-8.81-9.92v-2.95l2-2.54z" fill="#171D3A"/>
</svg>
