<svg xmlns="http://www.w3.org/2000/svg" viewBox="166 166 84 84" fill="none">
  <path d="m198 182.4c-11.62 0-21 9.7-21 20.18 0 5.79 2.49 10.13 5.33 13.2l-1.25 7.91c-0.25 1.63 0.62 2.27 2.12 1.5l7.61-3.91c2.5 0.94 5.32 1.48 8.17 1.48h3.83c0.38-11.66 9.13-22.13 16.99-23.16-1.4-9.85-10.05-17.2-21.8-17.2z" fill="#171D3A"/>
  <path d="m225.3 200.3c-11.9 0-21.54 8.92-21.54 20.53 0 10.92 9.89 19.74 21.18 19.15 2.74-0.14 5.2-0.65 7.54-1.57l8.23 4.84c1.56 0.95 2.82 0.16 2.29-1.78l-2.23-7.47c3.95-3.6 6.29-8.55 6.29-13.28 0-10.84-9.86-20.42-21.76-20.42z" fill="#37A058"/>
  <path d="m203.8 222.1c9.98-2.03 15.22-10.77 15.87-21.51-8.78 1.35-16.06 9.76-15.87 21.51z" fill="#FEFFFE" opacity=".2"/>
  <path d="m225.7 209.7c-5.09 0-7.55 4.9-6.73 9.23 0.46 2.51 2.87 4.98 2.87 6.51v1.76h7.13v-1.76c0-1.6 2.63-3.96 3.19-7.13 0.84-4.5-2.1-8.61-6.46-8.61z" fill="#171D3A"/>
  <path d="m228 228.4h-4.98v1.98c0 1.27 2.01 2.79 3.23 2.79 1.3 0 2.76-1.63 2.76-2.67v-2.1h-1.01z" fill="#171D3A"/>
  <path d="m191.8 197.3c0-3.85 2.84-6.2 5.92-6.2h0.66c4.29 0 5.99 3.1 5.99 5.85 0 3.3-4.35 5.7-5.99 7.6v1.7" stroke="#37A058" stroke-linecap="round" stroke-linejoin="round" stroke-width="3.75"/>
  <path d="m197 213.1c1.62 0 2.11-1.05 2.11-2.25 0-1.4-0.86-2.15-1.83-2.15-1.3 0-2.07 0.95-2.07 2.1 0 1.2 0.6 2.3 1.79 2.3z" fill="#37A058"/>
</svg>
