<svg xmlns="http://www.w3.org/2000/svg" viewBox="166 83 84 84" fill="none">
  <path d="m184.9 111.8h10.84v2.15h-10.39v28.76h52.68v-28.76h-3.3v-2.15h3.72c2.14 0 2.26 1.7 2.26 3.05v28.76c0 1.7-0.54 2.09-1.95 2.09h-53.86c-1.7 0-2.29-0.65-2.29-2.24v-28.86c0-1.9 0.67-2.8 2.29-2.8z" fill="#171D3A"/>
  <path d="m178.9 147.2h65.63c1.6 0 1.16 2.89 0.2 4.24-1.12 1.55-2.81 2-4.77 2h-56.78c-2.44 0-4.45-1.05-5.41-2.95-0.5-1.15-0.64-3.29 1.13-3.29z" fill="#171D3A"/>
  <path d="m204.4 147.2h14.86v0.78c0 0.85-0.72 1.21-1.69 1.21h-11c-1.13 0-2.03-0.6-2.17-1.99z" fill="#FEFFFE"/>
  <path d="m190.9 103.1 18.9-7.19c1.36-0.55 2.32-0.45 3.58-0.2l19.88 6.99c1.65 0.65 1.35 2.2 0 2.6l-2.95 1.1v6.9l1.12 1.1c0.77 0.75 0.27 2.05-0.69 2.3l0.76 3.4c0.5 1.8-3.59 1.5-3.74 0.4l0.86-4.9c-0.91-0.55-1.26-1.9-0.4-2.9l-0.72-4.7-14.6 5.1-22.51-7.65c-1.26-0.5-1.31-1.75 0.51-2.35z" fill="#37A058"/>
  <path d="m197.9 110.2 12.87 4.2c1.51 0.5 2.37 0.4 3.72-0.05l10.73-4.15v6c0 3.9-7.39 5.25-12.97 4.95-5.85-0.3-12.25-2.15-14.35-4.95v-6z" fill="#37A058"/>
  <path d="m227.9 128.8h-33.07c-2.42 0-3.38 1.5-3.38 3.3 0 2.06 1.25 3.31 3.13 3.31h33.32c2.06 0 3.02-1.8 3.02-3.36 0-1.95-1.31-3.25-3.02-3.25z" stroke="#37A058" stroke-width="1.5"/>
  <path d="m195.1 132.1h24.04" stroke="#37A058" stroke-linecap="round" stroke-width="1.5"/>
</svg>
