<svg xmlns="http://www.w3.org/2000/svg" viewBox="166 0 84 84" fill="none">
  <path d="m184.1 22.11c4.28-1.4 20.16-1.65 24.19-1.4 0.96 3.46 7.8 7.21 15.33 8.71 4.82 1 9.07 1 11.54 0 1.56 3.85 1.42 20.6-0.38 26.49-1.26 4.41-4.49 6.71-9.58 7.2-11.51 1.25-25.19 1.25-38.42 0-4.93-0.55-7.77-3.89-8.89-8.2-1.25-6.74-0.91-16.3 0.4-24.65 0.49-3.6 1.9-6.89 5.81-8.15z" fill="#171D3A"/>
  <path d="m200.6 33.42 14.11 7.79c1.7 0.95 1.44 2.91 0 3.76l-12.19 6.84c-1.92 1.1-3.42-0.15-3.42-1.7v-15c0-1.39 0.9-2.1 1.5-1.69z" fill="#37A058"/>
  <path d="m209.9 7.01 16.83-0.8 20.21 10.01c1.07 0.6 0.94 1.9-0.37 2.15l-2.54 0.54-1.95 6.21 0.9 2.05-2.24 5.74-2.58-0.6 1.26-5.3 1.26-1.2 1.15-6.4-16.58 0.7-18.69-11.1c-1.06-0.65-0.1-2.2 1.16-2.2l2.18 0.2z" fill="#37A058"/>
  <path d="m212 15.12 13.22 4.84 13.46-1.05-1.56 8c-0.82 3.01-9.91 2.31-14.41 0.71-5.51-2-13.41-5.01-12.16-8.71l1.45-3.79z" fill="#37A058"/>
</svg>
