<svg xmlns="http://www.w3.org/2000/svg" viewBox="83 83 84 84" fill="none">
  <path d="m108.1 116.3-4.7 4.2c-1.26 1.15-1.7 2.2-1.7 4.05v24.4c0 2.9 1.95 4.6 4.42 4.6h38.77c2.8 0 4.06-2.6 4.06-4.45v-24.85c0-2.05-1.36-3.7-2.91-4.9l-4.42-3.25v10.05l3.55-2.6c0.82-0.6 1.88 0.7 1.02 1.55l-18.69 14.85c-1.21 0.9-2.91 0.9-4.17-0.15l-18.26-14.95c-0.96-0.85 0.06-2.05 0.82-1.5l2.21 1.75v-8.8z" fill="#171D3A"/>
  <path d="m110.3 101.4-4.47 8.4c-0.59 1.15-0.1 2 1.11 2.25l16.09 3.45c1.31 0.3 2.17-0.45 2.42-1.6l0.66-5c0.14-1-0.46-1.8-1.37-2.2l-12.19-5.6c-1.01-0.5-1.78-0.6-2.25 0.3z" fill="#37A058" stroke="#FEFFFE" stroke-linecap="round" stroke-linejoin="round" stroke-width=".75"/>
  <path d="m109.9 102.1 4.25 7 9.87-1.05" stroke="#FEFFFE" stroke-linecap="round" stroke-linejoin="round" stroke-width=".75"/>
  <path d="m118.9 111.3 1.11 5.1" stroke="#FEFFFE" stroke-linecap="round" stroke-linejoin="round" stroke-width=".75"/>
  <path d="m139.2 92.11-12.09 7c-0.96 0.6-1.06 1.5-0.51 2.5l4.77 7.1c0.6 0.9 1.51 0.65 2.38 0l11.02-6.65c0.91-0.6 0.96-1.7 0.51-2.7l-3.18-6.55c-0.6-1.25-1.72-1.45-2.9-0.7z" fill="#37A058" stroke="#FEFFFE" stroke-linecap="round" stroke-linejoin="round" stroke-width=".75"/>
  <path d="m138.8 92.61-2.68 7.6-7.53-0.8" stroke="#FEFFFE" stroke-linecap="round" stroke-linejoin="round" stroke-width=".75"/>
  <path d="m138.9 99.91 5.01 1.2" stroke="#FEFFFE" stroke-linecap="round" stroke-linejoin="round" stroke-width=".75"/>
  <path d="m120 123 10.79-6c0.91-0.55 1.87-0.25 2.42 0.75l4.6 6.85c0.66 1.05 0.26 2.2-0.92 2.6l-10.68 6.51c-1.22 0.75-2.53 0.25-3.12-1.1l-3.98-7.01c-0.66-1.3-0.41-2 0.89-2.6z" fill="#37A058" stroke="#FEFFFE" stroke-linecap="round" stroke-linejoin="round" stroke-width=".75"/>
  <path d="m131.5 117.8-4.2 7.85-7.29-0.5" stroke="#FEFFFE" stroke-linecap="round" stroke-linejoin="round" stroke-width=".75"/>
  <path d="m132.9 126.3 4.09-0.25" stroke="#FEFFFE" stroke-linecap="round" stroke-linejoin="round" stroke-width=".75"/>
  <path d="m116.7 139.6-11 9.9" stroke="#FEFFFE" stroke-linecap="round" stroke-linejoin="round" stroke-width="2"/>
  <path d="m134.8 139.6 10.03 9.9" stroke="#FEFFFE" stroke-linecap="round" stroke-linejoin="round" stroke-width="2"/>
</svg>
