<svg xmlns="http://www.w3.org/2000/svg" width="200" height="200" fill="none" viewBox="0 0 200 200">
<!-- SVG created with Arrow, by QuiverAI (https://quiver.ai) -->
  <path d="m100 160.6-0.17 37.21c28.63-0.06 70.15-4.8 70.15-12.23v-12.51l-69.98-12.47z" fill="#C09223"/>
  <path d="m29.85 173.1v12.51c0 7.29 30.19 12.17 69.88 12.23v-37.21l-69.88 12.47z" fill="#1A1E38"/>
  <path d="m170 173.1c0 5.52-22.14 10.21-51.61 11.63l-18.65-0.22v-23.88c38.65 0 70.26 5.61 70.26 12.47z" fill="#1A1E38"/>
  <path d="m29.85 173.1c0 3.14 5.47 5.23 11.51 6.6l18.82 3.24c11.02 2.14 25.77 3.22 39.55 3.22v-25.53c-38.64 0-69.88 5.61-69.88 12.47z" fill="#3AAF59"/>
  <path d="m170 172.1c-1.91-3.4-9.59-5.99-25.29-8.43l-6.02-0.8c-10.6-1.64-22.49-2.3-38.93-2.3v7.15l9.35 0.3c12.36 0.62 25.07 1.59 32.68 4.08h28.21z" fill="url(#paint0_linear_110_40719)"/>
  <path d="m39.09 166.7c11.99-3.61 30.88-6.09 60.64-6.09v7.15c-11.5 0-33.81 0.97-39.75 3.31l-20.89-4.37z" fill="url(#paint1_linear_110_40719)"/>
  <path d="m58.12 172.5c0 5.05 18.37 7.45 41.61 7.45 23.25 0 42.18-2.89 42.18-7.45 0-4.23-18.93-6.45-42.18-6.45-23.24 0-41.61 2.06-41.61 6.45z" fill="#F5F7FF"/>
  <path d="m62.41 172.3c0 3.32 15.4 5.52 35.27 5.52 19.88 0 38.1-2.49 38.1-5.52 0-2.87-18.22-4.75-38.1-4.75-19.87 0-35.27 1.45-35.27 4.75z" fill="#1A1E38"/>
  <path d="m100.1 159.9-0.36 7.61 9.19 0.11 0.22-7.34-9.05-0.38z" fill="url(#paint2_linear_110_40719)"/>
  <path d="m147.1 91.23c3.97-7.37 9.22-11.37 16.02-7.51 6.58 3.75 5.03 12.53-0.92 17.96-13.45 15.31-28.51 28.09-57.06 34.29-31.32 3.21-46.74-6.08-60.02-19.81-11.5-11.97-14.96-26.98-13.3-41.05 2.09-18.23 7.33-31.59 13.39-37.22 11.81-12.58 25.84-19.06 36.12-21.25l3.48 6.23c-15.14 5.6-32.35 21.94-37.35 40.15-4.44 15.39-1.49 34.49 13.3 46.6 14.35 11.79 27.2 12.32 39.95 9.5 17.11-3.09 34.59-14.01 46.39-27.89z" fill="url(#paint3_linear_110_40719)"/>
  <path d="m148.7 104c5.45-1.24 9.25-3.79 10.92-6.9l1.04 3.24c5.81-4.72 7.82-11.28 4.04-16.11l-2.8 2.72-0.79-3.82c-5.31-0.67-9.95 2.8-12.84 7.55 0.38 2.42 0.71 6.68 0.43 13.32z" fill="url(#paint4_linear_110_40719)"/>
  <path d="m153.7 94.65 0.37-4.64 4.53 2.06-0.87-4.95 5.85-1.7-1.68 1.51 0.22-2.87-1.75-0.54-7.37 4.56-0.84 5.72 1.54 0.85z" fill="#F0E4B7"/>
  <path d="m147.9 76.61 10.29-2.8 5.7-14.75c-4.96 0.26-9.79 3.13-11.29 6l-4.7 11.55z" fill="#F9CC00"/>
  <path d="m160.1 74.99 10.42 8.8 4.96 9.92c7.15-8.91 10.65-10.65 9.13-21.3-5.42-9.45-11.97-14-21.37-13.35-3.22 5.6-5 14.75-5 14.75l1.86 1.18z" fill="url(#paint5_linear_110_40719)"/>
  <path d="m163 57.53c4.77-9.52 9.69-15.21 14.48-17.99l16.36-7.03c2.5 7.33 2.28 23.12-8.7 37.5-3.9 5.23-8.43 9.78-12.85 13.1l-4.18-3.98-9.65-5.32c0.21-3.53 1.69-10.33 4.54-16.28z" fill="url(#paint6_linear_110_40719)"/>
  <path d="m177.4 39.54 9.52 6.67 6.95-13.7c-2.21-0.35-11.71 3.3-16.47 7.03z" fill="url(#paint7_linear_110_40719)"/>
  <path d="m194.1 48.31-7.09-2.1 6.84-13.7c1.35 3.3 0.69 12.2 0.25 15.8z" fill="#3AAF59"/>
  <path d="m180.2 60.33c4.32 0 6.55-3.58 6.55-6.4 0-3.55-2.85-6.21-6.33-6.21-4.01 0-6.59 3.06-6.59 6 0 3.44 2.69 6.61 6.37 6.61z" fill="#28B460"/>
  <path d="m180.3 58.06c2.97 0 4.45-2.46 4.45-4.3 0-2.4-1.93-4.19-4.28-4.19-2.67 0-4.36 2.11-4.36 4.07 0 2.37 1.86 4.42 4.19 4.42z" fill="#E7F0FE"/>
  <path d="m161.4 86.71c3.68-5.21 9.76-15.52 12.1-21.65 0.71-2.57-2.4 0-4.31 3.09-2.21 3.57-6.09 12.72-7.79 18.56z" fill="url(#paint8_linear_110_40719)"/>
  <path d="m158.1 77.66 4.06-2.42 3.22 2.68-4.19 4.84-3.09-5.1z" fill="url(#paint9_linear_110_40719)"/>
  <path d="m136.8 11.21h0.26c8.27 0 12.72 7.52 12.72 13.83 0 8.02-6.42 13.32-12.98 13.32h-0.25c-7.95 0-13.32-6.1-13.32-13.32 0-7.28 5.55-13.83 13.57-13.83z" fill="#F9CC00"/>
  <path d="m136.7 13.21h0.22c6.9 0 10.58 6.26 10.58 11.55 0 6.76-5.33 11.26-10.8 11.26h-0.21c-6.69 0-11.15-5.25-11.15-11.31 0-6.13 4.67-11.5 11.36-11.5z" fill="#C09223"/>
  <path d="m132.1 18.01-0.99 1.6h3.49c0.3 0.61 0.52 1.03 0.68 1.48h-2.97l-1.01 1.6h4.38c0.45 2.03-1.21 3.5-4.08 3.5v1.19l6.4 6.38h2.7l-5.99-6.05v-0.4c2.87-0.2 4.22-1.9 4.19-3.68l-0.04-0.94h2.5l1-1.6h-3.9c-0.16-0.53-0.4-1.06-0.71-1.48h3.25l1.01-1.6h-9.91z" fill="#F9CC00"/>
  <path d="m7.01 130.8h7.51v17.08h-7.51v-17.08z" fill="#E4E5F7"/>
  <path d="m30.39 120h-2.88v-2.48h-12.25v2.48h-2.37v27.46h-7.68v1.28h32.93v-1.28h-1.35v-16.38l-4.7-2.68v19.06h-2.19l0.49-27.46z" fill="url(#paint10_linear_110_40719)"/>
  <path d="m15.39 123.8h2.72v3.17h-2.72v-3.17z" fill="#E4E5F7"/>
  <path d="m18.11 130.1h-2.72v3.17h2.72v-3.17z" fill="#E4E5F7"/>
  <path d="m18.11 135.9h-2.72v3.17h2.72v-3.17z" fill="#E4E5F7"/>
  <path d="m21.01 123.8h2.72v3.17h-2.72v-3.17z" fill="#E4E5F7"/>
  <path d="m21.01 130.1h2.72v3.17h-2.72v-3.17z" fill="#E4E5F7"/>
  <path d="m21.01 135.9h2.72v3.17h-2.72v-3.17z" fill="#E4E5F7"/>
  <path d="m24.91 123.8h2.21v3.17h-2.21v-3.17z" fill="#E4E5F7"/>
  <path d="m24.91 130.1h2.21v3.17h-2.21v-3.17z" fill="#E4E5F7"/>
  <path d="m24.91 135.9h2.21v3.17h-2.21v-3.17z" fill="#E4E5F7"/>
  <path d="m18.77 141.4h4.96v6.3h-4.96v-6.3z" fill="#E4E5F7"/>
  <path d="m108.8 47.66v16.57l-22.41 1.56v-18.13c0-7.48 5.66-11.77 11.3-11.55 6.98 0 11.11 5.95 11.11 11.55z" fill="#191E42"/>
  <path d="m87.01 26.72-11.77 12.52 0.94-9.92 7.31-9.39 3.52 6.79z" fill="#C09223"/>
  <path d="m70.65 11.69c-3.66 0.58-7.44 5.02-10.34 6.8l9.86 2.15 7.69-9.53c-1.85-0.33-3.94-0.07-7.21 0.58z" fill="#C09223"/>
  <path d="m70.03 21.36c7.89-9.92 15.45-17.4 25.31-18.72l9.49 0.14c-2.29 11.54-9.91 21.81-24.72 27.33l-4.1 0.42-5.98-9.17z" fill="url(#paint11_linear_110_40719)"/>
  <path d="m95.34 2.64 9.49 0.14c-0.94 4.68-3.31 9.63-7.09 14.31l-4.42-7.8 2.02-6.65z" fill="url(#paint12_linear_110_40719)"/>
  <path d="m88.92 9.01c-3.39 0-4.91 2.8-4.91 4.79 0 2.61 2.21 4.56 4.75 4.56 3.01 0 4.86-2.45 4.86-4.63 0-2.55-2.09-4.72-4.7-4.72z" fill="#28B460"/>
  <path d="m89.19 10.6c-2.32 0-3.47 2.06-3.47 3.39 0 1.89 1.57 3.24 3.34 3.24 2.21 0 3.55-1.84 3.55-3.37 0-1.87-1.5-3.26-3.42-3.26z" fill="#F5F7FF"/>
  <path d="m13.32 24.51v37.6h29.99l0.2-29.45-7.56-8.15h-22.63z" fill="#E4E5F7"/>
  <path d="m35.77 24.51 8 8.15h-8v-8.15z" fill="#1A1E38"/>
  <path d="m23.18 29.71c-2.37 0.57-3.17 2.95-2.5 4.34 0.98 2.22 3.23 2.22 4.25 1.52 1.88-1.24 1.79-3.16 0.96-4.45-0.71-1.11-1.87-1.6-2.71-1.41z" fill="#1A1E38"/>
  <path d="m17.56 41.31c0-3.77 2.43-5.65 5.56-5.65 3.12 0 5.45 2.43 5.45 5.65h-11.01z" fill="#1A1E38"/>
  <path d="m31.46 36.93h7.27v1.5h-7.27v-1.5z" fill="#1A1E38"/>
  <path d="m31.46 40.17h7.27v1.49h-7.27v-1.49z" fill="#1A1E38"/>
  <path d="m17.36 45.22h21.37v1.49h-21.37v-1.49z" fill="#1A1E38"/>
  <path d="m17.36 48.97h21.37v1.49h-21.37v-1.49z" fill="#1A1E38"/>
  <path d="m17.51 52.72h21.37v1.49h-21.37v-1.49z" fill="#1A1E38"/>
  <path d="m17.71 55.96h11.1v1.25h-11.1v-1.25z" fill="#1A1E38"/>
  <path d="m124.6 60.71c1.95-1.25 4.47-1.73 7.4-1.25l7.01 29.67c-1.61 1.33-4.3 2.05-6.8 1.78l-7.61-30.2z" fill="#F1F1FE"/>
  <path d="m128.2 72.95-1.17 0.97 0.18 5.21-9.77 4.51-4.13-9.92-5.35 3.98 4.17 11.84c1.53 2.31 4.28 2.84 6.78 1.12l11.93-9.53-0.52-5.6-2.12-2.58z" fill="#C09223"/>
  <path d="m133.3 72.32c1.7-0.71 2.45 0 2.67 1.49 0.34 2.29 1.28 5.48-0.97 6.16-1.95 0.64-2.85-2.96-3.58-3.93-0.61-0.78-0.22-2.83 1.88-3.72z" fill="#C09223"/>
  <path d="m75.92 79.13-0.32 8.28 1.01 17.55c-1.1 0.96-1.2 2.81-0.89 4.05 0.33 1.41 0.09 3.9 1.09 4.38 0.7 0.35 1.71-0.11 2.2-0.38l0.7 0.61 2.37-0.29 0.35-4.81-1.62-3.41 1.5-19.89 2.46-5.43-1.96-4.95-6.89 4.29z" fill="#C09223"/>
  <path d="m117.8 79.21-6.59-13.62-2.63-1.96-4.61-0.72-10.34-0.37-7.8 1.69c-3.11 1.56-8.19 12.15-9.89 14.9l9.29 5.6 2.75-7.65 1.1 12.7 19.73-0.15 3.52-15.02 5.47 4.6z" fill="url(#paint13_linear_110_40719)"/>
  <path d="m93.61 49.81c-1.91-1.1-3.09 0.25-3.09 1.31 0 1.71 1.18 2.81 2.8 2.74l0.29 8.68 8.63 7.87-0.62-11.35c4.39-0.65 5.43-5.97 4.73-11.6-0.49-2.75-2.54-5.54-3.34-6.05-1.98 4.72-5.85 7.44-9.4 8.4z" fill="url(#paint14_linear_110_40719)"/>
  <path d="m96.62 55.76 5 3.3c-2.4 0.4-4.17-0.92-5-3.3z" fill="#B1721B"/>
  <path d="m90.26 89.71h18.15c3.68 7.2 6.31 14.35 7.04 23.35l3.78 48.16h-8.15l-10.77-49.69-12.12 49.69h-8.93l4.26-53.3c1.25-7.14 3.62-13.27 6.74-18.21z" fill="url(#paint15_linear_110_40719)"/>
  <path d="m80.61 163.7-3.68 6.48c-0.54 1.32-0.4 2.22 0.99 2.22h6.85c1.53 0 1.94-1.1 1.53-2.57l-1.19-6.13h-4.5z" fill="#F5F7FF"/>
  <path d="m113.8 163.7-0.71 8.22h15.89l-1.28-1.89-6.9-3.38-1.72-2.95h-5.28z" fill="#F5F7FF"/>
  <path d="m74.76 110.1h7.7c1.36 0 2.31 1.47 2.31 2.65v4.29h-1.85v-5.09c0-0.69-0.56-1.11-1.21-1.11h-6.47c-0.78 0-1.4 0.52-1.4 1.39v4.81h-1.63v-4.61c0-1.39 1.1-2.33 2.55-2.33z" fill="#293447"/>
  <path d="m63.41 115.1h29.91c1.34 0 1.79 1.18 1.79 2.29v21.26c0 1.11-1.06 1.63-2.02 1.63h-29.68c-1.19 0-2.15-0.72-2.15-1.89v-21.2c0-1.15 0.83-2.09 2.15-2.09z" fill="#1A1E38"/>
  <path d="m91.46 115.1h1.86c1.12 0 1.79 1.1 1.79 2.29v21.2c0 1.03-1 1.69-2.14 1.69h-2.56l1.05-25.18z" fill="#C09223"/>
  <path d="m61.26 123.7 13.65 4.36v0.85l-13.65-3.9v-1.31z" fill="#C09223"/>
  <path d="m91.74 123.8-13.12 4.3v1.11l13.12-4.3v-1.11z" fill="#C09223"/>
  <path d="m75.61 126.5h2.1c0.56 0 1 0.32 1 0.93v3.12c0 0.61-0.37 0.92-1 0.92h-1.99c-0.66 0-1.1-0.34-1.1-0.99v-2.92c0-0.63 0.42-1.06 0.99-1.06z" fill="#F9CC00"/>
  <path d="m156.4 135.3 1.7-2.27c0.49-0.65 0.53-1.48 0.53-2.33 0-1.55 0.7-2.48 2.31-2.83 1.21-0.29 2.05-1.16 2.74-2.42 0.96-1.83 3-2.49 4.56-1.46 1.38 0.96 2.51 1.03 4.14 0.33 1.52-0.7 3.15 0.08 3.85 1.5 0.61 1.25 1.44 1.97 2.83 2.25 1.45 0.33 1.89 1.58 1.67 3.08-0.16 1.11 0.11 2.14 1.12 3.24 1.28 1.36 0.93 3.2-0.42 4.46-1 0.89-1.35 1.92-1.07 3.34 0.35 1.6-0.62 2.78-2.21 3.15-1.29 0.3-2.07 1.11-2.68 2.43-0.84 1.63-2.7 1.18-4.22 0.69-1.19-0.41-2.37-0.21-3.56 0.82-1.28 1.11-3.05 0.52-4.01-0.9-0.78-1.17-1.75-1.52-3.03-1.65s-2.17-1.56-2.42-2.88c-0.19-1.1-0.8-2-1.99-2.96-1.28-1.11-1.15-3.93 0.16-5.59z" fill="#3AAF59"/>
  <path d="m161.9 136.1 4.91 5.7 8.26-9.39-1.6-1.89-6.82 7.8-3-3.57-1.75 1.35z" fill="#F1F1FE"/>
  <defs>
    <linearGradient id="paint0_linear_110_40719" x1="139.1" x2="139.1" y1="160.5" y2="172.2" gradientUnits="userSpaceOnUse">
      <stop stop-color="#C09223" offset="0"/>
      <stop stop-color="#C09223" stop-opacity=".25" offset="1"/>
    </linearGradient>
    <linearGradient id="paint1_linear_110_40719" x1="69.49" x2="69.49" y1="160.5" y2="169.9" gradientUnits="userSpaceOnUse">
      <stop stop-color="#3AAF59" offset="0"/>
      <stop stop-color="#3AAF59" stop-opacity=".25" offset="1"/>
    </linearGradient>
    <linearGradient id="paint2_linear_110_40719" x1="104.6" x2="104.6" y1="160.2" y2="167.7" gradientUnits="userSpaceOnUse">
      <stop stop-color="#C09223" offset="0"/>
      <stop stop-color="#C09223" stop-opacity=".25" offset="1"/>
    </linearGradient>
    <linearGradient id="paint3_linear_110_40719" x1="96.7" x2="96.7" y1="16.64" y2="137.3" gradientUnits="userSpaceOnUse">
      <stop stop-color="#F9CC00" offset="0"/>
      <stop stop-color="#3AAF59" offset=".5104"/>
      <stop stop-color="#399149" offset="1"/>
    </linearGradient>
    <linearGradient id="paint4_linear_110_40719" x1="158" x2="158" y1="83.37" y2="104" gradientUnits="userSpaceOnUse">
      <stop stop-color="#F9CC00" offset="0"/>
      <stop stop-color="#3AAF59" offset="1"/>
    </linearGradient>
    <linearGradient id="paint5_linear_110_40719" x1="171.4" x2="171.4" y1="58.86" y2="93.71" gradientUnits="userSpaceOnUse">
      <stop stop-color="#3AAF59" offset="0"/>
      <stop stop-color="#3AAF59" stop-opacity=".59" offset="1"/>
    </linearGradient>
    <linearGradient id="paint6_linear_110_40719" x1="176.8" x2="176.8" y1="32.43" y2="83.11" gradientUnits="userSpaceOnUse">
      <stop stop-color="#191E42" offset="0"/>
      <stop stop-color="#222846" offset="1"/>
    </linearGradient>
    <linearGradient id="paint7_linear_110_40719" x1="185.7" x2="185.7" y1="32.43" y2="46.21" gradientUnits="userSpaceOnUse">
      <stop stop-color="#F9CC00" offset="0"/>
      <stop stop-color="#F9CC00" stop-opacity=".75" offset="1"/>
    </linearGradient>
    <linearGradient id="paint8_linear_110_40719" x1="167.6" x2="167.6" y1="64.71" y2="86.71" gradientUnits="userSpaceOnUse">
      <stop stop-color="#F9CC00" offset="0"/>
      <stop stop-color="#C09223" offset="1"/>
    </linearGradient>
    <linearGradient id="paint9_linear_110_40719" x1="161.8" x2="161.8" y1="75.24" y2="82.76" gradientUnits="userSpaceOnUse">
      <stop stop-color="#3AAF59" offset="0"/>
      <stop stop-color="#3AAF59" stop-opacity=".52" offset="1"/>
    </linearGradient>
    <linearGradient id="paint10_linear_110_40719" x1="21.68" x2="21.68" y1="117.5" y2="148.7" gradientUnits="userSpaceOnUse">
      <stop stop-color="#0B152A" offset="0"/>
      <stop stop-color="#2A315A" offset="1"/>
    </linearGradient>
    <linearGradient id="paint11_linear_110_40719" x1="87.43" x2="87.43" y1="2.637" y2="30.53" gradientUnits="userSpaceOnUse">
      <stop stop-color="#28B460" offset="0"/>
      <stop stop-color="#28315A" offset="1"/>
    </linearGradient>
    <linearGradient id="paint12_linear_110_40719" x1="99.08" x2="99.08" y1="2.637" y2="17.09" gradientUnits="userSpaceOnUse">
      <stop stop-color="#F9CC00" offset="0"/>
      <stop stop-color="#C09223" offset="1"/>
    </linearGradient>
    <linearGradient id="paint13_linear_110_40719" x1="96.85" x2="96.85" y1="62.54" y2="89.78" gradientUnits="userSpaceOnUse">
      <stop stop-color="#F0F0FF" offset="0"/>
      <stop stop-color="#DDE2F8" offset="1"/>
    </linearGradient>
    <linearGradient id="paint14_linear_110_40719" x1="98.7" x2="98.7" y1="41.41" y2="70.41" gradientUnits="userSpaceOnUse">
      <stop stop-color="#C07810" offset="0"/>
      <stop stop-color="#D7A234" offset="1"/>
    </linearGradient>
    <linearGradient id="paint15_linear_110_40719" x1="99.22" x2="99.22" y1="89.71" y2="161.2" gradientUnits="userSpaceOnUse">
      <stop stop-color="#2A315A" offset="0"/>
      <stop stop-color="#191E38" offset="1"/>
    </linearGradient>
  </defs>
</svg>