<svg xmlns="http://www.w3.org/2000/svg" viewBox="0 0 84 84" fill="none">
  <path d="m27.19 8.43h10.33c5.13 0 7.6 4.07 7.6 7.09v2.6l-2.94 2.06v-4.27c0-2.4-2.24-3.63-4-3.63h-10.21c-2.24 0-4.25 2.01-4.25 4.07v2.06h-4.75v-2.6c0-3.66 3.65-7.38 8.22-7.38z" fill="#171D3A"/>
  <path d="m9.11 18.42h33.07l2.94 2.34v1.76l-1.26 1.25v1.4l3.23 3.98v1.76l1.02 1.25h4.31l2.57 2.61c-4.56 2.24-12.04 3.59-17.79 3.84v-0.9c0-1.4-0.97-2.25-2.22-2.25h-4.03c-1.4 0-2.61 1.1-2.61 2.4v0.75c-7.81-0.4-20.25-2.45-24.63-6.15v-8.69c0-2.88 2.47-5.35 5.4-5.35z" fill="#37A058"/>
  <path d="m4.21 34.89c4.18 3.85 15.85 6.02 22.38 6.42v3.02c0 2.75 2.34 3.76 4.22 3.76h3.65c2.47 0 3.83-1.66 3.83-3.51v-2.27c5.75-0.25 16.82-2.32 23.07-5.85v19.79c0 3.8-2.58 5.46-5.18 5.46h-46.45c-3.34 0-6.02-2.89-6.02-5.59l0.5-21.23z" fill="#37A058"/>
  <path d="m57.52 9.01 3.19 3.91h5.87c1.73 0 2.14 1.87 1.58 3.25l-0.97 2.64 2.24 1.63c1.28 0.9 0.84 2.83-0.42 3.48l-2.94 1.6-0.54 4.57c-0.17 1.43-1.42 1.92-2.62 1.62l-2.7-0.55-2.8 2.65c-1.07 1-2.8 0.56-3.46-0.8l-2.14-4.2-3.29-0.7c-1.41-0.33-2.01-1.78-1.46-3.11l0.97-2.4-2.58-2.4c-1.12-1.06-0.63-3.14 0.98-3.59l2.24-0.7 0.34-2.3c0.25-1.55 1.46-2.2 3.01-1.75l1.88 0.55 1.82-2.4c0.49-0.75 1.09-1.25 1.8-1z" fill="#171D3A"/>
  <path d="m57.27 14.31 2.04 4.6 3.4 1.3-3.65 2.05-1.95 4.95-2.24-4.7-4.41-2.05 4.09-1.4 2.72-4.75z" fill="#37A058"/>
  <path d="m29.9 37.81c0-0.75 0.61-1.35 1.36-1.35h3.07c1.02 0 1.68 0.65 1.68 1.6v7.17c0 1.25-0.97 1.9-2.09 1.9h-2.71c-0.9 0-1.73-0.75-1.73-1.75v-7.57h0.42z" fill="#171D3A"/>
</svg>
